<svg xmlns="http://www.w3.org/2000/svg" height="24" width="24"><path d="M11 5V1h2v4Zm6.65 2.75-1.375-1.375 2.8-2.875 1.4 1.425ZM19 13v-2h4v2Zm-8 10v-4h2v4ZM6.35 7.7 3.5 4.925l1.425-1.4L7.75 6.35Zm12.7 12.8-2.775-2.875 1.35-1.35 2.85 2.75ZM1 13v-2h4v2Zm3.925 7.5-1.4-1.425 2.8-2.8.725.675.725.7ZM12 18q-2.5 0-4.25-1.75T6 12q0-2.5 1.75-4.25T12 6q2.5 0 4.25 1.75T18 12q0 2.5-1.75 4.25T12 18Zm0-2q1.65 0 2.825-1.175Q16 13.65 16 12q0-1.65-1.175-2.825Q13.65 8 12 8q-1.65 0-2.825 1.175Q8 10.35 8 12q0 1.65 1.175 2.825Q10.35 16 12 16Zm0-4Z"/></svg>