<svg xmlns="http://www.w3.org/2000/svg" xmlns:xlink="http://www.w3.org/1999/xlink" width="500" zoomAndPan="magnify" viewBox="0 0 375 374.999991" height="500" preserveAspectRatio="xMidYMid meet" version="1.0"><defs><g/><clipPath id="2bbed0f48c"><path d="M 37 101.308594 L 330 101.308594 L 330 260 L 37 260 Z M 37 101.308594 " clip-rule="nonzero"/></clipPath><clipPath id="1d72c09992"><path d="M 80.453125 101.308594 L 80.453125 259.964844 C 80.917969 259.996094 81.382812 259.996094 81.847656 259.996094 L 284.4375 259.996094 L 284.4375 101.308594 L 80.453125 101.308594 M 296.398438 101.308594 L 284.4375 101.308594 L 284.4375 259.964844 L 284.703125 259.964844 C 304.039062 259.964844 321.011719 244.183594 322.410156 224.917969 L 328.953125 136.320312 C 330.382812 117.085938 315.730469 101.308594 296.398438 101.308594 M 70.15625 101.308594 C 50.820312 101.308594 36.171875 117.085938 37.601562 136.355469 L 44.144531 224.949219 C 45.539062 243.753906 61.75 259.234375 80.484375 259.964844 L 80.484375 101.308594 L 70.15625 101.308594 " clip-rule="nonzero"/></clipPath><clipPath id="ddda926051"><path d="M 148.148438 309.824219 L 221.5 309.824219 L 221.5 329.644531 L 148.148438 329.644531 Z M 148.148438 309.824219 " clip-rule="nonzero"/></clipPath><clipPath id="fc364dc47b"><path d="M 153.675781 309.824219 L 153.675781 329.628906 C 153.730469 329.632812 153.789062 329.632812 153.847656 329.632812 L 215.726562 329.632812 L 215.726562 309.824219 L 153.675781 309.824219 M 217.21875 309.824219 L 215.726562 309.824219 L 215.726562 329.628906 L 215.757812 329.628906 C 218.171875 329.628906 220.289062 327.660156 220.464844 325.253906 L 221.28125 314.195312 C 221.460938 311.796875 219.632812 309.824219 217.21875 309.824219 M 152.390625 309.824219 C 149.976562 309.824219 148.148438 311.796875 148.324219 314.199219 L 149.140625 325.257812 C 149.316406 327.605469 151.339844 329.539062 153.679688 329.628906 L 153.679688 309.824219 L 152.390625 309.824219 " clip-rule="nonzero"/></clipPath><clipPath id="40c885f600"><path d="M 152.0625 312.789062 L 218 312.789062 L 218 327.074219 L 152.0625 327.074219 Z M 152.0625 312.789062 " clip-rule="nonzero"/></clipPath><clipPath id="6f5de61731"><path d="M 156.050781 312.789062 L 156.050781 327.0625 C 156.089844 327.066406 156.132812 327.066406 156.175781 327.066406 L 213.859375 327.066406 L 213.859375 312.789062 L 156.050781 312.789062 M 214.933594 312.789062 L 213.859375 312.789062 L 213.859375 327.0625 L 213.882812 327.0625 C 215.621094 327.0625 217.152344 325.644531 217.277344 323.910156 L 217.863281 315.9375 C 217.992188 314.207031 216.675781 312.789062 214.933594 312.789062 M 155.121094 312.789062 C 153.382812 312.789062 152.0625 314.207031 152.191406 315.941406 L 152.78125 323.914062 C 152.90625 325.605469 154.367188 327 156.050781 327.0625 L 156.050781 312.789062 L 155.121094 312.789062 " clip-rule="nonzero"/></clipPath><clipPath id="2e799076cc"><path d="M 234.726562 309.824219 L 308 309.824219 L 308 329.644531 L 234.726562 329.644531 Z M 234.726562 309.824219 " clip-rule="nonzero"/></clipPath><clipPath id="8511975d2d"><path d="M 240.253906 309.824219 L 240.253906 329.628906 C 240.3125 329.632812 240.371094 329.632812 240.429688 329.632812 L 302.304688 329.632812 L 302.304688 309.824219 L 240.253906 309.824219 M 303.796875 309.824219 L 302.304688 309.824219 L 302.304688 329.628906 L 302.339844 329.628906 C 304.75 329.628906 306.871094 327.660156 307.042969 325.253906 L 307.863281 314.195312 C 308.039062 311.796875 306.210938 309.824219 303.796875 309.824219 M 238.96875 309.824219 C 236.554688 309.824219 234.726562 311.796875 234.90625 314.199219 L 235.722656 325.257812 C 235.894531 327.605469 237.917969 329.539062 240.257812 329.628906 L 240.257812 309.824219 L 238.96875 309.824219 " clip-rule="nonzero"/></clipPath><clipPath id="cd1e41d4e0"><path d="M 238.644531 312.789062 L 304.585938 312.789062 L 304.585938 327.074219 L 238.644531 327.074219 Z M 238.644531 312.789062 " clip-rule="nonzero"/></clipPath><clipPath id="6fb6581be6"><path d="M 242.628906 312.789062 L 242.628906 327.0625 C 242.671875 327.066406 242.710938 327.066406 242.753906 327.066406 L 300.4375 327.066406 L 300.4375 312.789062 L 242.628906 312.789062 M 301.515625 312.789062 L 300.4375 312.789062 L 300.4375 327.0625 L 300.464844 327.0625 C 302.203125 327.0625 303.730469 325.644531 303.855469 323.910156 L 304.445312 315.9375 C 304.574219 314.207031 303.253906 312.789062 301.515625 312.789062 M 241.703125 312.789062 C 239.960938 312.789062 238.644531 314.207031 238.773438 315.941406 L 239.363281 323.914062 C 239.488281 325.605469 240.945312 327 242.632812 327.0625 L 242.632812 312.789062 L 241.703125 312.789062 " clip-rule="nonzero"/></clipPath><clipPath id="5aa971cbc2"><path d="M 60.730469 309.824219 L 134 309.824219 L 134 329.644531 L 60.730469 329.644531 Z M 60.730469 309.824219 " clip-rule="nonzero"/></clipPath><clipPath id="f8a2236bdc"><path d="M 66.257812 309.824219 L 66.257812 329.628906 C 66.3125 329.632812 66.371094 329.632812 66.429688 329.632812 L 128.308594 329.632812 L 128.308594 309.824219 L 66.257812 309.824219 M 129.800781 309.824219 L 128.308594 309.824219 L 128.308594 329.628906 L 128.339844 329.628906 C 130.753906 329.628906 132.871094 327.660156 133.046875 325.253906 L 133.863281 314.195312 C 134.042969 311.796875 132.214844 309.824219 129.800781 309.824219 M 64.972656 309.824219 C 62.558594 309.824219 60.730469 311.796875 60.90625 314.199219 L 61.722656 325.257812 C 61.898438 327.605469 63.921875 329.539062 66.261719 329.628906 L 66.261719 309.824219 L 64.972656 309.824219 " clip-rule="nonzero"/></clipPath><clipPath id="a86e61c844"><path d="M 64.644531 312.789062 L 130.589844 312.789062 L 130.589844 327.074219 L 64.644531 327.074219 Z M 64.644531 312.789062 " clip-rule="nonzero"/></clipPath><clipPath id="a95dbb81ea"><path d="M 68.632812 312.789062 L 68.632812 327.0625 C 68.671875 327.066406 68.714844 327.066406 68.757812 327.066406 L 126.441406 327.066406 L 126.441406 312.789062 L 68.632812 312.789062 M 127.519531 312.789062 L 126.441406 312.789062 L 126.441406 327.0625 L 126.464844 327.0625 C 128.207031 327.0625 129.734375 325.644531 129.859375 323.910156 L 130.445312 315.9375 C 130.574219 314.207031 129.257812 312.789062 127.519531 312.789062 M 67.703125 312.789062 C 65.964844 312.789062 64.644531 314.207031 64.773438 315.941406 L 65.363281 323.914062 C 65.488281 325.605469 66.949219 327 68.632812 327.0625 L 68.632812 312.789062 L 67.703125 312.789062 " clip-rule="nonzero"/></clipPath><clipPath id="79d836de4d"><path d="M 139.597656 28.417969 L 230.507812 28.417969 L 230.507812 52.980469 L 139.597656 52.980469 Z M 139.597656 28.417969 " clip-rule="nonzero"/></clipPath><clipPath id="f5480f0eb0"><path d="M 146.449219 28.417969 L 146.449219 52.960938 C 146.519531 52.964844 146.59375 52.964844 146.664062 52.964844 L 223.351562 52.964844 L 223.351562 28.417969 L 146.449219 28.417969 M 225.203125 28.417969 L 223.351562 28.417969 L 223.351562 52.960938 L 223.394531 52.960938 C 226.386719 52.960938 229.011719 50.519531 229.226562 47.539062 L 230.238281 33.832031 C 230.460938 30.855469 228.195312 28.417969 225.203125 28.417969 M 144.855469 28.417969 C 141.863281 28.417969 139.597656 30.855469 139.820312 33.839844 L 140.832031 47.542969 C 141.046875 50.453125 143.554688 52.847656 146.453125 52.960938 L 146.453125 28.417969 L 144.855469 28.417969 " clip-rule="nonzero"/></clipPath><clipPath id="486119d8f2"><path d="M 143.722656 31.890625 L 226.597656 31.890625 L 226.597656 49.371094 L 143.722656 49.371094 Z M 143.722656 31.890625 " clip-rule="nonzero"/></clipPath><clipPath id="69f1fb7cd2"><path d="M 148.597656 31.890625 L 148.597656 49.355469 C 148.648438 49.359375 148.699219 49.359375 148.75 49.359375 L 221.507812 49.359375 L 221.507812 31.890625 L 148.597656 31.890625 M 222.824219 31.890625 L 221.507812 31.890625 L 221.507812 49.355469 L 221.539062 49.355469 C 223.667969 49.355469 225.535156 47.621094 225.6875 45.5 L 226.410156 35.746094 C 226.566406 33.628906 224.953125 31.890625 222.824219 31.890625 M 147.464844 31.890625 C 145.335938 31.890625 143.722656 33.628906 143.878906 35.75 L 144.601562 45.503906 C 144.753906 47.574219 146.539062 49.277344 148.601562 49.355469 L 148.601562 31.890625 L 147.464844 31.890625 " clip-rule="nonzero"/></clipPath></defs><rect x="-37.5" width="450" fill="#ffffff" y="-37.499999" height="449.999989" fill-opacity="1"/><rect x="-37.5" width="450" fill="#ffffff" y="-37.499999" height="449.999989" fill-opacity="1"/><rect x="-37.5" width="450" fill="#ffffff" y="-37.499999" height="449.999989" fill-opacity="1"/><g clip-path="url(#2bbed0f48c)"><g clip-path="url(#1d72c09992)"><path fill="#ffbc00" d="M 37.5 101.308594 L 329.167969 101.308594 L 329.167969 260.097656 L 37.5 260.097656 Z M 37.5 101.308594 " fill-opacity="1" fill-rule="nonzero"/></g></g><path stroke-linecap="butt" transform="matrix(0.000000000000000046, -0.744727, 0.75, 0.000000000000000046, 182.924949, 101.303825)" fill="none" stroke-linejoin="miter" d="M -0.00115768 2.501109 L 50.709525 2.501109 " stroke="#737373" stroke-width="5" stroke-opacity="1" stroke-miterlimit="4"/><path stroke-linecap="round" transform="matrix(0.000000000000000228, -3.723636, 3.75, 0.00000000000000023, 184.799949, 53.297317)" fill-opacity="1" fill="#737373" fill-rule="nonzero" stroke-linejoin="round" d="M -2.499748 -1.499778 L -0.500274 0.000221889 L -2.499748 1.500222 Z M -2.499748 -1.499778 " stroke="#737373" stroke-width="1" stroke-opacity="1" stroke-miterlimit="4"/><g clip-path="url(#ddda926051)"><g clip-path="url(#fc364dc47b)"><path fill="#737373" d="M 148.3125 309.824219 L 221.292969 309.824219 L 221.292969 329.644531 L 148.3125 329.644531 Z M 148.3125 309.824219 " fill-opacity="1" fill-rule="nonzero"/></g></g><g clip-path="url(#40c885f600)"><g clip-path="url(#6f5de61731)"><path fill="#ebe7e7" d="M 152.183594 312.789062 L 217.886719 312.789062 L 217.886719 327.074219 L 152.183594 327.074219 Z M 152.183594 312.789062 " fill-opacity="1" fill-rule="nonzero"/></g></g><path stroke-linecap="butt" transform="matrix(0.000000000000000046, -0.744711, 0.75, 0.000000000000000046, 182.923308, 309.820789)" fill="none" stroke-linejoin="miter" d="M 0.000640188 2.49809 L 52.731888 2.49809 " stroke="#737373" stroke-width="5" stroke-opacity="1" stroke-miterlimit="4"/><path stroke-linecap="round" transform="matrix(0.000000000000000228, -3.723554, 3.75, 0.00000000000000023, 184.798308, 260.311037)" fill-opacity="1" fill="#737373" fill-rule="nonzero" stroke-linejoin="round" d="M -2.500315 -1.500382 L -0.499748 -0.000382017 L -2.500315 1.499618 Z M -2.500315 -1.500382 " stroke="#737373" stroke-width="1" stroke-opacity="1" stroke-miterlimit="4"/><g clip-path="url(#2e799076cc)"><g clip-path="url(#8511975d2d)"><path fill="#737373" d="M 234.890625 309.824219 L 307.871094 309.824219 L 307.871094 329.644531 L 234.890625 329.644531 Z M 234.890625 309.824219 " fill-opacity="1" fill-rule="nonzero"/></g></g><g clip-path="url(#cd1e41d4e0)"><g clip-path="url(#6fb6581be6)"><path fill="#ebe7e7" d="M 238.765625 312.789062 L 304.464844 312.789062 L 304.464844 327.074219 L 238.765625 327.074219 Z M 238.765625 312.789062 " fill-opacity="1" fill-rule="nonzero"/></g></g><path stroke-linecap="butt" transform="matrix(0.000000000000000046, -0.744711, 0.75, 0.000000000000000046, 269.503259, 309.820789)" fill="none" stroke-linejoin="miter" d="M 0.000640188 2.500863 L 52.731888 2.500863 " stroke="#737373" stroke-width="5" stroke-opacity="1" stroke-miterlimit="4"/><path stroke-linecap="round" transform="matrix(0.000000000000000228, -3.723554, 3.75, 0.00000000000000023, 271.378259, 260.311037)" fill-opacity="1" fill="#737373" fill-rule="nonzero" stroke-linejoin="round" d="M -2.500315 -1.499827 L -0.499748 0.000172685 L -2.500315 1.500173 Z M -2.500315 -1.499827 " stroke="#737373" stroke-width="1" stroke-opacity="1" stroke-miterlimit="4"/><g clip-path="url(#5aa971cbc2)"><g clip-path="url(#f8a2236bdc)"><path fill="#737373" d="M 60.894531 309.824219 L 133.875 309.824219 L 133.875 329.644531 L 60.894531 329.644531 Z M 60.894531 309.824219 " fill-opacity="1" fill-rule="nonzero"/></g></g><g clip-path="url(#a86e61c844)"><g clip-path="url(#a95dbb81ea)"><path fill="#ebe7e7" d="M 64.765625 312.789062 L 130.46875 312.789062 L 130.46875 327.074219 L 64.765625 327.074219 Z M 64.765625 312.789062 " fill-opacity="1" fill-rule="nonzero"/></g></g><path stroke-linecap="butt" transform="matrix(0.000000000000000046, -0.744711, 0.75, 0.000000000000000046, 95.505394, 309.820789)" fill="none" stroke-linejoin="miter" d="M 0.000640188 2.498016 L 52.731888 2.498016 " stroke="#737373" stroke-width="5" stroke-opacity="1" stroke-miterlimit="4"/><path stroke-linecap="round" transform="matrix(0.000000000000000228, -3.723554, 3.75, 0.00000000000000023, 97.380387, 260.311037)" fill-opacity="1" fill="#737373" fill-rule="nonzero" stroke-linejoin="round" d="M -2.500315 -1.500395 L -0.499748 -0.000394841 L -2.500315 1.499605 Z M -2.500315 -1.500395 " stroke="#737373" stroke-width="1" stroke-opacity="1" stroke-miterlimit="4"/><g clip-path="url(#79d836de4d)"><g clip-path="url(#f5480f0eb0)"><path fill="#737373" d="M 139.804688 28.417969 L 230.253906 28.417969 L 230.253906 52.980469 L 139.804688 52.980469 Z M 139.804688 28.417969 " fill-opacity="1" fill-rule="nonzero"/></g></g><g clip-path="url(#486119d8f2)"><g clip-path="url(#69f1fb7cd2)"><path fill="#ebe7e7" d="M 143.867188 31.890625 L 226.414062 31.890625 L 226.414062 49.371094 L 143.867188 49.371094 Z M 143.867188 31.890625 " fill-opacity="1" fill-rule="nonzero"/></g></g><g fill="#ffffff" fill-opacity="1"><g transform="translate(70.76603, 216.05559)"><g><path d="M 35.96875 -61.9375 L 60.96875 0 L 45.796875 0 L 41.21875 -12.390625 L 17.640625 -12.390625 L 13.0625 0 L -2.109375 0 L 22.90625 -61.9375 Z M 36.40625 -24.78125 L 29.5 -42.796875 L 29.359375 -42.796875 L 22.453125 -24.78125 Z M 36.40625 -24.78125 "/></g></g></g><g fill="#ffffff" fill-opacity="1"><g transform="translate(131.049551, 216.05559)"><g><path d="M 18.625 -61.9375 L 18.625 0 L 4.5 0 L 4.5 -61.9375 Z M 18.625 -61.9375 "/></g></g></g><g fill="#ffffff" fill-opacity="1"><g transform="translate(155.598379, 216.05559)"><g><path d="M 53.90625 -25.828125 C 55.5625 -25.828125 56.75 -26.375 57.46875 -27.46875 C 58.195312 -28.570312 58.5625 -30.476562 58.5625 -33.1875 C 58.5625 -39.039062 56.367188 -43.84375 51.984375 -47.59375 C 47.609375 -51.351562 42.117188 -53.234375 35.515625 -53.234375 C 29.160156 -53.234375 23.765625 -51.066406 19.328125 -46.734375 C 14.898438 -42.398438 12.6875 -37.15625 12.6875 -31 C 12.6875 -24.945312 14.910156 -19.851562 19.359375 -15.71875 C 23.816406 -11.59375 29.203125 -9.53125 35.515625 -9.53125 C 38.460938 -9.53125 41.097656 -9.957031 43.421875 -10.8125 C 45.753906 -11.664062 47.347656 -12.515625 48.203125 -13.359375 L 49.546875 -14.640625 L 58.265625 -8.859375 C 58.054688 -8.609375 57.773438 -8.253906 57.421875 -7.796875 C 57.078125 -7.347656 56.242188 -6.546875 54.921875 -5.390625 C 53.597656 -4.242188 52.132812 -3.234375 50.53125 -2.359375 C 48.925781 -1.484375 46.769531 -0.6875 44.0625 0.03125 C 41.363281 0.757812 38.515625 1.125 35.515625 1.125 C 29.410156 1.125 23.789062 -0.210938 18.65625 -2.890625 C 13.53125 -5.566406 9.425781 -9.367188 6.34375 -14.296875 C 3.269531 -19.234375 1.734375 -24.800781 1.734375 -31 C 1.734375 -37.207031 3.269531 -42.773438 6.34375 -47.703125 C 9.425781 -52.640625 13.53125 -56.429688 18.65625 -59.078125 C 23.789062 -61.734375 29.410156 -63.0625 35.515625 -63.0625 C 44.472656 -63.0625 52.039062 -60.257812 58.21875 -54.65625 C 64.40625 -49.050781 67.5 -41.894531 67.5 -33.1875 C 67.5 -27.726562 65.992188 -23.625 62.984375 -20.875 C 59.984375 -18.125 56.40625 -16.75 52.25 -16.75 C 48 -16.75 44.519531 -17.898438 41.8125 -20.203125 L 41.140625 -19.21875 C 38.691406 -16.519531 35.539062 -15.171875 31.6875 -15.171875 C 27.582031 -15.171875 24.191406 -16.617188 21.515625 -19.515625 C 18.835938 -22.421875 17.5 -26 17.5 -30.25 C 17.5 -34.5625 18.835938 -38.179688 21.515625 -41.109375 C 24.191406 -44.035156 27.582031 -45.5 31.6875 -45.5 C 35.488281 -45.5 38.640625 -44.296875 41.140625 -41.890625 L 41.140625 -44.671875 L 50.078125 -44.671875 L 50.078125 -28.984375 C 50.078125 -28.734375 50.125 -28.429688 50.21875 -28.078125 C 50.320312 -27.722656 50.695312 -27.257812 51.34375 -26.6875 C 52 -26.113281 52.851562 -25.828125 53.90625 -25.828125 Z M 30.890625 -34.796875 C 29.710938 -33.617188 29.125 -32.15625 29.125 -30.40625 C 29.125 -28.65625 29.6875 -27.21875 30.8125 -26.09375 C 31.945312 -24.96875 33.414062 -24.40625 35.21875 -24.40625 C 36.914062 -24.40625 38.328125 -24.976562 39.453125 -26.125 C 40.578125 -27.28125 41.140625 -28.707031 41.140625 -30.40625 C 41.140625 -32.15625 40.5625 -33.617188 39.40625 -34.796875 C 38.257812 -35.972656 36.863281 -36.5625 35.21875 -36.5625 C 33.507812 -36.5625 32.066406 -35.972656 30.890625 -34.796875 Z M 30.890625 -34.796875 "/></g></g></g><path fill="#ffbc00" d="M 238.695312 149.496094 C 238.695312 149.496094 226.921875 148.40625 231.898438 162.492188 C 231.898438 162.492188 235.429688 171.179688 238.695312 172.9375 C 238.695312 172.9375 225.421875 182.011719 233.394531 199.246094 L 234.3125 204.703125 C 234.3125 204.703125 239.625 212.582031 246.351562 212.761719 L 248.832031 215.0625 C 248.832031 215.0625 250.515625 220.109375 251.84375 220.730469 C 253.171875 221.347656 259.546875 225.019531 259.546875 225.019531 L 265.71875 224.628906 L 273.445312 220.996094 C 273.445312 220.996094 276.898438 218.074219 276.898438 214.355469 L 278.320312 212.40625 C 278.320312 212.40625 287.082031 210.683594 290.535156 204.070312 L 293.242188 193.988281 L 293.242188 187.578125 L 292.710938 183.484375 L 289.382812 175.21875 L 287.171875 172.738281 C 287.171875 172.738281 289.03125 169.585938 290.003906 168.066406 C 290.976562 166.542969 293.242188 161.34375 293.242188 161.34375 L 295.226562 156.625 L 293.242188 151.667969 L 287.582031 149.476562 L 284.25 150.691406 L 276.59375 158.78125 C 276.59375 158.78125 268.671875 154.519531 263.621094 154.863281 C 258.570312 155.207031 247.988281 158.308594 247.988281 158.308594 Z M 238.695312 149.496094 " fill-opacity="1" fill-rule="nonzero"/><path fill="#ffffff" d="M 265.566406 178.238281 C 265.566406 178.238281 271.5 183.601562 271.941406 189.757812 C 271.941406 189.757812 277.609375 195.085938 280.351562 186.949219 L 284.335938 177.847656 C 284.335938 177.847656 281.601562 172.761719 272.828125 172.492188 Z M 265.566406 178.238281 " fill-opacity="1" fill-rule="nonzero"/><path fill="#ffffff" d="M 259.191406 178.328125 C 259.191406 178.328125 254.851562 183.683594 254.410156 189.835938 C 254.410156 189.835938 248.742188 195.167969 246 187.027344 L 240.15625 177.847656 C 240.15625 177.847656 243.511719 172.125 252.285156 171.855469 Z M 259.191406 178.328125 " fill-opacity="1" fill-rule="nonzero"/><path fill="#ffffff" d="M 285.222656 183.894531 C 285.222656 184.339844 285.398438 200.894531 269.550781 202.84375 C 269.550781 202.84375 260.164062 199.832031 254.5 203.375 C 254.5 203.375 238.296875 197.265625 239.003906 183.71875 L 238.738281 191.953125 C 236.703125 193.558594 233.53125 186.242188 237.824219 173.507812 C 230.414062 178.445312 229.375 196.375 234.3125 204.703125 C 234.3125 204.703125 239.269531 212.847656 247.503906 213.113281 C 247.503906 213.113281 252.460938 219.402344 262.113281 214.796875 C 262.113281 214.796875 270.082031 219.933594 276.988281 212.847656 C 276.988281 212.847656 287.171875 211.761719 290.535156 204.070312 C 290.535156 204.070312 297.914062 182.480469 287.40625 173.390625 C 287.40625 173.390625 292.128906 192.574219 285.664062 192.042969 Z M 285.222656 183.894531 " fill-opacity="1" fill-rule="nonzero"/><path fill="#ebe7e7" d="M 248.832031 215.0625 C 248.832031 215.0625 249.984375 221.082031 253.878906 222.027344 L 261.90625 225.214844 L 268.636719 223.917969 L 273.445312 220.996094 C 273.445312 220.996094 277.253906 218.839844 276.898438 214.355469 C 276.898438 214.355469 267.335938 217.894531 262.496094 214.589844 C 262.496094 214.589844 254.292969 217.660156 248.832031 215.0625 Z M 248.832031 215.0625 " fill-opacity="1" fill-rule="nonzero"/><path fill="#ffbc00" d="M 255.886719 203.140625 C 255.886719 203.140625 260.84375 207.035156 268.753906 203.257812 L 268.398438 207.035156 L 262.144531 209.632812 L 256.59375 208.214844 Z M 255.886719 203.140625 " fill-opacity="1" fill-rule="nonzero"/><path fill="#000000" d="M 278.320312 185.480469 C 278.320312 185.480469 278.40625 188.796875 276.613281 189.957031 C 274.820312 191.113281 271.832031 189.671875 271.832031 189.671875 C 271.832031 189.671875 271.746094 186.355469 273.539062 185.199219 C 275.328125 184.039062 278.320312 185.480469 278.320312 185.480469 Z M 278.320312 185.480469 " fill-opacity="1" fill-rule="nonzero"/><path fill="#000000" d="M 247.988281 185.480469 C 247.988281 185.480469 247.902344 188.796875 249.695312 189.957031 C 251.484375 191.113281 254.476562 189.671875 254.476562 189.671875 C 254.476562 189.671875 254.5625 186.355469 252.769531 185.199219 C 250.980469 184.039062 247.988281 185.480469 247.988281 185.480469 Z M 247.988281 185.480469 " fill-opacity="1" fill-rule="nonzero"/><path stroke-linecap="round" transform="matrix(1.416667, 0, 0, 1.416667, 211.254672, 136.437589)" fill="none" stroke-linejoin="round" d="M 24.197989 47.365747 C 24.197989 47.365747 22.532548 60.074387 36.156629 54.951225 L 36.156629 51.606556 " stroke="#000000" stroke-width="2" stroke-opacity="1" stroke-miterlimit="10"/><path stroke-linecap="round" transform="matrix(1.416667, 0, 0, 1.416667, 211.254672, 136.437589)" fill="none" stroke-linejoin="round" d="M 21.239349 28.491666 C 21.073908 28.825305 16.573908 37.657107 22.157548 44.740747 " stroke="#000000" stroke-width="2" stroke-opacity="1" stroke-miterlimit="10"/><path stroke-linecap="round" transform="matrix(1.416667, 0, 0, 1.416667, 211.254672, 136.437589)" fill="none" stroke-linejoin="round" d="M 22.15479 23.238908 C 17.489349 26.015563 10.038981 33.021997 16.907548 47.365747 " stroke="#000000" stroke-width="2" stroke-opacity="1" stroke-miterlimit="10"/><path stroke-linecap="round" transform="matrix(1.416667, 0, 0, 1.416667, 211.254672, 136.437589)" fill="none" stroke-linejoin="round" d="M 27.32207 48.992585 C 27.32207 48.992585 16.157548 49.742585 14.57207 55.825306 " stroke="#000000" stroke-width="2" stroke-opacity="1" stroke-miterlimit="10"/><path stroke-linecap="round" transform="matrix(1.416667, 0, 0, 1.416667, 211.254672, 136.437589)" fill="none" stroke-linejoin="round" d="M 28.907548 52.158026 C 28.656629 52.326225 18.572989 57.907107 20.323908 62.826225 " stroke="#000000" stroke-width="2" stroke-opacity="1" stroke-miterlimit="10"/><path stroke-linecap="round" transform="matrix(1.416667, 0, 0, 1.416667, 211.254672, 136.437589)" fill="none" stroke-linejoin="round" d="M 29.577585 59.153431 C 31.557364 61.202144 36.989349 65.531188 43.094129 59.283026 " stroke="#000000" stroke-width="2" stroke-opacity="1" stroke-miterlimit="10"/><path stroke-linecap="round" transform="matrix(1.416667, 0, 0, 1.416667, 211.254672, 136.437589)" fill="none" stroke-linejoin="round" d="M 17.489349 22.326224 C 9.561959 13.262805 14.414901 10.668136 17.266004 9.449386 C 18.209018 9.046813 19.292658 9.179165 20.130893 9.766482 L 25.929607 15.824386 C 25.929607 15.824386 35.254974 9.430085 46.069313 15.824386 L 51.868026 9.766482 C 52.709019 9.179165 53.792658 9.046813 54.732916 9.449386 C 57.586776 10.668136 62.439717 13.262805 54.50957 22.326224 " stroke="#000000" stroke-width="2" stroke-opacity="1" stroke-miterlimit="10"/><path stroke-linecap="round" transform="matrix(1.416667, 0, 0, 1.416667, 211.254672, 136.437589)" fill="none" stroke-linejoin="round" d="M 40.717291 47.740747 C 40.717291 47.740747 41.71821 50.616666 37.30093 51.366666 L 34.697989 51.366666 C 30.28071 50.616666 31.281629 47.740747 31.281629 47.740747 " stroke="#000000" stroke-width="2" stroke-opacity="1" stroke-miterlimit="10"/><path stroke-linecap="round" transform="matrix(1.416667, 0, 0, 1.416667, 211.254672, 136.437589)" fill="none" stroke-linejoin="round" d="M 47.80093 47.365747 C 47.80093 47.365747 49.469129 60.074387 35.842291 54.951225 L 35.842291 51.366666 " stroke="#000000" stroke-width="2" stroke-opacity="1" stroke-miterlimit="10"/><path stroke-linecap="round" transform="matrix(1.416667, 0, 0, 1.416667, 211.254672, 136.437589)" fill="none" stroke-linejoin="round" d="M 50.75957 28.491666 C 50.927769 28.825305 55.427769 37.657107 49.844129 44.740747 " stroke="#000000" stroke-width="2" stroke-opacity="1" stroke-miterlimit="10"/><path stroke-linecap="round" transform="matrix(1.416667, 0, 0, 1.416667, 211.254672, 136.437589)" fill="none" stroke-linejoin="round" d="M 49.882732 23.263724 C 54.550931 26.051408 61.943394 33.0606 55.094129 47.365747 " stroke="#000000" stroke-width="2" stroke-opacity="1" stroke-miterlimit="10"/><path stroke-linecap="round" transform="matrix(1.416667, 0, 0, 1.416667, 211.254672, 136.437589)" fill="none" stroke-linejoin="round" d="M 44.67685 48.992585 C 44.67685 48.992585 55.844129 49.742585 57.42685 55.825306 " stroke="#000000" stroke-width="2" stroke-opacity="1" stroke-miterlimit="10"/><path stroke-linecap="round" transform="matrix(1.416667, 0, 0, 1.416667, 211.254672, 136.437589)" fill="none" stroke-linejoin="round" d="M 43.094129 52.158026 C 43.342291 52.326225 53.42593 57.907107 51.677769 62.826225 " stroke="#000000" stroke-width="2" stroke-opacity="1" stroke-miterlimit="10"/><path stroke-linecap="round" transform="matrix(1.416667, 0, 0, 1.416667, 211.254672, 136.437589)" fill="none" stroke-linejoin="round" d="M 29.577585 24.107474 C 29.577585 24.107474 36.652952 20.773835 42.760489 24.523835 " stroke="#000000" stroke-width="2" stroke-opacity="1" stroke-miterlimit="10"/><path stroke-linecap="round" transform="matrix(1.416667, 0, 0, 1.416667, 211.254672, 136.437589)" fill="none" stroke-linejoin="round" d="M 31.521518 29.285783 C 31.521518 29.285783 36.50957 25.952144 40.816555 29.702144 " stroke="#000000" stroke-width="2" stroke-opacity="1" stroke-miterlimit="10"/></svg>