<svg xmlns="http://www.w3.org/2000/svg" xmlns:xlink="http://www.w3.org/1999/xlink" width="500" zoomAndPan="magnify" viewBox="0 0 375 374.999991" height="500" preserveAspectRatio="xMidYMid meet" version="1.0"><defs><g/><clipPath id="1e43876f5f"><path d="M 37 101.308594 L 330 101.308594 L 330 260 L 37 260 Z M 37 101.308594 " clip-rule="nonzero"/></clipPath><clipPath id="4978f65ece"><path d="M 80.453125 101.308594 L 80.453125 259.964844 C 80.917969 259.996094 81.382812 259.996094 81.847656 259.996094 L 284.4375 259.996094 L 284.4375 101.308594 L 80.453125 101.308594 M 296.398438 101.308594 L 284.4375 101.308594 L 284.4375 259.964844 L 284.703125 259.964844 C 304.039062 259.964844 321.011719 244.183594 322.410156 224.917969 L 328.953125 136.320312 C 330.382812 117.085938 315.730469 101.308594 296.398438 101.308594 M 70.15625 101.308594 C 50.820312 101.308594 36.171875 117.085938 37.601562 136.355469 L 44.144531 224.949219 C 45.539062 243.753906 61.75 259.234375 80.484375 259.964844 L 80.484375 101.308594 L 70.15625 101.308594 " clip-rule="nonzero"/></clipPath><clipPath id="089af2ab85"><path d="M 148.148438 309.824219 L 221.5 309.824219 L 221.5 329.644531 L 148.148438 329.644531 Z M 148.148438 309.824219 " clip-rule="nonzero"/></clipPath><clipPath id="dd879dce50"><path d="M 153.675781 309.824219 L 153.675781 329.628906 C 153.730469 329.632812 153.789062 329.632812 153.847656 329.632812 L 215.726562 329.632812 L 215.726562 309.824219 L 153.675781 309.824219 M 217.21875 309.824219 L 215.726562 309.824219 L 215.726562 329.628906 L 215.757812 329.628906 C 218.171875 329.628906 220.289062 327.660156 220.464844 325.253906 L 221.28125 314.195312 C 221.460938 311.796875 219.632812 309.824219 217.21875 309.824219 M 152.390625 309.824219 C 149.976562 309.824219 148.148438 311.796875 148.324219 314.199219 L 149.140625 325.257812 C 149.316406 327.605469 151.339844 329.539062 153.679688 329.628906 L 153.679688 309.824219 L 152.390625 309.824219 " clip-rule="nonzero"/></clipPath><clipPath id="ef90bef1a9"><path d="M 152.0625 312.789062 L 218 312.789062 L 218 327.074219 L 152.0625 327.074219 Z M 152.0625 312.789062 " clip-rule="nonzero"/></clipPath><clipPath id="11701151b0"><path d="M 156.050781 312.789062 L 156.050781 327.0625 C 156.089844 327.066406 156.132812 327.066406 156.175781 327.066406 L 213.859375 327.066406 L 213.859375 312.789062 L 156.050781 312.789062 M 214.933594 312.789062 L 213.859375 312.789062 L 213.859375 327.0625 L 213.882812 327.0625 C 215.621094 327.0625 217.152344 325.644531 217.277344 323.910156 L 217.863281 315.9375 C 217.992188 314.207031 216.675781 312.789062 214.933594 312.789062 M 155.121094 312.789062 C 153.382812 312.789062 152.0625 314.207031 152.191406 315.941406 L 152.78125 323.914062 C 152.90625 325.605469 154.367188 327 156.050781 327.0625 L 156.050781 312.789062 L 155.121094 312.789062 " clip-rule="nonzero"/></clipPath><clipPath id="18027be2e9"><path d="M 234.726562 309.824219 L 308 309.824219 L 308 329.644531 L 234.726562 329.644531 Z M 234.726562 309.824219 " clip-rule="nonzero"/></clipPath><clipPath id="0973bbf22b"><path d="M 240.253906 309.824219 L 240.253906 329.628906 C 240.3125 329.632812 240.371094 329.632812 240.429688 329.632812 L 302.304688 329.632812 L 302.304688 309.824219 L 240.253906 309.824219 M 303.796875 309.824219 L 302.304688 309.824219 L 302.304688 329.628906 L 302.339844 329.628906 C 304.75 329.628906 306.871094 327.660156 307.042969 325.253906 L 307.863281 314.195312 C 308.039062 311.796875 306.210938 309.824219 303.796875 309.824219 M 238.96875 309.824219 C 236.554688 309.824219 234.726562 311.796875 234.90625 314.199219 L 235.722656 325.257812 C 235.894531 327.605469 237.917969 329.539062 240.257812 329.628906 L 240.257812 309.824219 L 238.96875 309.824219 " clip-rule="nonzero"/></clipPath><clipPath id="40102cf83c"><path d="M 238.644531 312.789062 L 304.585938 312.789062 L 304.585938 327.074219 L 238.644531 327.074219 Z M 238.644531 312.789062 " clip-rule="nonzero"/></clipPath><clipPath id="55c3b8cd07"><path d="M 242.628906 312.789062 L 242.628906 327.0625 C 242.671875 327.066406 242.710938 327.066406 242.753906 327.066406 L 300.4375 327.066406 L 300.4375 312.789062 L 242.628906 312.789062 M 301.515625 312.789062 L 300.4375 312.789062 L 300.4375 327.0625 L 300.464844 327.0625 C 302.203125 327.0625 303.730469 325.644531 303.855469 323.910156 L 304.445312 315.9375 C 304.574219 314.207031 303.253906 312.789062 301.515625 312.789062 M 241.703125 312.789062 C 239.960938 312.789062 238.644531 314.207031 238.773438 315.941406 L 239.363281 323.914062 C 239.488281 325.605469 240.945312 327 242.632812 327.0625 L 242.632812 312.789062 L 241.703125 312.789062 " clip-rule="nonzero"/></clipPath><clipPath id="aae8ddc017"><path d="M 60.730469 309.824219 L 134 309.824219 L 134 329.644531 L 60.730469 329.644531 Z M 60.730469 309.824219 " clip-rule="nonzero"/></clipPath><clipPath id="344bae20e6"><path d="M 66.257812 309.824219 L 66.257812 329.628906 C 66.3125 329.632812 66.371094 329.632812 66.429688 329.632812 L 128.308594 329.632812 L 128.308594 309.824219 L 66.257812 309.824219 M 129.800781 309.824219 L 128.308594 309.824219 L 128.308594 329.628906 L 128.339844 329.628906 C 130.753906 329.628906 132.871094 327.660156 133.046875 325.253906 L 133.863281 314.195312 C 134.042969 311.796875 132.214844 309.824219 129.800781 309.824219 M 64.972656 309.824219 C 62.558594 309.824219 60.730469 311.796875 60.90625 314.199219 L 61.722656 325.257812 C 61.898438 327.605469 63.921875 329.539062 66.261719 329.628906 L 66.261719 309.824219 L 64.972656 309.824219 " clip-rule="nonzero"/></clipPath><clipPath id="1a4e107207"><path d="M 64.644531 312.789062 L 130.589844 312.789062 L 130.589844 327.074219 L 64.644531 327.074219 Z M 64.644531 312.789062 " clip-rule="nonzero"/></clipPath><clipPath id="ae1dc7f83d"><path d="M 68.632812 312.789062 L 68.632812 327.0625 C 68.671875 327.066406 68.714844 327.066406 68.757812 327.066406 L 126.441406 327.066406 L 126.441406 312.789062 L 68.632812 312.789062 M 127.519531 312.789062 L 126.441406 312.789062 L 126.441406 327.0625 L 126.464844 327.0625 C 128.207031 327.0625 129.734375 325.644531 129.859375 323.910156 L 130.445312 315.9375 C 130.574219 314.207031 129.257812 312.789062 127.519531 312.789062 M 67.703125 312.789062 C 65.964844 312.789062 64.644531 314.207031 64.773438 315.941406 L 65.363281 323.914062 C 65.488281 325.605469 66.949219 327 68.632812 327.0625 L 68.632812 312.789062 L 67.703125 312.789062 " clip-rule="nonzero"/></clipPath></defs><g clip-path="url(#1e43876f5f)"><g clip-path="url(#4978f65ece)"><path fill="#ffbc00" d="M 37.5 101.308594 L 329.167969 101.308594 L 329.167969 260.097656 L 37.5 260.097656 Z M 37.5 101.308594 " fill-opacity="1" fill-rule="nonzero"/></g></g><g clip-path="url(#089af2ab85)"><g clip-path="url(#dd879dce50)"><path fill="#ffffff" d="M 148.3125 309.824219 L 221.292969 309.824219 L 221.292969 329.644531 L 148.3125 329.644531 Z M 148.3125 309.824219 " fill-opacity="1" fill-rule="nonzero"/></g></g><g clip-path="url(#ef90bef1a9)"><g clip-path="url(#11701151b0)"><path fill="#ffbc00" d="M 152.183594 312.789062 L 217.886719 312.789062 L 217.886719 327.074219 L 152.183594 327.074219 Z M 152.183594 312.789062 " fill-opacity="1" fill-rule="nonzero"/></g></g><path stroke-linecap="butt" transform="matrix(0.000000000000000046, -0.744711, 0.75, 0.000000000000000046, 182.923308, 309.820789)" fill="none" stroke-linejoin="miter" d="M 0.000640188 2.49809 L 52.731888 2.49809 " stroke="#ffffff" stroke-width="5" stroke-opacity="1" stroke-miterlimit="4"/><path stroke-linecap="round" transform="matrix(0.000000000000000228, -3.723554, 3.75, 0.00000000000000023, 184.798308, 260.311037)" fill-opacity="1" fill="#ffffff" fill-rule="nonzero" stroke-linejoin="round" d="M -2.500315 -1.500382 L -0.499748 -0.000382017 L -2.500315 1.499618 Z M -2.500315 -1.500382 " stroke="#ffffff" stroke-width="1" stroke-opacity="1" stroke-miterlimit="4"/><g clip-path="url(#18027be2e9)"><g clip-path="url(#0973bbf22b)"><path fill="#ffffff" d="M 234.890625 309.824219 L 307.871094 309.824219 L 307.871094 329.644531 L 234.890625 329.644531 Z M 234.890625 309.824219 " fill-opacity="1" fill-rule="nonzero"/></g></g><g clip-path="url(#40102cf83c)"><g clip-path="url(#55c3b8cd07)"><path fill="#1bbdff" d="M 238.765625 312.789062 L 304.464844 312.789062 L 304.464844 327.074219 L 238.765625 327.074219 Z M 238.765625 312.789062 " fill-opacity="1" fill-rule="nonzero"/></g></g><path stroke-linecap="butt" transform="matrix(0.000000000000000046, -0.744711, 0.75, 0.000000000000000046, 269.503259, 309.820789)" fill="none" stroke-linejoin="miter" d="M 0.000640188 2.500863 L 52.731888 2.500863 " stroke="#ffffff" stroke-width="5" stroke-opacity="1" stroke-miterlimit="4"/><path stroke-linecap="round" transform="matrix(0.000000000000000228, -3.723554, 3.75, 0.00000000000000023, 271.378259, 260.311037)" fill-opacity="1" fill="#ffffff" fill-rule="nonzero" stroke-linejoin="round" d="M -2.500315 -1.499827 L -0.499748 0.000172685 L -2.500315 1.500173 Z M -2.500315 -1.499827 " stroke="#ffffff" stroke-width="1" stroke-opacity="1" stroke-miterlimit="4"/><g clip-path="url(#aae8ddc017)"><g clip-path="url(#344bae20e6)"><path fill="#ffffff" d="M 60.894531 309.824219 L 133.875 309.824219 L 133.875 329.644531 L 60.894531 329.644531 Z M 60.894531 309.824219 " fill-opacity="1" fill-rule="nonzero"/></g></g><g clip-path="url(#1a4e107207)"><g clip-path="url(#ae1dc7f83d)"><path fill="#1bbdff" d="M 64.765625 312.789062 L 130.46875 312.789062 L 130.46875 327.074219 L 64.765625 327.074219 Z M 64.765625 312.789062 " fill-opacity="1" fill-rule="nonzero"/></g></g><path stroke-linecap="butt" transform="matrix(0.000000000000000046, -0.744711, 0.75, 0.000000000000000046, 95.505394, 309.820789)" fill="none" stroke-linejoin="miter" d="M 0.000640188 2.498016 L 52.731888 2.498016 " stroke="#ffffff" stroke-width="5" stroke-opacity="1" stroke-miterlimit="4"/><path stroke-linecap="round" transform="matrix(0.000000000000000228, -3.723554, 3.75, 0.00000000000000023, 97.380387, 260.311037)" fill-opacity="1" fill="#ffffff" fill-rule="nonzero" stroke-linejoin="round" d="M -2.500315 -1.500395 L -0.499748 -0.000394841 L -2.500315 1.499605 Z M -2.500315 -1.500395 " stroke="#ffffff" stroke-width="1" stroke-opacity="1" stroke-miterlimit="4"/><g fill="#ffffff" fill-opacity="1"><g transform="translate(70.76603, 216.05559)"><g><path d="M 35.96875 -61.9375 L 60.96875 0 L 45.796875 0 L 41.21875 -12.390625 L 17.640625 -12.390625 L 13.0625 0 L -2.109375 0 L 22.90625 -61.9375 Z M 36.40625 -24.78125 L 29.5 -42.796875 L 29.359375 -42.796875 L 22.453125 -24.78125 Z M 36.40625 -24.78125 "/></g></g></g><g fill="#ffffff" fill-opacity="1"><g transform="translate(131.049551, 216.05559)"><g><path d="M 18.625 -61.9375 L 18.625 0 L 4.5 0 L 4.5 -61.9375 Z M 18.625 -61.9375 "/></g></g></g><g fill="#ffffff" fill-opacity="1"><g transform="translate(155.598379, 216.05559)"><g><path d="M 53.90625 -25.828125 C 55.5625 -25.828125 56.75 -26.375 57.46875 -27.46875 C 58.195312 -28.570312 58.5625 -30.476562 58.5625 -33.1875 C 58.5625 -39.039062 56.367188 -43.84375 51.984375 -47.59375 C 47.609375 -51.351562 42.117188 -53.234375 35.515625 -53.234375 C 29.160156 -53.234375 23.765625 -51.066406 19.328125 -46.734375 C 14.898438 -42.398438 12.6875 -37.15625 12.6875 -31 C 12.6875 -24.945312 14.910156 -19.851562 19.359375 -15.71875 C 23.816406 -11.59375 29.203125 -9.53125 35.515625 -9.53125 C 38.460938 -9.53125 41.097656 -9.957031 43.421875 -10.8125 C 45.753906 -11.664062 47.347656 -12.515625 48.203125 -13.359375 L 49.546875 -14.640625 L 58.265625 -8.859375 C 58.054688 -8.609375 57.773438 -8.253906 57.421875 -7.796875 C 57.078125 -7.347656 56.242188 -6.546875 54.921875 -5.390625 C 53.597656 -4.242188 52.132812 -3.234375 50.53125 -2.359375 C 48.925781 -1.484375 46.769531 -0.6875 44.0625 0.03125 C 41.363281 0.757812 38.515625 1.125 35.515625 1.125 C 29.410156 1.125 23.789062 -0.210938 18.65625 -2.890625 C 13.53125 -5.566406 9.425781 -9.367188 6.34375 -14.296875 C 3.269531 -19.234375 1.734375 -24.800781 1.734375 -31 C 1.734375 -37.207031 3.269531 -42.773438 6.34375 -47.703125 C 9.425781 -52.640625 13.53125 -56.429688 18.65625 -59.078125 C 23.789062 -61.734375 29.410156 -63.0625 35.515625 -63.0625 C 44.472656 -63.0625 52.039062 -60.257812 58.21875 -54.65625 C 64.40625 -49.050781 67.5 -41.894531 67.5 -33.1875 C 67.5 -27.726562 65.992188 -23.625 62.984375 -20.875 C 59.984375 -18.125 56.40625 -16.75 52.25 -16.75 C 48 -16.75 44.519531 -17.898438 41.8125 -20.203125 L 41.140625 -19.21875 C 38.691406 -16.519531 35.539062 -15.171875 31.6875 -15.171875 C 27.582031 -15.171875 24.191406 -16.617188 21.515625 -19.515625 C 18.835938 -22.421875 17.5 -26 17.5 -30.25 C 17.5 -34.5625 18.835938 -38.179688 21.515625 -41.109375 C 24.191406 -44.035156 27.582031 -45.5 31.6875 -45.5 C 35.488281 -45.5 38.640625 -44.296875 41.140625 -41.890625 L 41.140625 -44.671875 L 50.078125 -44.671875 L 50.078125 -28.984375 C 50.078125 -28.734375 50.125 -28.429688 50.21875 -28.078125 C 50.320312 -27.722656 50.695312 -27.257812 51.34375 -26.6875 C 52 -26.113281 52.851562 -25.828125 53.90625 -25.828125 Z M 30.890625 -34.796875 C 29.710938 -33.617188 29.125 -32.15625 29.125 -30.40625 C 29.125 -28.65625 29.6875 -27.21875 30.8125 -26.09375 C 31.945312 -24.96875 33.414062 -24.40625 35.21875 -24.40625 C 36.914062 -24.40625 38.328125 -24.976562 39.453125 -26.125 C 40.578125 -27.28125 41.140625 -28.707031 41.140625 -30.40625 C 41.140625 -32.15625 40.5625 -33.617188 39.40625 -34.796875 C 38.257812 -35.972656 36.863281 -36.5625 35.21875 -36.5625 C 33.507812 -36.5625 32.066406 -35.972656 30.890625 -34.796875 Z M 30.890625 -34.796875 "/></g></g></g><g fill="#ffffff" fill-opacity="1"><g transform="translate(226.166871, 216.05559)"><g><path d="M 4.5 0 L 4.5 -38.515625 L 17.796875 -38.515625 L 17.796875 -32.953125 L 17.9375 -32.953125 C 18.039062 -33.160156 18.203125 -33.410156 18.421875 -33.703125 C 18.648438 -34.003906 19.140625 -34.53125 19.890625 -35.28125 C 20.640625 -36.03125 21.441406 -36.707031 22.296875 -37.3125 C 23.148438 -37.914062 24.25 -38.453125 25.59375 -38.921875 C 26.945312 -39.398438 28.328125 -39.640625 29.734375 -39.640625 C 31.179688 -39.640625 32.601562 -39.4375 34 -39.03125 C 35.40625 -38.632812 36.4375 -38.238281 37.09375 -37.84375 L 38.140625 -37.234375 L 32.578125 -25.984375 C 30.929688 -27.378906 28.628906 -28.078125 25.671875 -28.078125 C 24.078125 -28.078125 22.703125 -27.726562 21.546875 -27.03125 C 20.398438 -26.332031 19.585938 -25.476562 19.109375 -24.46875 C 18.628906 -23.46875 18.289062 -22.617188 18.09375 -21.921875 C 17.894531 -21.222656 17.796875 -20.671875 17.796875 -20.265625 L 17.796875 0 Z M 4.5 0 "/></g></g></g><path fill="#ffbc00" d="M 235.746094 129.375 C 235.746094 129.375 223.972656 128.285156 228.953125 142.371094 C 228.953125 142.371094 232.484375 151.058594 235.746094 152.820312 C 235.746094 152.820312 222.476562 161.890625 230.449219 179.125 L 231.363281 184.582031 C 231.363281 184.582031 236.675781 192.464844 243.40625 192.640625 L 245.886719 194.941406 C 245.886719 194.941406 247.566406 199.988281 248.894531 200.609375 C 250.222656 201.230469 256.597656 204.898438 256.597656 204.898438 L 262.773438 204.507812 L 270.5 200.875 C 270.5 200.875 273.953125 197.953125 273.953125 194.234375 L 275.371094 192.285156 C 275.371094 192.285156 284.136719 190.5625 287.589844 183.949219 L 290.296875 173.871094 L 290.296875 167.457031 L 289.761719 163.363281 L 286.4375 155.097656 L 284.222656 152.621094 C 284.222656 152.621094 286.082031 149.46875 287.058594 147.945312 C 288.03125 146.421875 290.296875 141.222656 290.296875 141.222656 L 292.28125 136.503906 L 290.296875 131.546875 L 284.636719 129.355469 L 281.300781 130.574219 L 273.648438 138.660156 C 273.648438 138.660156 265.726562 134.402344 260.675781 134.746094 C 255.625 135.089844 245.042969 138.1875 245.042969 138.1875 Z M 235.746094 129.375 " fill-opacity="1" fill-rule="nonzero"/><path fill="#ffffff" d="M 262.621094 158.117188 C 262.621094 158.117188 268.550781 163.480469 268.996094 169.636719 C 268.996094 169.636719 274.660156 174.96875 277.40625 166.828125 L 281.390625 157.726562 C 281.390625 157.726562 278.65625 152.644531 269.878906 152.375 Z M 262.621094 158.117188 " fill-opacity="1" fill-rule="nonzero"/><path fill="#ffffff" d="M 256.246094 158.207031 C 256.246094 158.207031 251.90625 163.5625 251.464844 169.714844 C 251.464844 169.714844 245.796875 175.046875 243.050781 166.90625 L 237.207031 157.726562 C 237.207031 157.726562 240.566406 152.003906 249.339844 151.734375 Z M 256.246094 158.207031 " fill-opacity="1" fill-rule="nonzero"/><path fill="#ffffff" d="M 282.277344 163.777344 C 282.277344 164.21875 282.453125 180.777344 266.605469 182.722656 C 266.605469 182.722656 257.21875 179.714844 251.550781 183.253906 C 251.550781 183.253906 235.347656 177.144531 236.058594 163.597656 L 235.792969 171.832031 C 233.757812 173.4375 230.585938 166.121094 234.878906 153.386719 C 227.46875 158.324219 226.429688 176.253906 231.363281 184.582031 C 231.363281 184.582031 236.324219 192.730469 244.558594 192.996094 C 244.558594 192.996094 249.515625 199.28125 259.167969 194.675781 C 259.167969 194.675781 267.136719 199.8125 274.042969 192.730469 C 274.042969 192.730469 284.222656 191.640625 287.589844 183.949219 C 287.589844 183.949219 294.96875 162.359375 284.460938 153.269531 C 284.460938 153.269531 289.183594 172.453125 282.71875 171.921875 Z M 282.277344 163.777344 " fill-opacity="1" fill-rule="nonzero"/><path fill="#ebe7e7" d="M 245.886719 194.941406 C 245.886719 194.941406 247.035156 200.964844 250.933594 201.90625 L 258.960938 205.09375 L 265.691406 203.796875 L 270.5 200.875 C 270.5 200.875 274.308594 198.71875 273.953125 194.234375 C 273.953125 194.234375 264.390625 197.777344 259.550781 194.46875 C 259.550781 194.46875 251.347656 197.539062 245.886719 194.941406 Z M 245.886719 194.941406 " fill-opacity="1" fill-rule="nonzero"/><path fill="#ffbc00" d="M 252.941406 183.019531 C 252.941406 183.019531 257.898438 186.914062 265.808594 183.136719 L 265.453125 186.914062 L 259.195312 189.511719 L 253.648438 188.09375 Z M 252.941406 183.019531 " fill-opacity="1" fill-rule="nonzero"/><path fill="#000000" d="M 275.371094 165.359375 C 275.371094 165.359375 275.457031 168.675781 273.667969 169.835938 C 271.875 170.992188 268.886719 169.554688 268.886719 169.554688 C 268.886719 169.554688 268.800781 166.234375 270.589844 165.078125 C 272.382812 163.917969 275.371094 165.359375 275.371094 165.359375 Z M 275.371094 165.359375 " fill-opacity="1" fill-rule="nonzero"/><path fill="#000000" d="M 245.042969 165.359375 C 245.042969 165.359375 244.957031 168.675781 246.75 169.835938 C 248.539062 170.992188 251.53125 169.554688 251.53125 169.554688 C 251.53125 169.554688 251.617188 166.234375 249.824219 165.078125 C 248.035156 163.917969 245.042969 165.359375 245.042969 165.359375 Z M 245.042969 165.359375 " fill-opacity="1" fill-rule="nonzero"/><path stroke-linecap="round" transform="matrix(1.416667, 0, 0, 1.416667, 208.308257, 116.317111)" fill="none" stroke-linejoin="round" d="M 24.198767 47.365312 C 24.198767 47.365312 22.530569 60.073952 36.157407 54.95079 L 36.157407 51.606121 " stroke="#000000" stroke-width="2" stroke-opacity="1" stroke-miterlimit="10"/><path stroke-linecap="round" transform="matrix(1.416667, 0, 0, 1.416667, 208.308257, 116.317111)" fill="none" stroke-linejoin="round" d="M 21.240127 28.491231 C 21.071929 28.824871 16.571929 37.65943 22.155569 44.740312 " stroke="#000000" stroke-width="2" stroke-opacity="1" stroke-miterlimit="10"/><path stroke-linecap="round" transform="matrix(1.416667, 0, 0, 1.416667, 208.308257, 116.317111)" fill="none" stroke-linejoin="round" d="M 22.155569 23.241231 C 17.490127 26.015128 10.037002 33.021562 16.905569 47.365312 " stroke="#000000" stroke-width="2" stroke-opacity="1" stroke-miterlimit="10"/><path stroke-linecap="round" transform="matrix(1.416667, 0, 0, 1.416667, 208.308257, 116.317111)" fill="none" stroke-linejoin="round" d="M 27.322848 48.99215 C 27.322848 48.99215 16.155569 49.74215 14.572848 55.824871 " stroke="#000000" stroke-width="2" stroke-opacity="1" stroke-miterlimit="10"/><path stroke-linecap="round" transform="matrix(1.416667, 0, 0, 1.416667, 208.308257, 116.317111)" fill="none" stroke-linejoin="round" d="M 28.905569 52.157592 C 28.657407 52.32579 18.573767 57.90943 20.321929 62.82579 " stroke="#000000" stroke-width="2" stroke-opacity="1" stroke-miterlimit="10"/><path stroke-linecap="round" transform="matrix(1.416667, 0, 0, 1.416667, 208.308257, 116.317111)" fill="none" stroke-linejoin="round" d="M 29.575606 59.152996 C 31.555385 61.201709 36.990128 65.530753 43.094907 59.282592 " stroke="#000000" stroke-width="2" stroke-opacity="1" stroke-miterlimit="10"/><path stroke-linecap="round" transform="matrix(1.416667, 0, 0, 1.416667, 208.308257, 116.317111)" fill="none" stroke-linejoin="round" d="M 17.490127 22.32579 C 9.562738 13.265128 14.412922 10.667701 17.266782 9.448951 C 18.207039 9.046378 19.290679 9.178731 20.131672 9.766047 L 25.930385 15.823951 C 25.930385 15.823951 35.252995 9.42965 46.070091 15.823951 L 51.868804 9.766047 C 52.70704 9.178731 53.790679 9.046378 54.733694 9.448951 C 57.584797 10.667701 62.437738 13.265128 54.510348 22.32579 " stroke="#000000" stroke-width="2" stroke-opacity="1" stroke-miterlimit="10"/><path stroke-linecap="round" transform="matrix(1.416667, 0, 0, 1.416667, 208.308257, 116.317111)" fill="none" stroke-linejoin="round" d="M 40.718069 47.740312 C 40.718069 47.740312 41.718988 50.616231 37.301709 51.366231 L 34.698767 51.366231 C 30.281488 50.616231 31.282407 47.740312 31.282407 47.740312 " stroke="#000000" stroke-width="2" stroke-opacity="1" stroke-miterlimit="10"/><path stroke-linecap="round" transform="matrix(1.416667, 0, 0, 1.416667, 208.308257, 116.317111)" fill="none" stroke-linejoin="round" d="M 47.801709 47.365312 C 47.801709 47.365312 49.469907 60.073952 35.843069 54.95079 L 35.843069 51.366231 " stroke="#000000" stroke-width="2" stroke-opacity="1" stroke-miterlimit="10"/><path stroke-linecap="round" transform="matrix(1.416667, 0, 0, 1.416667, 208.308257, 116.317111)" fill="none" stroke-linejoin="round" d="M 50.760348 28.491231 C 50.92579 28.824871 55.42579 37.65943 49.84215 44.740312 " stroke="#000000" stroke-width="2" stroke-opacity="1" stroke-miterlimit="10"/><path stroke-linecap="round" transform="matrix(1.416667, 0, 0, 1.416667, 208.308257, 116.317111)" fill="none" stroke-linejoin="round" d="M 49.88351 23.26329 C 54.551709 26.053731 61.944172 33.060165 55.094907 47.365312 " stroke="#000000" stroke-width="2" stroke-opacity="1" stroke-miterlimit="10"/><path stroke-linecap="round" transform="matrix(1.416667, 0, 0, 1.416667, 208.308257, 116.317111)" fill="none" stroke-linejoin="round" d="M 44.677628 48.99215 C 44.677628 48.99215 55.844907 49.74215 57.427628 55.824871 " stroke="#000000" stroke-width="2" stroke-opacity="1" stroke-miterlimit="10"/><path stroke-linecap="round" transform="matrix(1.416667, 0, 0, 1.416667, 208.308257, 116.317111)" fill="none" stroke-linejoin="round" d="M 43.094907 52.157592 C 43.343069 52.32579 53.426709 57.90943 51.67579 62.82579 " stroke="#000000" stroke-width="2" stroke-opacity="1" stroke-miterlimit="10"/><path stroke-linecap="round" transform="matrix(1.416667, 0, 0, 1.416667, 208.308257, 116.317111)" fill="none" stroke-linejoin="round" d="M 29.575606 24.10704 C 29.575606 24.10704 36.653731 20.7734 42.761267 24.5234 " stroke="#000000" stroke-width="2" stroke-opacity="1" stroke-miterlimit="10"/><path stroke-linecap="round" transform="matrix(1.416667, 0, 0, 1.416667, 208.308257, 116.317111)" fill="none" stroke-linejoin="round" d="M 31.519539 29.285349 C 31.519539 29.285349 36.510348 25.954466 40.814576 29.704466 " stroke="#000000" stroke-width="2" stroke-opacity="1" stroke-miterlimit="10"/></svg>