<?xml version="1.0" standalone="no"?>
<!DOCTYPE svg PUBLIC "-//W3C//DTD SVG 20010904//EN"
 "http://www.w3.org/TR/2001/REC-SVG-20010904/DTD/svg10.dtd">
<svg version="1.0" xmlns="http://www.w3.org/2000/svg"
 width="512.000000pt" height="512.000000pt" viewBox="0 0 512.000000 512.000000"
 preserveAspectRatio="xMidYMid meet">

<g transform="translate(0.000000,512.000000) scale(0.100000,-0.100000)"
fill="#000000" stroke="none">
<path d="M0 4878 c1 -239 1 -243 23 -259 33 -24 87 -32 87 -14 0 8 5 15 11 15
6 0 8 7 5 16 -3 8 -2 12 4 9 20 -12 9 36 -26 125 -20 49 -34 95 -32 102 6 16
60 -40 117 -120 13 -19 29 -31 37 -28 7 3 16 1 19 -4 3 -5 12 -7 21 -3 9 3 14
0 12 -7 -2 -7 3 -15 10 -17 7 -3 12 -1 11 4 -3 19 2 23 21 13 15 -8 21 -6 30
10 6 11 16 20 23 20 7 0 13 10 14 23 5 77 23 220 28 225 12 13 24 -18 39 -103
17 -93 35 -150 44 -140 3 2 11 0 19 -6 10 -9 13 -8 13 0 0 8 8 10 20 6 15 -5
20 -2 20 11 0 13 3 14 14 5 11 -9 23 4 62 74 26 47 51 85 56 85 4 0 8 6 8 13
0 6 7 20 14 29 12 16 13 14 14 -15 1 -17 -3 -48 -8 -67 -5 -19 -12 -53 -16
-75 -3 -22 -8 -44 -11 -48 -3 -4 1 -18 9 -30 8 -12 13 -32 12 -44 -1 -25 9
-28 76 -24 27 1 31 -1 20 -8 -8 -6 -10 -11 -5 -11 6 0 3 -5 -5 -10 -9 -6 -10
-10 -3 -10 6 0 18 6 25 13 7 6 27 19 43 27 17 8 45 25 64 38 19 12 42 22 52
22 9 0 19 5 21 10 2 6 13 12 26 13 12 0 22 5 22 9 0 4 7 8 15 8 16 0 6 -13
-97 -122 -32 -34 -58 -66 -58 -71 0 -5 -8 -15 -17 -22 -15 -11 -15 -13 4 -24
12 -6 32 -12 44 -14 13 -2 25 -10 27 -17 3 -9 -1 -11 -14 -7 -16 6 -15 4 3
-12 12 -10 19 -22 15 -26 -6 -7 83 0 143 11 81 15 223 28 218 21 -6 -10 -72
-39 -168 -74 -38 -14 -80 -32 -92 -40 -12 -8 -23 -14 -25 -13 -9 4 -37 -14
-32 -21 3 -5 -1 -9 -8 -9 -9 0 -9 -3 2 -10 13 -8 12 -10 -2 -10 -10 0 -18 -4
-18 -10 0 -5 8 -10 18 -10 10 0 26 -6 37 -13 24 -17 171 -57 208 -57 14 0 29
-4 32 -10 3 -5 17 -10 30 -10 13 0 27 -5 31 -12 5 -8 2 -9 -9 -5 -10 3 -17 3
-17 -1 0 -11 -152 -13 -227 -4 -35 5 -63 5 -63 0 0 -4 -9 -8 -21 -8 -11 0 -17
-4 -14 -10 6 -10 -7 -14 -34 -10 -22 3 -6 -68 21 -90 13 -11 51 -38 86 -61 34
-23 62 -45 62 -50 0 -5 6 -9 13 -9 7 0 20 -9 30 -21 17 -20 17 -20 -20 -13
-21 3 -71 21 -111 40 -40 19 -79 34 -87 34 -8 0 -15 5 -15 10 0 6 -7 10 -15
10 -8 0 -15 -5 -15 -12 0 -6 -3 -8 -7 -5 -3 4 -12 2 -20 -4 -9 -9 -13 -8 -13
0 0 6 -7 11 -15 11 -8 0 -15 -7 -15 -15 0 -8 -9 -22 -20 -33 -19 -18 -19 -19
31 -101 27 -46 60 -102 73 -126 42 -74 1 -48 -111 71 -73 78 -105 105 -111 96
-5 -7 -16 -10 -24 -7 -11 5 -16 1 -15 -12 2 -14 -4 -17 -22 -15 -23 4 -24 2
-17 -40 14 -99 19 -211 8 -205 -9 6 -47 99 -66 159 -4 13 -13 16 -40 11 -27
-4 -36 -2 -36 8 -1 37 -18 -22 -25 -85 -4 -38 -12 -80 -18 -93 -11 -24 -11
-24 -19 -4 -4 12 -10 52 -14 89 -8 92 -8 94 -39 82 -20 -7 -25 -6 -25 5 0 22
-18 18 -25 -6 -6 -19 -8 -19 -20 -3 -11 16 -14 15 -30 -17 -10 -19 -31 -54
-48 -77 -43 -64 -54 -42 -27 54 24 84 32 134 21 132 -21 -2 -32 4 -28 16 6 16
-9 15 -55 -3 -23 -9 -28 -8 -28 4 0 23 -11 18 -60 -25 -25 -22 -48 -40 -52
-40 -5 0 -8 -322 -8 -715 l0 -715 58 3 c31 1 62 6 67 9 6 4 62 6 123 4 62 -1
115 1 118 6 3 4 12 8 20 8 20 0 18 -27 -3 -39 -15 -8 -11 -10 19 -11 20 0 40
5 43 10 4 6 12 4 21 -5 10 -9 34 -15 63 -15 26 0 51 -4 57 -10 5 -5 23 -11 39
-12 17 -1 32 -6 35 -10 3 -4 23 -8 45 -9 22 -1 45 -5 50 -8 15 -9 75 -8 75 1
0 5 5 8 11 8 5 0 8 -4 5 -9 -6 -9 86 -23 151 -22 36 0 42 -3 45 -22 2 -12 9
-21 16 -19 7 1 20 -4 28 -13 10 -9 24 -13 40 -9 13 3 24 2 24 -3 0 -5 10 -10
22 -10 13 -1 27 -8 33 -15 5 -7 17 -14 25 -16 8 -2 19 -10 23 -18 4 -8 15 -14
23 -14 8 0 24 -9 36 -20 12 -11 28 -20 35 -20 8 0 11 -5 8 -10 -3 -6 2 -13 12
-17 10 -4 27 -15 37 -25 11 -10 23 -18 27 -18 4 0 10 -8 12 -18 4 -15 5 -15 6
1 1 24 26 16 26 -8 0 -19 49 -40 68 -28 6 4 7 1 3 -6 -5 -7 0 -18 10 -26 11
-8 15 -15 9 -15 -5 0 1 -7 13 -16 12 -8 27 -12 32 -9 6 3 10 -1 10 -10 0 -8
11 -21 25 -27 14 -6 25 -15 25 -19 0 -4 9 -6 19 -4 15 3 18 -1 14 -12 -4 -11
-2 -14 5 -9 11 6 21 -2 45 -37 7 -10 22 -19 34 -20 12 0 20 -4 17 -8 -2 -4 16
-19 39 -33 42 -24 64 -41 146 -113 20 -18 41 -33 46 -33 6 0 37 -25 69 -55 33
-30 64 -55 68 -55 5 0 6 -5 3 -10 -3 -6 -2 -10 3 -10 5 0 41 -31 78 -69 73
-73 125 -131 117 -131 -2 0 5 -12 16 -26 23 -29 19 -49 -7 -35 -9 5 -38 31
-63 58 -68 70 -131 123 -139 118 -19 -12 -40 9 -41 39 -1 24 -3 26 -6 8 -5
-23 -5 -23 -39 10 -18 18 -34 39 -34 46 0 6 -7 12 -16 12 -10 0 -37 17 -63 37
-25 21 -53 36 -63 35 -13 -2 -16 1 -11 13 6 17 -39 63 -62 65 -5 0 -26 14 -45
30 -35 30 -98 43 -85 18 4 -7 -2 -3 -13 9 -11 12 -22 20 -24 17 -3 -2 -17 0
-31 5 -14 5 -27 7 -31 4 -9 -9 46 -62 60 -56 7 2 17 -5 24 -16 9 -18 8 -21 -8
-21 -10 0 -22 4 -28 9 -17 16 -72 23 -80 10 -4 -8 -3 -9 4 -5 7 4 12 2 12 -3
0 -19 -54 -8 -79 16 -13 13 -30 23 -37 23 -18 0 -32 29 -27 51 4 15 0 19 -20
19 -14 0 -29 5 -32 10 -3 6 -17 10 -31 10 -13 0 -24 4 -24 8 0 5 -19 15 -42
22 -24 7 -47 17 -52 22 -6 4 -20 8 -33 8 -13 0 -23 6 -23 14 0 22 -19 29 -38
15 -9 -7 -14 -9 -10 -5 4 5 -1 21 -12 36 -17 24 -27 28 -65 28 -34 -1 -45 -5
-41 -15 3 -8 -2 -13 -12 -13 -23 0 -48 17 -39 27 5 4 12 1 16 -6 5 -8 11 -9
15 -3 3 6 -15 17 -41 26 -53 18 -66 20 -40 5 26 -15 21 -32 -5 -18 -21 11 -22
11 -10 -4 8 -9 11 -21 7 -27 -5 -9 15 -15 38 -11 5 1 6 -3 3 -8 -7 -11 22 -23
36 -14 7 3 8 1 4 -5 -4 -7 -2 -12 3 -12 6 0 11 -7 11 -15 0 -21 -22 -19 -49 6
-27 25 -92 42 -105 29 -17 -17 -24 -11 -19 13 3 12 2 19 -2 15 -4 -4 -16 -3
-27 3 -25 14 -81 2 -74 -16 2 -7 -2 -16 -11 -19 -11 -4 -14 -2 -9 9 3 8 1 15
-4 15 -5 0 -12 9 -15 20 -4 11 -16 21 -28 21 -17 1 -18 2 -4 6 16 4 25 23 10
23 -16 0 -30 -16 -36 -38 -4 -19 -2 -23 16 -22 36 3 43 0 27 -10 -13 -9 -13
-12 4 -25 21 -16 15 -45 -10 -45 -22 0 -12 -23 14 -30 20 -5 53 -31 80 -64 11
-14 9 -16 -18 -16 -16 0 -30 4 -30 10 0 5 -4 9 -9 7 -5 -1 -23 8 -40 21 -26
19 -30 27 -24 52 6 33 -12 64 -31 53 -6 -4 -5 1 3 10 8 10 12 18 10 20 -52 30
-55 30 -38 11 8 -10 14 -27 11 -37 -3 -14 -10 -17 -32 -12 -25 6 -27 4 -22
-20 4 -21 8 -24 26 -19 11 4 24 11 27 16 4 7 9 6 13 0 9 -15 -4 -62 -16 -62
-6 0 -8 -6 -5 -14 7 -19 -19 -28 -32 -12 -14 16 -85 38 -103 31 -24 -9 -93 10
-93 25 0 8 -8 14 -18 14 -9 -1 -17 4 -17 12 0 8 -4 14 -9 14 -13 0 -20 39 -8
43 18 6 -18 37 -41 37 -29 0 -53 -11 -46 -21 3 -5 1 -9 -4 -9 -11 0 -22 24
-22 46 0 17 40 16 52 -1 5 -6 8 -5 8 2 0 17 -38 36 -61 30 -10 -3 -19 -2 -19
2 0 15 -45 4 -48 -12 -4 -21 -11 -21 -36 -2 -11 8 -28 15 -37 15 -10 0 -21 5
-25 11 -10 16 17 29 38 18 12 -6 18 -6 18 1 0 5 0 13 0 18 0 7 -4 8 -35 11
-15 1 -22 31 -7 31 5 0 17 6 28 14 17 13 14 14 -33 13 l-53 -2 0 -177 0 -178
38 4 c20 2 45 7 55 11 18 7 35 0 25 -10 -5 -5 -46 -11 -100 -14 -17 -1 -18
-48 -18 -841 l0 -840 615 0 c581 0 614 1 608 18 -6 16 -5 16 14 -1 24 -21 53
-22 53 -2 0 8 5 15 10 15 6 0 10 -7 10 -15 0 -13 59 -15 474 -15 412 0 475 2
480 15 3 8 10 15 15 15 6 0 8 -7 5 -15 -5 -13 102 -15 933 -15 663 0 942 3
950 11 8 8 13 8 17 0 5 -8 148 -11 472 -11 l464 0 0 2560 0 2560 -2560 0
-2560 0 0 -242z m2864 -109 c-3 -5 -10 -7 -15 -3 -5 3 -7 10 -3 15 3 5 10 7
15 3 5 -3 7 -10 3 -15z m-515 -213 c0 -76 5 -119 19 -161 14 -40 17 -66 12
-85 -7 -24 -5 -29 13 -34 20 -5 20 -5 -4 -25 -13 -11 -18 -20 -11 -21 6 0 12
-5 12 -11 0 -5 -6 -7 -12 -3 -7 4 -4 -2 6 -14 25 -29 32 -28 67 7 19 20 27 36
23 48 -4 12 -3 14 3 6 14 -19 56 -4 50 18 -5 18 7 23 50 22 7 -1 10 3 7 8 -3
5 0 9 5 9 6 0 10 6 9 13 -3 13 11 13 52 1 22 -7 24 -6 12 9 -17 20 -6 43 13
27 10 -8 23 -5 53 12 41 23 85 54 106 74 10 9 52 24 81 29 15 2 87 31 119 47
13 7 26 6 42 -3 18 -9 38 -10 80 -2 45 8 68 7 120 -7 35 -10 67 -14 69 -10 7
11 51 -2 104 -31 65 -36 74 -42 101 -66 13 -13 27 -23 32 -23 4 0 22 -9 39
-19 l31 -19 -45 -20 c-52 -23 -65 -38 -38 -47 28 -9 73 5 94 28 9 11 17 17 17
13 0 -4 10 0 22 8 12 9 43 16 68 16 25 0 67 7 95 15 44 14 50 14 58 0 5 -9 22
-15 42 -15 19 0 35 -4 35 -8 0 -12 -39 -52 -51 -52 -7 0 -9 -10 -5 -25 6 -23
4 -24 -18 -15 -14 5 -26 5 -28 1 -2 -4 -18 -3 -37 3 -31 11 -32 13 -18 28 9 8
13 18 10 21 -3 3 -12 -1 -20 -9 -8 -8 -18 -12 -23 -9 -5 3 -11 -4 -15 -15 -3
-11 -11 -20 -16 -20 -6 0 -5 8 1 20 9 16 7 24 -5 36 -8 8 -15 13 -15 9 0 -3
-9 -1 -19 5 -15 7 -22 7 -28 -3 -4 -8 -19 -20 -33 -27 -19 -10 -21 -15 -10
-18 8 -3 28 -19 44 -36 16 -17 35 -30 42 -28 8 2 18 -8 24 -22 5 -13 18 -27
30 -31 11 -3 18 -11 15 -16 -4 -5 1 -9 9 -9 8 0 17 -8 20 -17 9 -27 87 -109
124 -129 38 -22 40 -30 10 -38 -22 -5 -21 -7 11 -24 18 -10 33 -22 33 -27 0
-6 19 -24 42 -40 24 -17 41 -35 39 -42 -2 -6 10 -19 26 -28 17 -8 31 -21 31
-27 0 -6 8 -20 18 -31 13 -15 14 -21 4 -24 -14 -5 25 -53 45 -53 6 0 9 -8 6
-19 -3 -13 2 -23 16 -30 12 -7 21 -18 21 -25 0 -7 11 -25 25 -40 14 -15 23
-32 20 -37 -4 -5 -2 -9 3 -9 5 0 12 -9 15 -20 3 -11 19 -28 36 -37 38 -22 42
-47 6 -41 -17 4 -29 0 -35 -11 -8 -13 -9 -14 -10 -1 0 8 -12 26 -25 39 -14 13
-25 33 -25 46 0 14 -15 36 -37 56 -21 18 -40 39 -44 47 -4 12 -79 46 -79 36 0
-3 12 -23 27 -47 15 -23 33 -54 40 -69 11 -26 10 -28 -13 -34 -30 -8 -30 -13
1 -74 29 -57 31 -67 9 -49 -14 12 -15 6 -10 -52 3 -35 8 -77 12 -94 5 -25 4
-28 -7 -17 -19 17 -31 15 -25 -5 17 -62 18 -86 3 -80 -10 4 -18 -2 -22 -16
-12 -36 -12 -41 2 -69 17 -36 16 -40 -5 -34 -15 5 -17 1 -14 -34 2 -22 1 -52
-2 -65 -6 -22 -9 -24 -27 -14 -27 14 -30 10 -31 -42 0 -55 -4 -62 -29 -49 -18
10 -24 4 -20 -22 0 -4 -8 -10 -19 -13 -11 -4 -20 -10 -20 -14 0 -4 -10 -7 -22
-7 -18 1 -23 -4 -22 -21 1 -28 0 -28 -29 1 -26 26 -77 26 -77 -1 0 -9 -5 -11
-12 -6 -7 4 -29 8 -48 9 -19 0 -55 7 -80 14 -25 7 -56 14 -69 16 -14 1 -34 7
-45 13 -12 6 -41 15 -65 21 -23 6 -41 13 -39 15 8 8 147 -8 142 -16 -3 -5 0
-9 5 -9 6 0 11 6 12 13 0 10 2 10 6 0 2 -7 9 -13 14 -13 6 0 7 5 4 10 -4 6 10
10 37 9 59 -2 127 10 158 29 102 62 101 61 91 125 0 4 -16 7 -33 8 -32 0 -32
1 -8 10 14 6 41 28 61 50 31 34 37 50 47 117 13 97 13 101 -4 196 -16 92 -16
86 -6 85 18 -3 21 3 11 29 -14 33 -18 212 -5 205 5 -4 7 12 3 36 l-5 42 46
-26 47 -27 -45 44 c-25 24 -69 63 -98 87 -29 24 -63 58 -74 74 l-21 30 44 -26
c57 -34 85 -22 39 16 -17 15 -45 34 -63 42 -42 21 -59 35 -80 67 -16 26 -25
64 -9 43 15 -20 72 -55 91 -55 11 0 22 -6 24 -12 4 -10 6 -10 6 0 1 8 -15 30
-34 49 -19 19 -35 38 -35 42 0 4 -22 29 -49 55 -33 33 -55 47 -66 43 -10 -5
-18 1 -24 16 -5 12 -22 29 -37 36 -16 8 -43 20 -59 29 -17 8 -40 12 -50 10
-11 -2 -24 2 -30 9 -5 7 -21 14 -35 16 -23 4 -44 13 -155 63 -22 10 -44 17
-49 15 -4 -1 -13 2 -20 7 -6 4 -29 10 -51 11 -44 3 -95 26 -95 42 0 6 4 8 8 5
5 -3 19 5 33 18 l24 23 46 -24 c26 -13 52 -23 57 -23 6 0 23 -5 39 -12 15 -7
33 -12 38 -13 6 -1 28 -10 50 -20 22 -10 50 -22 61 -27 34 -16 59 -6 56 21 -4
41 -51 74 -132 93 -41 9 -100 26 -130 37 -33 12 -66 18 -83 15 -44 -9 -77 -13
-137 -18 -84 -7 -124 -16 -135 -29 -5 -7 -19 -13 -30 -14 -49 -4 -105 -31
-105 -50 0 -10 6 -12 23 -7 12 4 37 11 56 15 19 4 38 14 42 21 7 11 11 11 17
0 6 -9 18 -11 37 -6 25 6 56 7 125 5 11 -1 20 -5 20 -11 0 -18 -44 -38 -95
-44 -149 -16 -257 -42 -338 -80 -30 -15 -57 -26 -62 -26 -4 0 -18 -11 -31 -25
-13 -14 -28 -25 -34 -25 -5 0 -10 -4 -10 -8 0 -5 -11 -14 -23 -21 -26 -14
-123 -138 -119 -152 1 -5 -3 -9 -9 -9 -6 0 -9 -7 -5 -15 3 -8 1 -15 -4 -15 -4
0 -11 -13 -15 -30 -5 -22 -22 -40 -62 -67 -31 -20 -58 -45 -61 -55 -2 -10 -8
-18 -13 -18 -5 0 -9 -10 -9 -23 0 -13 -4 -27 -9 -32 -17 -19 -33 -85 -24 -98
5 -7 8 -27 6 -44 -1 -18 1 -33 6 -33 6 0 6 -13 0 -32 -5 -18 -6 -53 -2 -78 4
-25 6 -51 5 -57 -2 -7 1 -13 6 -13 5 0 8 -38 6 -85 -2 -53 1 -85 7 -85 6 0 8
-4 4 -9 -3 -5 -1 -12 5 -16 5 -3 10 -13 10 -22 0 -9 24 -42 53 -73 77 -84 97
-110 97 -127 0 -12 3 -12 16 2 15 14 15 20 3 43 -8 15 -20 32 -28 38 -8 6 -11
18 -8 28 4 9 2 16 -3 16 -13 0 -13 51 0 70 9 13 12 12 25 -4 8 -11 15 -29 15
-40 1 -52 17 -46 48 17 38 77 39 83 8 91 -13 3 -31 17 -40 31 -15 23 -18 24
-32 10 -9 -8 -27 -15 -42 -15 -15 0 -38 -3 -51 -7 l-24 -6 8 174 c10 238 15
278 33 303 5 6 16 31 25 56 23 61 58 97 104 105 44 7 63 30 82 95 18 64 52
120 72 120 14 0 34 19 109 104 32 35 82 75 76 60 -3 -9 -6 -23 -6 -32 0 -13
-2 -14 -9 -4 -6 10 -14 4 -30 -23 -26 -44 -26 -48 -3 -41 9 3 34 8 56 12 63 9
102 19 137 32 15 6 29 8 32 5 9 -9 -5 -37 -30 -58 -13 -11 -23 -25 -23 -31 0
-6 -22 -11 -50 -12 -27 0 -59 -6 -72 -13 -38 -19 -117 -74 -118 -80 0 -8 48 3
108 25 23 9 65 15 92 14 39 -2 53 2 64 17 10 13 15 15 16 6 0 -9 8 -11 25 -7
29 7 32 -4 8 -32 -18 -19 -82 -41 -134 -44 -18 -2 -25 -7 -22 -18 2 -8 -13
-49 -33 -90 -20 -41 -41 -102 -46 -135 -12 -79 -12 -82 -3 -139 6 -36 5 -47
-4 -42 -6 4 -11 17 -11 29 0 12 -7 31 -15 41 -12 16 -19 18 -37 8 -50 -24 -65
-24 -87 4 -22 28 -28 54 -11 54 6 0 18 -13 28 -28 33 -55 58 -11 27 48 -17 34
-53 47 -83 31 -44 -24 -55 -15 -49 38 3 27 17 72 31 102 14 29 24 54 22 56 -7
7 -107 -172 -104 -185 1 -4 -6 -21 -15 -39 -16 -31 -16 -32 3 -38 26 -8 25
-20 -1 -39 -19 -13 -22 -24 -21 -82 0 -36 -3 -76 -8 -88 -8 -21 -8 -21 -17 4
-11 30 -8 111 6 160 20 71 28 129 19 142 -13 21 -45 -28 -60 -92 -24 -105 -4
-336 29 -347 6 -2 8 12 6 36 -2 24 1 42 8 47 14 9 41 -24 32 -40 -3 -6 0 -5 8
2 16 14 49 16 49 2 0 -5 -7 -10 -15 -10 -8 0 -15 -4 -15 -10 0 -5 5 -10 11
-10 5 0 8 -4 5 -8 -2 -4 4 -18 14 -32 l18 -24 30 34 c36 39 33 59 -9 54 -27
-3 -29 -2 -19 16 6 11 13 20 16 20 3 0 2 -4 -1 -10 -11 -19 12 -10 41 15 15
13 30 22 32 20 3 -2 11 2 18 10 10 10 12 26 8 52 -5 30 -14 43 -46 63 -22 14
-56 40 -75 59 -28 27 -33 38 -28 60 11 44 23 46 35 3 13 -50 69 -100 122 -108
36 -6 48 -22 48 -66 0 -23 -58 -83 -87 -93 -34 -10 -28 -22 10 -18 23 3 28 2
17 -6 -8 -5 -18 -7 -23 -4 -5 3 -6 -4 -2 -16 4 -13 -3 -39 -20 -73 -15 -29
-36 -78 -47 -108 -11 -30 -24 -65 -30 -77 -6 -13 -9 -25 -6 -29 3 -3 19 20 34
50 16 31 32 56 36 56 4 0 5 7 2 15 -4 8 -1 15 5 15 6 0 11 6 11 14 0 8 7 17
16 20 9 4 14 13 10 21 -6 16 40 53 51 41 3 -3 1 -6 -6 -6 -9 0 -9 -5 -1 -21 7
-11 9 -24 5 -27 -3 -3 -8 4 -12 16 -3 12 -9 22 -14 22 -5 0 -2 -14 7 -31 13
-26 13 -31 2 -26 -8 3 -15 -1 -15 -8 0 -8 9 -12 21 -9 20 3 20 3 3 -11 -15
-11 -17 -17 -7 -35 11 -20 10 -21 -12 -15 -16 4 -19 3 -9 -3 9 -7 10 -12 2
-16 -8 -5 -8 -13 1 -29 10 -20 10 -21 -6 -8 -15 13 -16 12 -7 -13 7 -18 7 -26
0 -26 -6 0 -8 -4 -5 -9 4 -5 0 -12 -6 -14 -9 -4 -8 -6 2 -6 11 -1 16 -15 18
-57 3 -72 15 -93 106 -187 53 -54 76 -85 76 -102 0 -15 -6 -25 -14 -25 -7 0
-19 -7 -26 -15 -14 -17 -70 -17 -70 0 0 5 -5 2 -11 -7 -5 -10 -17 -18 -26 -18
-13 0 -13 3 -3 15 7 9 10 18 6 22 -3 3 -6 2 -6 -4 0 -5 -12 -9 -27 -8 -16 1
-36 -2 -45 -7 -15 -7 -18 -4 -18 14 -1 22 -1 22 -15 4 -12 -16 -17 -17 -30 -6
-20 17 -32 1 -81 -108 -40 -87 -59 -107 -26 -25 11 26 26 63 33 82 7 18 23 48
35 67 13 19 20 34 15 34 -15 0 -59 -72 -101 -165 -57 -123 -63 -136 -67 -131
-4 3 7 29 63 154 13 29 24 58 24 64 0 6 7 20 17 30 33 37 6 26 -47 -18 -59
-49 -125 -94 -137 -94 -4 0 15 16 44 35 28 19 61 48 74 64 13 17 40 37 59 45
26 11 30 16 15 17 -25 2 -22 2 -74 -16 -24 -9 -45 -14 -48 -12 -2 2 23 14 57
27 65 24 72 41 13 31 -21 -4 -54 -4 -73 -1 -31 5 -29 6 23 11 35 4 65 12 75
22 15 16 15 17 -1 17 -9 0 -17 5 -17 10 0 6 -11 10 -25 10 -14 0 -25 5 -25 10
0 6 14 10 30 10 44 0 37 20 -7 21 l-38 1 42 11 c30 9 40 16 34 25 -4 7 -16 10
-27 7 -18 -6 -18 -6 -1 8 16 14 15 15 -20 22 -24 4 -39 3 -41 -4 -4 -13 -75
-13 -112 -1 -16 6 -2 7 40 4 l65 -5 -35 20 c-19 11 -47 20 -62 21 -21 0 -26 4
-21 17 5 14 1 15 -36 9 l-42 -6 16 29 c21 41 19 46 -10 27 -35 -23 -38 -21
-30 20 5 31 4 36 -10 30 -11 -4 -15 -1 -13 12 2 9 -3 16 -9 15 -16 -4 -16 2
-2 29 8 15 8 19 0 14 -16 -10 -14 10 5 46 15 28 15 30 0 25 -19 -8 -20 -1 -5
43 9 25 9 34 -1 40 -9 5 -9 9 -1 14 17 11 13 26 -6 26 -14 0 -13 3 5 20 28 26
28 33 0 25 -16 -6 -20 -4 -15 8 3 9 1 17 -6 20 -7 2 -3 13 11 32 27 34 29 55
4 32 -30 -27 -35 -19 -12 18 19 30 19 35 5 35 -14 0 -13 5 6 32 l23 31 -23 -6
c-19 -5 -21 -2 -15 16 4 12 19 37 33 56 20 26 22 33 9 28 -22 -8 -33 10 -18
28 9 11 9 15 1 15 -7 0 0 12 14 27 14 15 25 30 25 33 0 3 16 14 35 24 19 10
33 23 32 29 -1 6 16 21 38 33 22 13 40 29 40 36 0 7 3 15 7 18 3 3 8 12 10 19
2 8 18 28 36 44 29 26 31 32 17 40 -14 8 -15 11 -2 30 12 19 12 24 0 35 -7 7
-11 17 -8 22 7 11 -31 24 -45 15 -5 -3 -10 -2 -10 3 0 5 -18 12 -39 16 -33 5
-40 11 -46 35 -4 20 -13 31 -28 33 -19 3 -21 9 -21 72 0 64 2 71 30 95 17 14
41 51 53 83 28 69 80 121 114 113 18 -5 26 0 37 19 7 14 15 26 16 26 1 0 3
-47 3 -104z m844 10 c14 14 81 12 111 -3 18 -9 26 -18 18 -21 -7 -2 -19 1 -26
7 -13 11 -54 10 -180 -3 -21 -2 -34 0 -30 4 15 14 78 27 90 19 6 -5 14 -6 17
-3z m953 -104 c-4 -8 45 -52 58 -52 2 0 17 -12 33 -27 66 -64 88 -119 66 -173
-6 -14 -8 -29 -6 -33 3 -5 -4 -11 -16 -14 -11 -3 -18 -10 -15 -15 7 -11 -45
-58 -64 -58 -7 0 -10 -4 -7 -10 9 -14 -8 -12 -28 3 -9 6 -18 22 -20 34 -2 12
-6 26 -10 29 -4 4 -7 18 -7 31 0 13 -4 23 -10 23 -5 0 -10 9 -10 19 0 11 -4
22 -10 26 -5 3 -7 12 -4 20 3 8 -1 24 -10 37 -9 12 -16 33 -16 45 0 26 57 123
71 123 6 0 8 -4 5 -8z m-990 -177 c6 -35 6 -55 0 -55 -5 0 -7 -3 -3 -6 3 -3 8
-5 12 -4 3 0 12 -6 20 -13 15 -16 160 -77 190 -81 6 -1 29 -8 53 -15 23 -8 45
-12 48 -9 16 17 -78 132 -128 157 -16 8 -28 18 -28 23 0 13 9 10 43 -15 18
-13 49 -32 69 -42 20 -10 35 -22 33 -25 -8 -12 95 -101 108 -94 7 4 9 4 5 -1
-4 -4 -3 -16 2 -25 7 -14 6 -17 -8 -16 -11 1 -18 -8 -20 -24 -2 -14 -9 -31
-14 -37 -7 -9 -7 -17 1 -26 6 -8 8 -24 6 -38 -3 -13 -8 -50 -12 -81 -7 -69
-23 -87 -55 -66 -13 8 -43 22 -67 32 -36 14 -46 15 -53 4 -6 -10 -10 -10 -17
2 -12 18 -26 7 -18 -15 4 -8 17 -15 29 -15 29 0 55 -55 37 -77 -16 -18 -9 -17
66 17 83 37 105 38 105 6 0 -54 -110 -91 -172 -58 -21 12 -30 11 -63 -2 -25
-11 -42 -13 -50 -6 -7 6 -23 6 -44 0 -51 -14 -56 -7 -57 78 -1 55 -7 91 -23
125 -28 65 -7 55 31 -13 16 -30 32 -57 34 -59 2 -2 4 20 4 50 0 45 -5 59 -28
84 -15 17 -40 37 -57 45 -16 8 -36 21 -43 28 -21 19 -29 14 -40 -25 -10 -37
-10 -37 -11 -8 -1 17 -8 43 -16 59 -11 21 -12 32 -4 42 14 17 71 -11 138 -66
13 -11 32 -20 42 -20 10 0 21 -5 24 -10 5 -7 11 -8 19 -1 8 7 32 0 79 -23 65
-31 67 -31 67 -11 0 29 -113 132 -153 139 -7 1 -22 7 -34 14 -12 7 -33 12 -46
12 -32 0 -41 24 -21 61 15 29 14 31 -6 36 -14 4 -19 11 -15 23 3 10 1 30 -5
45 -7 20 -7 31 1 41 22 26 35 14 45 -41z m-171 35 c-3 -5 -14 -10 -23 -10 -15
0 -15 2 -2 10 20 13 33 13 25 0z m95 -2 c0 -14 -101 -111 -108 -104 -2 3 10
17 27 31 18 16 31 36 31 49 0 13 3 26 7 29 11 12 43 8 43 -5z m157 -14 c-9 -9
-28 6 -21 18 4 6 10 6 17 -1 6 -6 8 -13 4 -17z m-316 -4 c-13 -11 -29 -21 -37
-21 -23 -2 -27 -4 -62 -23 -51 -27 -49 -12 2 24 25 17 46 29 46 26 0 -3 10 -1
23 4 40 16 54 11 28 -10z m383 -6 c4 -10 1 -14 -6 -12 -15 5 -23 28 -10 28 5
0 13 -7 16 -16z m-885 -95 c-19 -11 -24 -3 -8 14 8 9 16 11 18 5 2 -6 -3 -14
-10 -19z m1224 -67 c24 -21 22 -35 -4 -22 -28 16 -59 43 -59 53 0 9 38 -9 63
-31z m-556 -34 c-3 -8 -6 -5 -6 6 -1 11 2 17 5 13 3 -3 4 -12 1 -19z m657 -43
c11 -8 16 -15 10 -15 -5 0 -18 7 -28 15 -11 8 -16 15 -10 15 5 0 18 -7 28 -15z
m-118 -82 c9 -14 16 -15 24 -7 9 9 19 8 41 -3 16 -8 29 -19 29 -24 0 -13 -14
-11 -28 3 -9 9 -12 6 -12 -14 0 -15 -5 -30 -11 -34 -6 -3 -17 -20 -25 -38 -7
-17 -13 -23 -14 -14 0 9 -4 18 -8 20 -4 2 -20 24 -34 49 -25 43 -26 47 -10 62
21 22 32 21 48 0z m-641 -23 c-4 -11 -2 -20 4 -20 6 0 11 -8 11 -18 0 -10 5
-23 12 -30 13 -13 0 -16 -18 -4 -13 9 -27 76 -17 85 12 12 15 8 8 -13z m-72
-45 c-4 -5 -14 -22 -24 -36 -10 -14 -21 -45 -25 -67 -7 -43 -16 -48 -47 -20
-21 18 -15 63 7 55 7 -3 13 0 13 6 0 7 4 20 8 30 5 12 3 17 -6 15 -8 -2 -17
-12 -22 -22 -4 -10 -10 -16 -14 -13 -9 10 26 57 40 52 6 -3 23 4 37 14 25 20
46 10 33 -14z m201 -9 c13 -31 21 -94 16 -121 -1 -5 -9 13 -17 40 -30 99 -29
153 1 81z m-160 -68 c-1 -45 -6 -84 -11 -85 -5 -2 -9 26 -8 64 3 101 4 115 13
109 5 -3 7 -42 6 -88z m104 16 c-3 -14 -5 -12 -10 9 -3 19 -2 25 4 19 6 -6 8
-18 6 -28z m-38 -11 c0 -16 -5 -35 -10 -43 -7 -11 -10 -4 -10 28 0 23 5 42 10
42 6 0 10 -12 10 -27z m781 -54 c28 -7 41 -18 54 -44 20 -44 26 -73 16 -80 -5
-2 -6 -22 -2 -42 8 -48 7 -62 -7 -95 -10 -25 -8 -83 5 -118 3 -8 7 -24 8 -35
2 -11 4 -24 6 -30 1 -5 -1 -18 -6 -28 -4 -9 -5 -30 -3 -46 3 -19 0 -27 -8 -24
-14 5 -24 -28 -24 -89 0 -41 -3 -48 -20 -48 -12 0 -29 13 -41 33 -19 29 -20
43 -15 162 3 72 8 141 11 155 23 114 31 184 26 242 -2 24 -76 44 -109 28 -22
-9 -24 -15 -18 -48 4 -20 11 -75 15 -123 5 -47 16 -102 25 -123 17 -41 26
-123 18 -175 l-5 -34 -56 8 c-63 8 -160 7 -174 -2 -5 -3 -4 -10 2 -16 16 -16
13 -47 -3 -47 -27 0 -47 67 -24 81 10 7 5 15 -17 34 -27 23 -28 26 -12 35 9 6
17 18 17 27 0 12 3 13 13 4 8 -6 16 -9 18 -7 2 2 19 6 36 9 29 6 32 4 30 -16
-3 -30 27 -29 31 1 2 12 14 29 26 37 14 10 30 37 41 74 15 52 16 69 5 162 -7
57 -14 125 -17 151 l-5 46 63 -5 c35 -3 80 -9 100 -14z m-441 -155 c0 -9 -5
-12 -12 -8 -9 6 -9 3 0 -9 16 -19 8 -37 -17 -37 -23 0 -45 25 -38 44 3 8 18
16 34 19 15 2 29 5 31 6 1 0 2 -6 2 -15z m104 -16 c-11 -52 -35 -79 -91 -104
-50 -22 -58 -31 -54 -61 1 -7 -3 -22 -9 -33 -8 -15 -8 -20 1 -18 16 4 22 -22
10 -41 -5 -8 -16 -11 -31 -6 -15 5 -19 10 -11 14 9 6 9 15 1 35 -14 37 -13
103 2 112 7 4 22 9 34 10 49 5 106 45 123 85 19 47 35 51 25 7z m870 13 c4 -5
-1 -8 -9 -7 -21 3 -31 16 -12 16 9 0 18 -4 21 -9z m-1115 -38 c-12 -21 -30
-47 -41 -58 -18 -19 -18 -19 -18 12 0 26 7 37 37 58 21 14 39 25 41 25 2 0 -6
-17 -19 -37z m-374 -63 c-4 -12 -9 -19 -12 -17 -3 3 -2 15 2 27 4 12 9 19 12
17 3 -3 2 -15 -2 -27z m58 3 c-3 -7 2 -13 12 -13 9 0 13 5 10 10 -3 6 1 10 9
10 9 0 16 -6 16 -14 0 -8 5 -18 12 -22 6 -4 8 -3 4 4 -4 6 1 10 13 9 11 0 17
-5 15 -9 -3 -4 0 -8 6 -8 6 0 10 -8 9 -17 -3 -31 1 -44 10 -38 11 6 6 -54 -5
-64 -4 -3 -4 4 -1 17 3 12 2 20 -3 17 -4 -3 -10 -14 -13 -25 -3 -11 -1 -18 4
-14 5 3 9 0 9 -6 0 -6 6 -8 13 -4 9 5 9 4 0 -6 -7 -8 -8 -22 -3 -41 9 -32 8
-34 -21 -19 -13 7 -19 7 -19 0 0 -5 4 -10 9 -10 9 0 11 -7 12 -57 0 -12 -9
-31 -20 -42 -12 -12 -21 -25 -21 -31 0 -5 -9 -10 -20 -10 -10 0 -24 -10 -30
-22 -10 -22 -10 -22 4 -4 8 10 19 15 25 12 5 -4 20 4 32 16 19 20 20 20 12 3
-6 -11 -8 -26 -5 -34 3 -10 -1 -13 -14 -9 -25 7 -41 -12 -41 -46 0 -18 2 -23
7 -15 5 6 6 18 3 26 -3 7 -1 13 5 13 6 0 12 -6 15 -12 3 -10 8 -9 22 2 15 12
15 8 -4 -17 -16 -24 -18 -31 -7 -27 10 4 16 1 16 -9 0 -9 10 -17 23 -19 25 -3
36 -43 16 -62 -9 -8 -10 -8 -5 2 14 24 -24 23 -115 -3 -91 -26 -92 -26 -113
-7 -20 19 -89 52 -107 52 -5 0 -9 -9 -9 -20 0 -21 -25 -18 -33 4 -5 12 9 105
20 136 3 8 7 26 8 40 11 100 27 139 45 110 7 -11 10 -11 10 -2 0 7 -6 15 -14
18 -16 6 -15 32 3 43 6 4 9 15 5 24 -4 10 -1 17 6 17 7 0 10 7 7 15 -4 8 -2
17 4 20 5 4 7 11 4 16 -3 5 0 6 8 3 9 -3 18 8 26 37 9 31 15 39 22 28 7 -12 9
-12 10 1 1 8 1 22 0 30 -2 12 0 12 7 1 11 -15 52 -6 52 11 0 6 8 1 19 -10 24
-29 36 -28 17 0 -20 28 -20 35 -2 35 8 0 12 -6 9 -14z m-423 -75 c0 -13 -27
-9 -39 6 -10 11 -8 15 6 18 17 4 33 -8 33 -24z m60 -4 c0 -8 -4 -12 -10 -9 -5
3 -10 10 -10 16 0 5 5 9 10 9 6 0 10 -7 10 -16z m990 -38 c0 -2 -8 -10 -17
-17 -16 -13 -17 -12 -4 4 13 16 21 21 21 13z m-139 -25 c-7 -5 -10 -14 -7 -20
4 -6 2 -11 -3 -11 -12 0 -15 23 -4 33 3 4 11 7 17 7 6 0 5 -4 -3 -9z m-866
-11 c-28 -12 -45 -12 -45 0 0 6 15 10 33 9 27 0 29 -2 12 -9z m829 -24 c-3 -8
-17 -22 -30 -31 -13 -8 -23 -19 -23 -23 1 -4 1 -14 -1 -22 -1 -11 -4 -9 -9 5
-6 14 -1 25 16 41 12 12 23 26 23 33 0 6 7 11 15 11 8 0 12 -6 9 -14z m-59
-16 c3 -6 -1 -7 -9 -4 -18 7 -21 14 -7 14 6 0 13 -4 16 -10z m77 -2 c-14 -14
-16 -32 -3 -24 4 3 13 -5 19 -18 9 -19 8 -25 -4 -30 -16 -6 -19 -36 -4 -36 6
0 10 -6 10 -13 0 -21 50 -88 61 -81 6 3 18 -1 28 -10 16 -15 21 -15 48 -1 63
31 153 -13 153 -75 0 -29 -53 -110 -71 -110 -7 0 -9 10 -7 25 3 14 2 25 -3 25
-16 0 -64 -25 -75 -39 -9 -11 -18 -2 -44 45 -19 32 -46 76 -61 97 -36 50 -84
207 -58 191 7 -4 10 -2 7 7 -3 8 -11 13 -17 11 -8 -1 -10 3 -5 10 12 22 26 38
32 38 3 0 1 -5 -6 -12z m-692 -13 c-7 -9 -15 -13 -19 -10 -3 3 1 10 9 15 21
14 24 12 10 -5z m656 -78 c-1 -12 -5 -25 -11 -29 -6 -5 -5 -8 2 -8 15 0 53
-71 53 -99 0 -11 6 -21 13 -24 6 -2 9 -8 4 -12 -9 -10 -28 15 -59 77 -21 43
-38 61 -38 41 0 -57 57 -173 94 -192 16 -9 43 -28 60 -42 26 -23 28 -29 17
-43 -7 -9 -20 -16 -28 -16 -10 0 -12 -6 -8 -19 4 -14 0 -23 -13 -30 -16 -9
-21 -7 -25 9 -3 10 0 21 7 23 7 3 3 11 -10 23 -12 10 -32 45 -44 77 -13 32
-29 64 -36 72 -16 15 -27 58 -27 103 0 21 -5 32 -15 32 -7 0 -12 6 -9 13 2 6
12 11 21 11 19 -2 19 1 6 27 -8 15 -7 19 5 19 8 0 15 4 15 10 0 5 6 7 13 4 8
-3 13 -15 13 -27z m82 -3 c12 -8 22 -22 22 -30 0 -19 -5 -18 -35 8 -40 35 -30
53 13 22z m-763 -14 c-3 -5 -12 -10 -18 -10 -7 0 -6 4 3 10 19 12 23 12 15 0z
m-325 -36 c0 -16 -16 -19 -25 -4 -8 13 4 32 16 25 5 -4 9 -13 9 -21z m310 -24
c0 -5 -7 -10 -16 -10 -8 0 -12 5 -9 10 3 6 10 10 16 10 5 0 9 -4 9 -10z m1801
-100 c9 12 10 11 6 -7 -6 -26 28 -53 67 -53 19 0 27 -8 37 -37 6 -21 15 -42
19 -48 11 -16 11 -87 -1 -101 -6 -7 -8 -22 -4 -34 4 -13 1 -22 -9 -26 -9 -3
-23 -20 -31 -37 -15 -29 -14 -33 1 -44 16 -12 14 -14 -14 -24 -23 -8 -32 -17
-32 -34 0 -12 -7 -28 -15 -35 -8 -7 -15 -17 -15 -22 0 -12 -35 -60 -76 -103
-17 -17 -35 -39 -40 -48 -13 -23 -78 -97 -164 -187 -80 -84 -129 -141 -164
-193 -12 -17 -34 -45 -49 -61 -39 -42 -117 -162 -117 -181 0 -8 -4 -15 -10
-15 -5 0 -10 -6 -10 -14 0 -7 -14 -39 -31 -71 -17 -31 -28 -59 -26 -61 4 -4
67 92 67 102 0 3 21 37 47 76 56 85 212 251 229 244 8 -3 11 1 8 8 -3 8 -1 17
5 21 6 3 11 0 11 -7 0 -7 9 2 20 19 11 18 31 35 45 39 14 3 25 9 25 14 0 12
37 50 49 50 7 0 9 5 6 10 -3 6 -1 10 4 10 6 0 11 5 11 10 0 6 11 22 25 36 14
14 25 28 25 32 0 4 16 24 35 45 19 21 35 44 35 51 0 8 9 16 20 19 13 3 18 11
14 20 -3 10 2 18 15 22 12 3 18 11 15 16 -3 6 2 19 12 29 29 29 37 41 64 93
23 43 47 66 34 32 -4 -10 0 -15 12 -16 18 0 17 -1 -1 -9 -13 -6 -15 -9 -5 -9
12 -1 13 -3 1 -10 -7 -5 -11 -13 -7 -19 3 -6 -3 -13 -14 -17 -11 -4 -18 -10
-15 -15 5 -9 -19 -32 -27 -25 -3 3 -10 -6 -16 -20 -8 -16 -8 -25 -1 -25 5 0 4
-6 -3 -14 -7 -7 -19 -11 -25 -9 -8 3 -13 -3 -13 -16 0 -13 -8 -23 -24 -27 -17
-4 -22 -11 -19 -25 3 -11 0 -19 -7 -19 -15 0 -41 -26 -33 -34 4 -3 -5 -6 -18
-6 -18 0 -21 -2 -10 -9 12 -8 9 -15 -18 -40 -17 -16 -32 -34 -33 -38 0 -4 -7
-18 -15 -29 -7 -12 -16 -31 -18 -43 -3 -16 10 -7 50 33 29 30 56 52 59 49 3
-4 6 1 6 10 0 15 11 22 33 18 4 0 7 8 7 19 0 14 6 20 18 18 11 -2 18 4 20 19
3 19 9 22 33 19 38 -4 49 -15 21 -23 -12 -3 -19 -10 -15 -16 3 -5 -3 -16 -13
-24 -10 -8 -18 -16 -16 -19 9 -15 -126 -170 -276 -317 -87 -85 -130 -137 -114
-137 5 0 21 11 35 24 15 14 36 27 47 31 11 3 20 11 20 16 0 5 6 9 14 9 8 0 18
9 21 21 4 11 9 18 12 15 5 -4 23 14 146 143 26 28 52 51 57 51 6 0 10 4 10 10
0 19 35 50 55 50 21 0 45 17 45 31 0 4 -10 5 -22 2 l-23 -6 22 22 c12 12 26
21 30 20 21 -4 33 2 33 17 0 8 -4 13 -9 9 -15 -9 -24 16 -11 28 10 9 14 9 17
0 3 -7 11 -13 19 -13 10 0 13 8 9 30 -3 18 -1 30 5 30 6 0 8 5 5 10 -3 6 -1
10 4 10 6 0 11 -4 11 -10 0 -5 7 -10 15 -10 22 0 18 18 -5 25 -11 4 -18 11
-14 16 3 5 9 7 14 4 5 -3 13 8 17 25 5 17 13 30 18 28 6 -2 9 -6 7 -10 -3 -11
20 -10 37 1 8 5 12 18 8 31 -4 16 -1 24 14 27 22 6 24 14 7 32 -11 11 -10 13
5 8 11 -4 20 -1 23 8 10 25 32 17 36 -12 2 -17 8 -27 16 -25 8 1 12 -3 10 -10
-3 -7 -15 -11 -28 -10 -20 3 -22 2 -12 -11 7 -8 12 -19 11 -23 -3 -21 2 -28
11 -14 6 9 10 10 10 3 0 -6 -7 -18 -15 -26 -8 -8 -11 -17 -8 -21 4 -3 1 -6 -6
-6 -6 0 -11 6 -10 13 1 6 1 21 0 32 -2 18 -3 18 -12 -4 -6 -14 -6 -36 0 -57
11 -39 6 -46 -25 -38 -15 4 -24 2 -24 -5 0 -6 6 -10 13 -9 8 2 12 -10 12 -37
0 -37 -2 -40 -25 -37 -15 1 -20 -1 -13 -6 16 -10 14 -79 -3 -93 -8 -7 -11 -22
-7 -40 3 -19 1 -29 -6 -29 -7 0 -10 -4 -7 -8 7 -11 -13 -82 -22 -82 -4 0 -16
-13 -25 -30 -10 -16 -24 -30 -32 -30 -7 0 -17 -9 -20 -20 -3 -11 -12 -20 -19
-20 -7 0 -19 -11 -26 -25 -7 -14 -19 -25 -25 -25 -7 0 -18 -6 -25 -14 -6 -8
-18 -12 -26 -9 -8 3 -21 0 -29 -7 -12 -10 -15 -10 -16 1 0 10 -2 11 -6 1 -2
-6 -9 -10 -14 -6 -5 3 -17 -2 -26 -12 -15 -15 -17 -15 -23 0 -4 12 -8 9 -19
-15 -16 -36 -10 -45 19 -29 12 6 28 9 36 6 9 -3 12 -1 9 4 -3 6 -3 10 2 10 4
1 49 3 98 6 50 3 98 5 108 5 9 0 17 4 17 10 0 5 7 9 15 9 14 0 43 27 75 67 21
27 81 47 91 31 4 -7 5 -16 2 -21 -3 -5 -9 -3 -14 4 -6 10 -9 10 -9 2 0 -6 5
-15 10 -18 6 -4 4 -12 -5 -22 -12 -11 -13 -19 -5 -28 9 -10 6 -16 -9 -25 -17
-9 -19 -15 -11 -30 9 -17 7 -20 -8 -20 -10 0 -34 -15 -54 -32 -39 -36 -98 -73
-98 -62 0 3 -7 1 -15 -6 -12 -10 -15 -10 -15 1 0 7 -7 3 -16 -9 -9 -13 -21
-21 -27 -19 -6 2 -27 -12 -46 -31 l-36 -35 -9 31 c-5 17 -15 33 -23 37 -11 3
-13 1 -9 -10 3 -8 1 -15 -5 -15 -6 0 -8 -4 -4 -9 3 -6 -6 -6 -25 -1 -20 6 -30
5 -30 -2 0 -5 -7 -7 -15 -4 -10 4 -20 -3 -27 -19 -14 -32 -32 -32 -24 -1 3 14
1 28 -6 32 -7 4 -8 3 -4 -4 6 -11 -5 -16 -26 -13 -4 0 -12 -9 -19 -20 -9 -17
-8 -20 2 -14 9 6 11 3 6 -9 -4 -10 -7 -22 -7 -28 0 -5 -7 -2 -16 7 -10 10 -14
24 -10 40 8 31 -1 31 -36 0 -35 -30 -35 -34 -2 -27 24 4 25 3 12 -17 -7 -12
-14 -17 -16 -11 -5 13 -32 13 -32 -1 0 -5 5 -7 10 -4 6 3 10 1 10 -4 0 -6 -4
-11 -10 -11 -5 0 -7 -6 -5 -13 4 -8 -6 -12 -32 -12 -22 0 -43 -6 -50 -15 -9
-10 -12 -11 -13 -3 0 15 -68 -9 -112 -39 -14 -10 -31 -18 -37 -18 -6 0 -11 -4
-11 -8 0 -5 -6 -9 -13 -9 -55 0 -267 -147 -267 -186 0 -19 2 -19 30 8 17 16
30 34 30 40 0 14 208 88 221 79 14 -8 -1 -26 -16 -20 -8 3 -15 -6 -18 -24 -5
-22 -13 -30 -39 -35 -43 -10 -58 -26 -46 -51 9 -18 9 -18 -6 -1 -14 18 -16 17
-51 -17 -20 -20 -41 -33 -47 -30 -7 4 -8 2 -4 -4 8 -13 -12 -57 -21 -48 -3 3
0 12 7 21 8 10 9 15 1 15 -6 0 -11 -4 -11 -10 0 -5 -13 -25 -30 -43 -16 -19
-30 -37 -30 -41 0 -14 -34 -44 -45 -40 -7 3 -22 -14 -35 -40 -12 -25 -25 -48
-30 -51 -4 -3 -11 -21 -14 -40 -4 -19 -20 -49 -36 -67 -17 -18 -30 -38 -30
-45 0 -7 -4 -13 -10 -13 -5 0 -16 -16 -24 -35 -8 -19 -20 -35 -25 -35 -6 0
-11 -7 -11 -15 0 -8 -4 -15 -8 -15 -5 0 -22 -24 -37 -52 -16 -29 -35 -59 -42
-66 -7 -7 -13 -17 -13 -21 0 -4 -6 -8 -14 -8 -10 0 -9 10 6 44 11 25 22 57 24
71 11 66 18 89 34 112 9 14 16 33 14 43 -1 10 9 30 22 44 15 17 22 33 18 45
-3 10 -1 18 5 18 6 0 11 5 11 10 0 6 -7 10 -15 10 -22 0 -18 34 5 55 11 10 19
23 17 28 -1 5 9 22 23 37 14 15 43 49 65 76 22 27 61 69 86 94 70 68 91 154
35 144 -24 -4 -25 -2 -19 28 6 30 5 32 -10 19 -15 -12 -17 -11 -17 5 0 11 -4
15 -8 9 -4 -5 -21 -15 -39 -21 -34 -13 -43 -5 -43 37 0 26 -30 37 -42 16 -12
-22 -37 -11 -31 14 8 28 -4 23 -21 -10 -9 -16 -25 -31 -37 -34 -18 -5 -20 -2
-15 19 7 27 3 29 -24 14 -13 -7 -19 -6 -24 5 -3 8 -14 15 -25 15 -11 0 -22 9
-26 20 -4 11 -10 18 -14 16 -4 -3 -20 6 -35 19 -21 18 -26 29 -21 46 6 18 4
21 -9 16 -10 -4 -16 -1 -16 8 0 8 -4 15 -10 15 -5 0 -10 7 -10 15 0 8 -5 15
-11 15 -5 0 -7 5 -4 10 7 12 -16 70 -27 70 -4 0 -5 7 -1 15 3 9 -2 24 -12 35
-9 10 -14 23 -11 28 3 5 -1 17 -8 28 -8 10 -12 24 -9 31 3 7 -1 20 -8 29 -7 9
-13 38 -13 65 0 27 -3 49 -7 49 -9 0 -6 41 5 59 5 7 5 16 0 20 -5 3 -10 15
-11 26 -1 11 -4 34 -6 50 -3 17 1 44 7 60 7 17 14 35 16 40 2 6 9 24 17 42 17
41 16 55 -2 79 -10 13 -14 14 -15 5 0 -11 -3 -11 -15 -1 -12 10 -15 10 -16 -1
0 -8 -2 -9 -5 -3 -3 6 -20 9 -39 7 -28 -3 -35 0 -36 14 -1 17 -2 17 -6 0 -3
-10 -11 -16 -18 -14 -7 3 -18 0 -24 -6 -7 -7 -11 -8 -11 0 0 6 -11 8 -25 5
-14 -2 -25 -9 -25 -14 0 -5 -5 -6 -11 -3 -6 4 -8 14 -4 24 5 14 4 14 -11 -1
-16 -16 -18 -16 -30 0 -10 14 -14 15 -30 2 -10 -8 -15 -10 -11 -3 4 6 4 19 1
28 -6 15 -8 14 -25 -1 -22 -19 -26 -5 -8 28 10 19 9 20 -25 16 -42 -5 -44 0
-15 31 24 26 20 37 -9 22 -33 -18 -39 -12 -12 11 16 13 21 22 13 25 -8 3 -9
10 -4 21 5 9 14 28 20 42 18 39 46 53 65 34 10 -10 24 -13 37 -9 18 6 21 4 17
-13 -4 -14 -2 -19 7 -16 7 3 20 -4 28 -16 10 -14 16 -17 19 -9 2 7 14 14 26
15 17 3 20 0 15 -14 -3 -9 -13 -25 -21 -34 -19 -23 3 -25 25 -3 12 12 18 13
29 4 8 -6 21 -8 30 -5 12 5 15 2 10 -10 -5 -14 -4 -15 9 -4 16 14 21 45 5 35
-6 -4 -7 1 -3 11 6 16 8 15 16 -4 10 -21 35 -26 48 -9 12 17 49 -17 49 -45 0
-16 5 -28 11 -28 6 0 9 7 6 15 -3 7 2 24 13 37 17 21 19 21 25 5 6 -13 11 -15
21 -7 7 7 21 10 31 9 10 -1 26 1 35 5 11 5 28 0 48 -14 29 -21 40 -55 19 -62
-5 -2 -11 -11 -13 -20 -3 -21 -16 -36 -16 -19 0 9 -4 8 -15 -3 -8 -8 -15 -19
-15 -25 0 -5 -7 -17 -16 -26 -15 -15 -15 -21 1 -83 9 -37 30 -91 46 -121 16
-30 29 -58 29 -63 0 -13 53 -92 67 -101 7 -4 13 -14 13 -21 0 -7 9 -25 20 -38
10 -14 17 -28 15 -32 -3 -3 -2 -4 1 -1 6 4 39 -24 39 -34 3 -24 19 -50 39 -59
16 -7 26 -22 30 -46 5 -26 12 -36 25 -36 28 0 42 -23 35 -59 -5 -25 -3 -31 11
-31 12 0 16 -6 12 -20 -8 -31 11 -24 33 13 13 21 18 41 14 59 -6 29 13 73 44
101 27 24 35 9 22 -45 -5 -24 -10 -53 -10 -66 0 -21 1 -22 24 -7 26 17 30 28
51 120 16 74 71 221 96 257 11 14 19 29 19 32 0 6 67 111 85 133 6 7 21 27 35
44 14 17 40 47 58 67 17 19 32 43 32 53 0 10 9 24 20 32 11 8 17 17 13 20 -3
4 -1 7 5 7 7 0 12 9 12 20 0 11 7 20 16 20 8 0 13 4 10 9 -8 12 4 42 13 36 5
-2 20 23 35 55 16 33 32 60 37 60 4 0 6 6 3 14 -5 12 12 47 54 111 7 11 15 28
18 38 4 9 11 17 16 17 17 0 38 28 32 43 -3 8 2 17 11 21 10 3 15 12 11 21 -3
9 3 19 14 25 17 9 18 14 7 30 -10 17 -8 23 16 45 15 14 27 33 27 42 0 15 2 15
13 -1 12 -17 14 -17 20 -2 4 9 3 16 -2 16 -5 0 -11 9 -14 20 -3 11 -1 20 3 20
4 0 6 10 3 23 -5 22 -5 22 11 2 14 -17 17 -18 27 -5z m-1215 -25 c-1 -19 3
-35 9 -35 11 0 -15 -20 -27 -20 -4 0 -3 14 2 31 5 17 9 34 8 38 -1 10 2 21 6
21 2 0 3 -16 2 -35z m89 -40 c14 -31 25 -63 24 -73 0 -9 -5 -4 -11 13 -6 17
-20 45 -30 63 -18 32 -23 52 -13 52 2 0 16 -25 30 -55z m75 45 c0 -5 -2 -10
-4 -10 -3 0 -8 5 -11 10 -3 6 -1 10 4 10 6 0 11 -4 11 -10z m425 -8 c-6 -4
-26 -21 -45 -37 -20 -17 -28 -22 -20 -10 30 42 44 55 59 55 8 0 11 -3 6 -8z
m-3590 -12 c3 -5 1 -10 -4 -10 -6 0 -11 5 -11 10 0 6 2 10 4 10 3 0 8 -4 11
-10z m3707 -20 c-18 -17 -37 -30 -44 -30 -10 0 61 58 72 59 3 0 -10 -13 -28
-29z m-688 -69 c-3 -3 -12 3 -20 13 -11 16 -11 21 -2 28 13 8 34 -30 22 -41z
m626 35 c0 -2 -9 -6 -20 -9 -11 -3 -18 -1 -14 4 5 9 34 13 34 5z m-668 -37
c-9 -22 -27 -27 -27 -6 0 10 12 20 32 26 1 1 -1 -8 -5 -20z m543 -26 c-22 -20
-31 -32 -20 -28 62 25 128 45 132 41 3 -3 -8 -8 -23 -12 -16 -3 -62 -24 -103
-46 -55 -30 -72 -36 -67 -23 5 14 2 16 -11 10 -10 -4 -26 -10 -36 -13 -15 -4
-16 -7 -5 -13 10 -7 9 -9 -4 -9 -34 0 -27 20 14 41 24 12 61 34 83 49 36 25
62 38 75 39 3 0 -13 -16 -35 -36z m-629 -32 c11 9 14 8 14 -5 0 -9 -4 -16 -10
-16 -5 0 -16 -13 -25 -29 -15 -30 -8 -45 17 -36 14 5 60 14 95 19 12 2 38 15
57 30 40 30 43 31 63 11 18 -19 5 -40 -30 -48 -12 -3 -52 -14 -89 -25 -37 -11
-89 -22 -115 -23 -60 -3 -73 -8 -73 -25 0 -9 11 -14 30 -14 17 0 30 5 30 13 0
8 2 9 8 1 10 -16 52 -28 52 -14 0 7 6 8 19 1 29 -16 142 29 194 75 34 31 42
35 45 21 2 -9 8 -17 13 -17 6 0 24 -14 42 -30 18 -17 43 -33 58 -36 14 -3 43
-21 65 -41 33 -29 34 -31 7 -13 -18 11 -35 25 -38 30 -4 6 -16 10 -28 10 -19
0 -18 -3 13 -35 19 -19 39 -35 44 -35 6 -1 24 -12 41 -25 25 -21 26 -23 8 -19
-12 4 -28 12 -34 20 -6 8 -17 14 -23 14 -7 0 -30 18 -51 40 -52 53 -70 52 -20
-2 39 -41 39 -41 5 -12 -20 16 -47 37 -60 47 -21 14 -22 17 -5 13 11 -3 26 -2
34 3 10 7 4 15 -25 35 -37 25 -59 27 -36 4 20 -20 13 -32 -8 -13 -11 10 -20
13 -20 7 0 -7 -6 -11 -12 -9 -8 1 -12 -6 -10 -17 3 -17 2 -18 -12 -7 -11 9
-20 10 -28 3 -30 -24 -125 -42 -223 -42 -88 0 -106 3 -129 21 -32 25 -34 13
-3 -21 13 -14 26 -34 30 -44 6 -15 2 -14 -25 8 -18 14 -44 31 -57 36 -19 8
-22 15 -17 36 12 45 37 74 88 100 31 16 61 42 81 70 l32 46 3 -37 c3 -30 6
-34 18 -24z m-779 33 c-3 -3 -12 -4 -19 -1 -8 3 -5 6 6 6 11 1 17 -2 13 -5z
m821 -27 c-7 -14 -13 -17 -16 -9 -6 19 6 44 18 37 7 -4 6 -14 -2 -28z m-895
-24 c-7 -2 -19 -2 -25 0 -7 3 -2 5 12 5 14 0 19 -2 13 -5z m92 -53 c-11 -5
-31 -8 -45 -8 -23 0 -22 1 5 8 42 11 65 11 40 0z m-6 -113 c-2 -1 -13 -9 -24
-17 -19 -14 -19 -14 -6 3 7 9 18 17 24 17 6 0 8 -1 6 -3z m1144 -74 c45 -43
81 -81 80 -84 -1 -4 13 -24 31 -45 40 -47 89 -124 79 -124 -5 1 -26 26 -48 57
-35 50 -200 228 -181 196 11 -19 1 -16 -15 4 -10 11 -10 14 -1 9 21 -13 13 7
-15 36 -56 58 -8 25 70 -49z m-99 38 c-2 -3 -12 3 -22 13 -16 17 -16 18 5 5
12 -7 20 -15 17 -18z m-784 9 c0 -5 -5 -10 -11 -10 -5 0 -7 5 -4 10 3 6 8 10
11 10 2 0 4 -4 4 -10z m681 -7 c13 -16 12 -17 -3 -4 -10 7 -18 15 -18 17 0 8
8 3 21 -13z m603 1 c3 -8 2 -12 -4 -9 -6 3 -10 10 -10 16 0 14 7 11 14 -7z
m697 -7 c-10 -9 -11 -8 -5 6 3 10 9 15 12 12 3 -3 0 -11 -7 -18z m-1483 0 c38
1 52 -3 52 -13 0 -10 -10 -12 -41 -8 -37 6 -41 4 -35 -11 6 -16 4 -16 -10 -4
-9 8 -22 14 -28 14 -6 1 -19 5 -28 9 -25 11 -11 28 15 20 12 -4 46 -7 75 -7z
m-763 -61 c-36 -56 -61 -81 -29 -28 38 61 59 91 62 87 2 -1 -13 -28 -33 -59z
m849 48 c4 -10 1 -14 -6 -12 -15 5 -23 28 -10 28 5 0 13 -7 16 -16z m1440 -15
c-8 -14 -34 -11 -34 4 0 8 3 17 7 20 9 9 34 -13 27 -24z m-2153 -6 c-12 -20
-14 -14 -5 12 4 9 9 14 11 11 3 -2 0 -13 -6 -23z m32 -3 c-3 -11 -10 -23 -16
-27 -5 -3 -8 -2 -5 3 3 5 8 17 11 27 9 24 16 22 10 -3z m512 0 c3 -5 1 -10 -4
-10 -6 0 -11 5 -11 10 0 6 2 10 4 10 3 0 8 -4 11 -10z m299 -63 c46 -73 60
-101 47 -93 -12 8 -101 141 -101 151 0 15 23 -10 54 -58z m51 -18 c32 -44 55
-83 52 -85 -5 -6 -116 145 -117 159 0 16 11 3 65 -74z m-131 55 c3 -8 2 -12
-4 -9 -6 3 -10 10 -10 16 0 14 7 11 14 -7z m405 -61 c2 -2 0 -3 -6 -3 -6 0
-30 18 -54 41 l-44 41 50 -38 c28 -21 52 -40 54 -41z m1204 32 c-3 -17 -27
-17 -48 0 -19 15 -18 15 15 13 19 -2 34 -7 33 -13z m-2404 -54 c-12 -29 -23
-50 -25 -48 -3 2 5 27 17 56 12 28 24 50 26 47 2 -2 -6 -27 -18 -55z m2231 49
c-19 -13 -30 -13 -30 0 0 6 10 10 23 10 18 0 19 -2 7 -10z m-1405 -30 c22 -42
18 -51 -5 -12 -20 33 -24 42 -15 42 2 0 11 -13 20 -30z m-2685 10 c0 -5 -2
-10 -4 -10 -3 0 -8 5 -11 10 -3 6 -1 10 4 10 6 0 11 -4 11 -10z m3049 -40 c24
-22 40 -40 35 -40 -13 1 -101 79 -89 79 6 0 30 -18 54 -39z m1028 22 c-11 -2
-16 -9 -13 -18 3 -9 -1 -14 -13 -14 -14 0 -18 -5 -14 -18 3 -12 -4 -22 -22
-30 -22 -10 -24 -15 -15 -32 9 -18 8 -20 -15 -20 -16 0 -25 6 -25 15 0 8 5 15
10 15 6 0 10 6 10 13 0 7 9 18 20 25 11 7 20 17 20 24 0 18 44 55 60 49 12 -4
11 -6 -3 -9z m-1837 -12 c0 -5 -4 -10 -10 -10 -5 0 -10 5 -10 10 0 6 5 10 10
10 6 0 10 -4 10 -10z m-459 -43 c-10 -9 -11 -8 -5 6 3 10 9 15 12 12 3 -3 0
-11 -7 -18z m2354 -7 c3 -5 1 -10 -4 -10 -6 0 -11 5 -11 10 0 6 2 10 4 10 3 0
8 -4 11 -10z m-1014 -27 c13 -16 12 -17 -3 -4 -17 13 -22 21 -14 21 2 0 10 -8
17 -17z m-1310 -30 c-12 -20 -14 -14 -5 12 4 9 9 14 11 11 3 -2 0 -13 -6 -23z
m1389 2 c7 -9 8 -15 2 -15 -5 0 -12 7 -16 15 -3 8 -4 15 -2 15 2 0 9 -7 16
-15z m-1190 -35 c0 -5 -5 -10 -11 -10 -5 0 -7 5 -4 10 3 6 8 10 11 10 2 0 4
-4 4 -10z m1950 -17 c0 -11 -4 -11 -20 -3 -11 6 -20 15 -20 19 0 5 9 7 20 4
11 -3 20 -12 20 -20z m-3436 -108 c-4 -8 -8 -15 -10 -15 -2 0 -4 7 -4 15 0 8
4 15 10 15 5 0 7 -7 4 -15z m1791 -155 c-9 -28 -10 -223 -1 -305 8 -73 42
-174 63 -188 7 -4 13 -19 13 -32 0 -13 5 -27 11 -31 6 -3 9 -14 6 -23 -2 -9 2
-22 10 -29 7 -7 13 -22 13 -32 0 -11 7 -20 15 -20 8 0 18 -12 21 -27 4 -15 11
-32 16 -38 4 -5 22 -26 38 -45 18 -21 27 -42 24 -52 -4 -13 -1 -16 10 -12 11
4 16 0 16 -15 0 -14 5 -19 15 -15 8 4 16 1 16 -5 1 -6 2 -14 3 -18 0 -5 10
-17 21 -29 42 -45 55 -65 55 -90 0 -26 -28 -84 -41 -84 -4 0 -10 -12 -15 -27
l-7 -28 -7 30 -7 30 -12 -26 c-15 -31 -57 -55 -64 -36 -3 8 -11 6 -27 -8 -16
-14 -24 -16 -27 -7 -3 6 -20 12 -39 12 -23 0 -44 8 -62 25 -15 14 -35 25 -44
25 -10 0 -20 10 -24 25 -3 14 -10 25 -15 25 -5 0 -9 15 -9 33 0 18 -6 41 -14
52 -19 28 -26 96 -41 390 -4 77 -9 142 -10 145 -2 3 0 26 5 50 7 41 17 124 25
205 1 17 4 30 5 30 1 0 3 15 6 34 2 19 8 39 13 45 5 6 14 28 20 49 7 20 17 37
22 37 6 0 8 -9 4 -20z m1890 -102 c6 -4 2 -8 -7 -8 -10 0 -18 7 -18 17 0 9 3
12 8 7 4 -5 12 -12 17 -16z m-32 -38 c-3 -11 -9 -20 -13 -20 -5 0 -6 9 -3 20
3 11 9 20 13 20 5 0 6 -9 3 -20z m-3128 0 c3 -5 1 -10 -4 -10 -6 0 -11 5 -11
10 0 6 2 10 4 10 3 0 8 -4 11 -10z m339 -26 c9 -22 -3 -32 -14 -14 -12 19 -12
30 -1 30 5 0 12 -7 15 -16z m2891 -6 c6 -4 2 -8 -7 -8 -10 0 -18 7 -18 17 0 9
3 12 8 7 4 -5 12 -12 17 -16z m-4695 2 c0 -5 -2 -10 -4 -10 -3 0 -8 5 -11 10
-3 6 -1 10 4 10 6 0 11 -4 11 -10z m955 -31 c4 -6 5 -12 2 -15 -7 -7 -37 7
-37 17 0 13 27 11 35 -2z m2457 -26 c-3 -16 -7 -22 -10 -15 -4 13 4 42 11 42
2 0 2 -12 -1 -27z m-2797 7 c3 -5 1 -10 -4 -10 -6 0 -11 5 -11 10 0 6 2 10 4
10 3 0 8 -4 11 -10z m-491 -15 c-4 -8 -8 -15 -10 -15 -2 0 -4 7 -4 15 0 8 4
15 10 15 5 0 7 -7 4 -15z m533 -15 c2 -22 -4 -24 -26 -11 -11 7 -10 11 5 20
11 6 19 11 19 11 1 0 1 -9 2 -20z m-65 -30 c-11 -12 -26 -19 -32 -15 -8 5 -4
15 11 31 14 15 26 21 32 15 6 -6 2 -18 -11 -31z m1248 15 c0 -8 -4 -15 -10
-15 -5 0 -10 7 -10 15 0 8 5 15 10 15 6 0 10 -7 10 -15z m-880 -5 c0 -5 -2
-10 -4 -10 -3 0 -8 5 -11 10 -3 6 -1 10 4 10 6 0 11 -4 11 -10z m-860 -20 c0
-5 -4 -10 -10 -10 -5 0 -10 5 -10 10 0 6 5 10 10 10 6 0 10 -4 10 -10z m640
-6 c0 -8 -5 -12 -10 -9 -6 4 -8 11 -5 16 9 14 15 11 15 -7z m-263 -16 c-3 -8
-6 -5 -6 6 -1 11 2 17 5 13 3 -3 4 -12 1 -19z m-17 -82 c0 -11 -19 -15 -25 -6
-3 5 1 10 9 10 9 0 16 -2 16 -4z m80 -45 c30 -6 32 -8 14 -14 -12 -4 -33 -1
-52 9 -33 16 -45 32 -14 19 9 -4 33 -11 52 -14z m4110 -31 c0 -5 -4 -10 -10
-10 -5 0 -10 5 -10 10 0 6 5 10 10 10 6 0 10 -4 10 -10z m-3305 -10 c3 -5 1
-10 -4 -10 -6 0 -11 5 -11 10 0 6 2 10 4 10 3 0 8 -4 11 -10z m135 -6 c0 -2
-9 -4 -20 -4 -11 0 -20 4 -20 9 0 5 9 7 20 4 11 -3 20 -7 20 -9z m3120 -24 c0
-5 -5 -10 -11 -10 -5 0 -7 5 -4 10 3 6 8 10 11 10 2 0 4 -4 4 -10z m-55 -21
c-3 -3 -27 -9 -54 -13 -37 -5 -50 -11 -54 -26 -6 -24 -3 -25 16 -5 13 13 16
13 21 -1 3 -8 2 -12 -4 -9 -6 3 -10 -3 -10 -14 0 -11 -4 -23 -10 -26 -6 -4 -7
1 -3 11 5 14 3 16 -11 11 -10 -4 -27 -1 -39 5 -12 7 -25 12 -29 13 -5 0 -8 3
-8 8 0 4 0 12 0 18 0 5 5 7 10 4 6 -3 10 -1 10 4 0 6 4 11 10 11 5 0 7 -7 4
-15 -4 -8 -1 -15 5 -15 6 0 11 7 11 15 0 9 6 12 17 8 9 -4 14 -2 10 3 -3 6 8
11 26 12 17 2 32 4 34 5 6 6 51 3 48 -4z m-435 -29 c0 -5 -2 -10 -4 -10 -3 0
-8 5 -11 10 -3 6 -1 10 4 10 6 0 11 -4 11 -10z m107 -9 c0 -11 -5 -17 -9 -15
-11 7 -10 34 1 34 6 0 9 -9 8 -19z m309 8 c10 -17 -17 -29 -33 -14 -7 8 -13
16 -13 19 0 11 39 6 46 -5z m-3171 -9 c3 -5 1 -10 -4 -10 -6 0 -11 5 -11 10 0
6 2 10 4 10 3 0 8 -4 11 -10z m2911 -2 c-10 -6 -22 -6 -26 -2 -5 5 3 10 18 11
22 1 24 0 8 -9z m-141 -38 c-4 -12 -9 -19 -12 -17 -3 3 -2 15 2 27 4 12 9 19
12 17 3 -3 2 -15 -2 -27z m185 -5 c0 -8 -4 -15 -10 -15 -5 0 -7 7 -4 15 4 8 8
15 10 15 2 0 4 -7 4 -15z m-3835 -5 c3 -5 -1 -10 -9 -10 -8 0 -18 5 -21 10 -3
6 1 10 9 10 8 0 18 -4 21 -10z m3865 -11 c0 -5 -4 -9 -8 -9 -5 0 -9 7 -9 15 0
8 4 12 9 9 4 -3 8 -9 8 -15z m-280 -11 c0 -4 -11 -7 -24 -6 -14 1 -23 5 -21 8
5 9 45 7 45 -2z m-3603 -70 c29 -11 45 -28 26 -28 -16 0 -73 25 -73 32 0 11 8
10 47 -4z m3633 -8 c0 -5 -5 -10 -11 -10 -5 0 -7 5 -4 10 3 6 8 10 11 10 2 0
4 -4 4 -10z m-3450 -15 c0 -9 6 -12 18 -9 14 5 14 3 -3 -11 -18 -14 -20 -14
-23 -1 -2 9 -10 16 -18 16 -8 0 -12 5 -9 10 9 15 35 12 35 -5z m3113 -85 c-3
-11 -10 -20 -15 -20 -6 0 -7 7 -4 16 3 9 6 20 6 25 0 6 4 8 9 5 5 -3 7 -15 4
-26z m34 15 c0 -8 -4 -12 -9 -9 -5 3 -6 10 -3 15 9 13 12 11 12 -6z m1048 5
c3 -5 1 -10 -4 -10 -6 0 -11 5 -11 10 0 6 2 10 4 10 3 0 8 -4 11 -10z m-2488
-192 c-3 -8 -6 -5 -6 6 -1 11 2 17 5 13 3 -3 4 -12 1 -19z m313 12 c0 -5 -4
-10 -10 -10 -5 0 -10 5 -10 10 0 6 5 10 10 10 6 0 10 -4 10 -10z m880 -14 c0
-2 -8 -10 -17 -17 -16 -13 -17 -12 -4 4 13 16 21 21 21 13z m-846 -77 c8 -37
29 -72 75 -120 27 -29 49 -57 48 -63 -1 -6 8 -12 20 -14 12 -2 27 -10 33 -18
7 -8 21 -14 31 -14 11 0 20 -7 21 -15 0 -8 1 -19 2 -25 1 -5 -3 -11 -9 -12
-12 -4 -45 -67 -45 -86 0 -10 7 -12 25 -8 22 6 26 3 32 -25 5 -28 8 -30 18
-15 16 21 25 20 25 -4 0 -10 -9 -24 -20 -30 -10 -6 -24 -28 -30 -50 -10 -36
-30 -56 -30 -29 0 5 -5 7 -10 4 -6 -4 -8 -10 -5 -15 3 -5 1 -11 -5 -15 -5 -3
-10 3 -10 14 0 20 -10 25 -38 22 -15 -2 -42 23 -42 40 0 6 -8 17 -17 24 -9 7
-18 18 -19 26 -2 8 -8 32 -14 54 -6 22 -14 51 -17 65 -3 14 -10 30 -14 36 -5
6 -9 33 -10 60 -1 27 -5 54 -9 59 -10 13 -22 170 -13 179 8 8 23 -6 27 -25z
m779 -6 c-3 -7 -9 -13 -14 -13 -5 0 -9 6 -9 13 0 8 6 14 14 14 8 0 12 -6 9
-14z m167 -193 c0 -5 -4 -10 -10 -10 -5 0 -10 5 -10 10 0 6 5 10 10 10 6 0 10
-4 10 -10z m-644 -227 c-11 -11 -19 6 -11 24 8 17 8 17 12 0 3 -10 2 -21 -1
-24z m-1956 -3 c0 -5 -4 -10 -10 -10 -5 0 -10 5 -10 10 0 6 5 10 10 10 6 0 10
-4 10 -10z m1620 -70 c0 -5 -4 -10 -10 -10 -5 0 -10 5 -10 10 0 6 5 10 10 10
6 0 10 -4 10 -10z m338 -40 c-7 -11 -16 -20 -19 -20 -4 0 -5 9 -2 20 3 11 12
20 19 20 12 0 12 -4 2 -20z m-2504 1 c6 -10 -43 -25 -52 -16 -3 3 2 5 11 5 10
0 17 5 17 10 0 12 17 13 24 1z m2701 -11 c-3 -5 -11 -10 -16 -10 -6 0 -7 5 -4
10 3 6 11 10 16 10 6 0 7 -4 4 -10z m-2627 -44 c-7 -8 -17 -12 -22 -9 -4 3 -2
9 5 14 22 13 31 11 17 -5z m122 -100 c0 -3 -4 -8 -10 -11 -5 -3 -10 -1 -10 4
0 6 5 11 10 11 6 0 10 -2 10 -4z m460 -51 c10 -12 10 -18 0 -30 -19 -23 -40
-18 -40 8 0 38 18 48 40 22z m-555 -25 c3 -5 1 -10 -4 -10 -6 0 -11 5 -11 10
0 6 2 10 4 10 3 0 8 -4 11 -10z m505 -34 c0 -3 -4 -8 -10 -11 -5 -3 -10 -1
-10 4 0 6 5 11 10 11 6 0 10 -2 10 -4z m3580 -21 c0 -8 -7 -15 -15 -15 -8 0
-15 7 -15 15 0 8 7 15 15 15 8 0 15 -7 15 -15z m-2554 -16 c9 -15 -11 -33 -30
-26 -9 4 -13 13 -10 22 7 17 30 20 40 4z m-1200 -74 c1 -7 -4 -16 -12 -19 -10
-4 -13 1 -10 17 3 12 5 24 5 26 2 9 15 -10 17 -24z m694 0 c0 -7 -7 -16 -15
-19 -20 -7 -33 23 -14 34 16 10 29 4 29 -15z m-1290 -45 c0 -5 -4 -10 -10 -10
-5 0 -10 5 -10 10 0 6 5 10 10 10 6 0 10 -4 10 -10z"/>
<path d="M2688 4343 c7 -3 16 -2 19 1 4 3 -2 6 -13 5 -11 0 -14 -3 -6 -6z"/>
<path d="M3790 4316 c0 -8 7 -16 15 -20 17 -6 18 -4 9 18 -8 20 -24 21 -24 2z"/>
<path d="M3906 4297 c3 -10 9 -15 12 -12 3 3 0 11 -7 18 -10 9 -11 8 -5 -6z"/>
<path d="M2561 4002 c-7 -13 -11 -26 -8 -28 8 -8 29 25 25 38 -3 8 -9 4 -17
-10z"/>
<path d="M2738 3983 c-40 -16 -43 -20 -29 -42 7 -11 10 -11 17 1 5 7 22 24 38
36 33 26 26 27 -26 5z"/>
<path d="M2634 3918 l-19 -23 23 19 c12 11 22 21 22 23 0 8 -8 2 -26 -19z"/>
<path d="M2572 3878 c-17 -17 -15 -48 3 -48 8 0 21 14 30 30 15 28 14 30 -3
30 -10 0 -23 -5 -30 -12z"/>
<path d="M2690 3712 c6 -13 14 -21 18 -18 3 4 -2 14 -12 24 -18 16 -18 16 -6
-6z"/>
<path d="M2495 3270 c-10 -11 -13 -20 -7 -20 6 0 16 9 22 20 6 11 9 20 7 20
-2 0 -12 -9 -22 -20z"/>
<path d="M2449 2989 c-13 -13 -14 -20 -5 -29 8 -10 8 -14 -1 -17 -25 -9 15
-60 64 -84 27 -12 55 -26 65 -30 13 -7 15 -5 11 11 -3 11 -9 20 -13 20 -4 0
-15 18 -25 40 -10 22 -25 40 -34 40 -11 0 -12 3 -4 11 16 16 4 46 -20 51 -12
2 -29 -4 -38 -13z"/>
<path d="M2420 2896 c0 -11 33 -60 49 -75 11 -9 13 -15 4 -18 -8 -3 -6 -15 8
-41 12 -20 24 -40 27 -44 10 -10 138 -21 161 -13 32 10 25 25 -7 19 -34 -7
-147 23 -163 42 -15 19 10 19 54 1 46 -20 87 -29 87 -20 0 5 -28 21 -61 37
-33 16 -83 49 -110 73 -27 25 -49 42 -49 39z"/>
<path d="M2737 2703 c-4 -3 -7 -13 -7 -22 1 -13 3 -13 11 2 11 19 8 33 -4 20z"/>
<path d="M3480 3960 c0 -5 5 -10 10 -10 6 0 10 5 10 10 0 6 -4 10 -10 10 -5 0
-10 -4 -10 -10z"/>
<path d="M3272 3826 c1 -10 8 -17 13 -17 15 1 12 24 -3 29 -9 3 -13 -2 -10
-12z"/>
<path d="M3460 3310 c0 -19 24 -28 46 -18 33 15 30 23 -11 24 -19 0 -35 -2
-35 -6z"/>
<path d="M2985 3320 c-3 -5 -1 -10 4 -10 6 0 11 5 11 10 0 6 -2 10 -4 10 -3 0
-8 -4 -11 -10z"/>
<path d="M2966 3233 c-6 -14 -5 -15 5 -6 7 7 10 15 7 18 -3 3 -9 -2 -12 -12z"/>
<path d="M2725 3220 c-3 -6 1 -7 9 -4 18 7 21 14 7 14 -6 0 -13 -4 -16 -10z"/>
<path d="M2718 3193 c6 -2 18 -2 25 0 6 3 1 5 -13 5 -14 0 -19 -2 -12 -5z"/>
<path d="M2680 3173 c0 -5 8 -17 17 -28 15 -19 15 -19 9 -1 -4 12 -1 23 6 28
9 5 6 8 -9 8 -13 0 -23 -3 -23 -7z"/>
<path d="M3450 3113 c0 -6 9 -18 20 -28 11 -10 17 -21 15 -26 -3 -4 -1 -10 5
-14 11 -7 13 25 2 40 -13 19 -42 37 -42 28z"/>
<path d="M4410 3030 c0 -5 5 -10 11 -10 5 0 7 5 4 10 -3 6 -8 10 -11 10 -2 0
-4 -4 -4 -10z"/>
<path d="M2935 2461 c-11 -5 -23 -7 -27 -4 -5 2 -8 -3 -8 -11 0 -12 5 -13 30
-5 17 6 30 15 30 20 0 5 -1 9 -2 8 -2 0 -12 -4 -23 -8z"/>
<path d="M4684 2346 c0 -13 4 -22 9 -19 10 6 9 43 -2 43 -5 0 -8 -11 -7 -24z"/>
<path d="M4660 2301 c0 -9 24 -21 41 -21 5 0 9 7 9 15 0 9 -9 15 -25 15 -14 0
-25 -4 -25 -9z"/>
<path d="M4650 2270 c0 -5 4 -10 9 -10 6 0 13 5 16 10 3 6 -1 10 -9 10 -9 0
-16 -4 -16 -10z"/>
<path d="M4605 2220 c-3 -5 -1 -10 4 -10 6 0 11 5 11 10 0 6 -2 10 -4 10 -3 0
-8 -4 -11 -10z"/>
<path d="M4418 2033 c7 -3 16 -2 19 1 4 3 -2 6 -13 5 -11 0 -14 -3 -6 -6z"/>
<path d="M4401 2006 c-8 -9 -22 -16 -32 -16 -10 0 -21 -9 -24 -20 -3 -11 -11
-20 -16 -20 -15 0 -128 -118 -120 -126 3 -4 -2 -5 -11 -1 -18 6 -31 -15 -22
-38 8 -20 14 -19 44 8 14 12 20 18 13 14 -7 -5 -17 -7 -24 -5 -6 2 15 26 47
53 33 27 63 55 67 62 4 7 14 13 20 13 7 0 24 13 37 30 27 31 45 38 53 18 3 -7
6 -8 6 -2 1 5 -5 18 -12 28 -12 16 -14 16 -26 2z"/>
<path d="M4138 1928 c-23 -29 -50 -61 -58 -72 -8 -10 -25 -28 -37 -39 -26 -23
-29 -37 -10 -37 14 0 47 35 47 50 0 6 4 10 9 10 5 0 12 8 15 18 3 9 16 28 28
42 26 28 61 80 54 80 -2 0 -24 -24 -48 -52z"/>
<path d="M4422 1953 c1 -5 -4 -26 -10 -48 -7 -22 -12 -44 -12 -50 1 -12 23 25
26 41 5 31 16 54 25 49 5 -4 9 -1 9 4 0 6 -9 11 -20 11 -11 0 -19 -3 -18 -7z"/>
<path d="M4547 1879 c4 -13 8 -18 11 -10 2 7 -1 18 -6 23 -8 8 -9 4 -5 -13z"/>
<path d="M4343 1868 c-6 -8 -7 -22 -2 -33 6 -17 8 -17 8 -2 1 25 19 21 24 -5
4 -21 4 -20 6 3 1 33 -21 55 -36 37z"/>
<path d="M4455 1870 c-8 -13 4 -32 16 -25 12 8 12 35 0 35 -6 0 -13 -4 -16
-10z"/>
<path d="M4775 1860 c-3 -5 -1 -10 4 -10 6 0 11 5 11 10 0 6 -2 10 -4 10 -3 0
-8 -4 -11 -10z"/>
<path d="M4289 1860 c0 -3 -2 -15 -5 -27 -2 -13 0 -23 5 -23 14 0 20 25 10 41
-5 8 -9 12 -10 9z"/>
<path d="M4421 1853 c2 -22 15 -41 25 -35 6 5 4 13 -8 25 -10 9 -18 14 -17 10z"/>
<path d="M4485 1831 c-3 -5 -1 -12 5 -16 5 -3 10 1 10 9 0 18 -6 21 -15 7z"/>
<path d="M3167 1794 c-4 -4 -7 -14 -7 -23 0 -11 3 -12 11 -4 6 6 10 16 7 23
-2 6 -7 8 -11 4z"/>
<path d="M4277 1786 c-4 -10 -1 -13 7 -10 15 6 30 -22 20 -38 -3 -5 -12 -1
-20 9 -13 17 -13 17 -14 -4 0 -25 -15 -31 -23 -10 -4 7 -8 3 -13 -11 -4 -14
-12 -21 -20 -18 -8 3 -14 1 -14 -5 0 -6 -7 -6 -20 1 -11 6 -19 7 -18 3 1 -4
-3 -17 -9 -29 -7 -12 -8 -25 -2 -35 7 -11 9 -9 9 9 0 13 3 21 8 19 4 -3 18 0
32 6 14 5 33 11 43 12 11 1 22 7 27 14 4 7 10 12 14 12 3 -1 8 0 11 0 3 1 11
2 17 3 17 1 22 34 8 51 -8 10 -8 14 2 18 8 2 9 8 4 13 -5 5 -11 4 -13 -4 -4
-9 -9 -10 -18 -2 -9 8 -14 7 -18 -4z"/>
<path d="M4135 1750 c3 -5 8 -10 11 -10 2 0 4 5 4 10 0 6 -5 10 -11 10 -5 0
-7 -4 -4 -10z"/>
<path d="M3180 1720 c0 -18 4 -29 10 -25 6 4 10 -9 10 -31 0 -21 3 -34 8 -30
4 4 7 23 7 41 0 18 -3 31 -7 28 -5 -2 -8 5 -8 16 0 11 -4 23 -10 26 -6 4 -10
-7 -10 -25z"/>
<path d="M4205 1730 c3 -5 8 -10 11 -10 2 0 4 5 4 10 0 6 -5 10 -11 10 -5 0
-7 -4 -4 -10z"/>
<path d="M3908 1677 c-73 -84 -88 -102 -88 -112 0 -5 10 3 23 19 12 15 41 49
64 75 36 39 51 61 41 61 -2 0 -20 -19 -40 -43z"/>
<path d="M4470 1625 c-1 -5 -3 -22 -5 -37 -2 -16 0 -28 5 -28 15 0 22 39 11
57 -6 10 -11 14 -11 8z"/>
<path d="M4307 1585 c-4 -8 -2 -17 3 -20 6 -4 10 3 10 14 0 25 -6 27 -13 6z"/>
<path d="M3807 1543 c-4 -3 -7 -11 -7 -17 0 -6 5 -5 12 2 6 6 9 14 7 17 -3 3
-9 2 -12 -2z"/>
<path d="M3625 1360 c-3 -5 -1 -10 4 -10 6 0 11 5 11 10 0 6 -2 10 -4 10 -3 0
-8 -4 -11 -10z"/>
<path d="M3825 1241 c-3 -5 -1 -12 5 -16 5 -3 10 1 10 9 0 18 -6 21 -15 7z"/>
<path d="M3543 985 c-3 -9 -3 -18 -1 -21 3 -3 8 4 11 16 6 23 -1 27 -10 5z"/>
<path d="M360 4719 c0 -5 5 -7 10 -4 6 3 10 8 10 11 0 2 -4 4 -10 4 -5 0 -10
-5 -10 -11z"/>
<path d="M8 2063 c7 -3 16 -2 19 1 4 3 -2 6 -13 5 -11 0 -14 -3 -6 -6z"/>
<path d="M482 2020 c-8 -13 -8 -20 -1 -20 5 0 7 -4 4 -10 -5 -9 15 -15 38 -11
4 0 7 -3 7 -9 0 -5 -6 -10 -12 -10 -9 0 -8 -3 2 -10 9 -6 17 -5 22 3 6 9 8 9
8 0 0 -7 7 -13 15 -13 9 0 15 -7 13 -16 -2 -10 3 -19 11 -22 8 -3 11 0 7 7 -5
8 0 8 18 1 18 -6 26 -6 26 1 0 6 -9 13 -20 16 -25 7 -26 20 -2 26 10 2 3 7
-19 11 -30 6 -36 11 -32 27 4 15 1 18 -11 13 -11 -4 -16 -1 -16 10 0 9 -4 16
-10 16 -5 0 -7 -7 -4 -15 5 -11 2 -13 -9 -9 -9 3 -13 12 -10 20 8 21 -10 17
-25 -6z"/>
<path d="M735 1979 c-4 -6 -5 -13 -2 -16 7 -7 27 6 27 18 0 12 -17 12 -25 -2z"/>
<path d="M398 1973 c7 -3 16 -2 19 1 4 3 -2 6 -13 5 -11 0 -14 -3 -6 -6z"/>
<path d="M690 1966 c0 -2 7 -6 15 -10 8 -3 15 -1 15 4 0 6 -7 10 -15 10 -8 0
-15 -2 -15 -4z"/>
<path d="M345 1931 c-3 -6 1 -14 9 -17 9 -3 13 -10 10 -15 -3 -5 5 -9 17 -9
l22 0 -21 -19 c-27 -23 -28 -31 -3 -24 11 3 21 -2 24 -11 4 -9 2 -16 -3 -16
-6 0 -10 -4 -10 -10 0 -5 11 -10 25 -10 25 0 33 14 15 25 -6 4 -8 15 -5 26 4
12 2 19 -6 19 -10 0 -10 3 0 13 11 10 14 10 18 0 3 -7 11 -13 19 -13 8 0 14
-3 14 -7 0 -11 51 -33 61 -27 18 11 8 26 -12 21 -15 -4 -23 0 -26 13 -4 17
-38 29 -97 35 -10 1 -25 10 -32 19 -8 11 -14 13 -19 7z"/>
<path d="M450 1930 c0 -6 7 -10 15 -10 8 0 15 2 15 4 0 2 -7 6 -15 10 -8 3
-15 1 -15 -4z"/>
<path d="M727 1919 c7 -7 15 -10 18 -7 3 3 -2 9 -12 12 -14 6 -15 5 -6 -5z"/>
<path d="M715 1890 c3 -5 10 -10 16 -10 5 0 9 5 9 10 0 6 -7 10 -16 10 -8 0
-12 -4 -9 -10z"/>
<path d="M550 1880 c0 -5 5 -10 10 -10 6 0 10 5 10 10 0 6 -4 10 -10 10 -5 0
-10 -4 -10 -10z"/>
<path d="M460 1831 c0 -19 12 -41 20 -36 5 3 11 1 15 -5 8 -13 25 -13 25 1 0
5 -4 7 -10 4 -5 -3 -10 0 -10 7 0 7 -9 19 -20 26 -11 7 -20 8 -20 3z"/>
<path d="M430 1790 c-12 -8 -10 -10 8 -10 13 0 20 4 17 10 -7 12 -6 12 -25 0z"/>
<path d="M1585 1730 c-8 -13 -1 -24 14 -19 6 3 7 10 2 18 -6 10 -10 10 -16 1z"/>
<path d="M1628 1643 c7 -3 16 -2 19 1 4 3 -2 6 -13 5 -11 0 -14 -3 -6 -6z"/>
</g>
</svg>
