<svg width="1692.630078125px" height="390.17509765625px" xmlns="http://www.w3.org/2000/svg" viewBox="-596.3150390625 -120.087548828125 1692.630078125 390.17509765625" style="background-color: rgba(0, 0, 0, 0);" preserveAspectRatio="xMidYMid"><defs><linearGradient id="editing-gradow-gradient" x1="0" x2="1" y1="0.5" y2="0.5" gradientUnits="objectBoundingBox"><stop offset="0" stop-color="#f0f"></stop><stop offset="1" stop-color="#0ff"></stop></linearGradient><filter id="editing-gradow-filter" x="-100%" y="-100%" width="300%" height="300%"><feFlood flood-color="#fffcd9" result="flood"></feFlood><feComposite operator="in" in2="SourceAlpha" in="flood" result="shadow"></feComposite><feOffset dx="4.5" dy="-4" in="SourceGraphic" result="offset-1"></feOffset><feOffset dx="-4.5" dy="4" in="shadow" result="offset-2"></feOffset><feMerge><feMergeNode in="offset-2"></feMergeNode><feMergeNode in="offset-1"></feMergeNode></feMerge></filter></defs><g filter="url(#editing-gradow-filter)"><g transform="translate(-360.15501713752747, 155.85687255859375)"><path d="M131.74 0L113.09 0L94.63-47.75L39.06-47.75L20.61 0L1.95 0L57.62-140.43L76.07-140.43L131.74 0ZM66.80-119.92L44.82-62.79L88.87-62.79L66.80-119.92ZM153.61 0L153.61-140.43L171.97-140.43L171.97 0L153.61 0ZM277.54 20.70L274.80 20.70L274.80 20.70Q265.04 20.70 256.05 18.16L256.05 18.16L256.05 18.16Q247.07 15.63 239.26 11.08L239.26 11.08L239.26 11.08Q231.45 6.54 225.05 0.10L225.05 0.10L225.05 0.10Q218.65-6.35 214.06-14.21L214.06-14.21L214.06-14.21Q209.47-22.07 206.98-31.05L206.98-31.05L206.98-31.05Q204.49-40.04 204.49-49.80L204.49-49.80L204.49-49.80Q204.49-59.57 206.98-68.55L206.98-68.55L206.98-68.55Q209.47-77.54 214.06-85.40L214.06-85.40L214.06-85.40Q218.65-93.26 225.05-99.71L225.05-99.71L225.05-99.71Q231.45-106.15 239.26-110.69L239.26-110.69L239.26-110.69Q247.07-115.23 256.05-117.77L256.05-117.77L256.05-117.77Q265.04-120.31 274.80-120.31L274.80-120.31L274.80-120.31Q284.47-120.31 293.46-117.77L293.46-117.77L293.46-117.77Q302.44-115.23 310.30-110.64L310.30-110.64L310.30-110.64Q318.16-106.05 324.61-99.61L324.61-99.61L324.61-99.61Q331.05-93.16 335.64-85.30L335.64-85.30L335.64-85.30Q340.23-77.44 342.77-68.46L342.77-68.46L342.77-68.46Q345.31-59.47 345.31-49.80L345.31-49.80L345.31-49.80Q345.31-30.47 335.25-20.90L335.25-20.90L335.25-20.90Q325.20-11.33 304.30-11.33L304.30-11.33L304.30-11.33Q301.07-11.33 297.51-11.57L297.51-11.57L297.51-11.57Q293.95-11.82 290.23-12.30L290.23-12.30L290.23-12.30Q289.45-15.23 289.06-17.38L289.06-17.38L289.06-17.38Q288.87-18.16 288.82-18.95L288.82-18.95L288.82-18.95Q288.77-19.73 288.67-20.51L288.67-20.51L288.67-20.51Q288.57-21.19 288.57-22.51L288.57-22.51L288.57-22.51Q288.57-23.83 288.57-25.59L288.57-25.59L288.57-25.59Q288.57-29.00 288.62-31.69L288.62-31.69L288.62-31.69Q288.67-34.38 288.67-36.13L288.67-36.13L287.70-36.33L287.70-36.33Q286.23-31.15 284.03-26.71L284.03-26.71L284.03-26.71Q281.84-22.27 278.86-18.90L278.86-18.90L278.86-18.90Q275.88-15.53 272.07-13.62L272.07-13.62L272.07-13.62Q268.26-11.72 263.57-11.72L263.57-11.72L263.57-11.72Q259.08-11.72 255.71-13.53L255.71-13.53L255.71-13.53Q252.34-15.33 249.95-18.36L249.95-18.36L249.95-18.36Q247.56-21.39 246.04-25.29L246.04-25.29L246.04-25.29Q244.53-29.20 243.85-33.50L243.85-33.50L243.85-33.50Q243.36-36.33 243.12-39.21L243.12-39.21L243.12-39.21Q242.87-42.09 242.87-45.21L242.87-45.21L242.87-45.21Q242.87-52.73 244.63-60.21L244.63-60.21L244.63-60.21Q246.39-67.68 250.49-73.63L250.49-73.63L250.49-73.63Q254.59-79.59 261.43-83.30L261.43-83.30L261.43-83.30Q268.26-87.01 278.42-87.01L278.42-87.01L278.42-87.01Q288.87-87.01 302.73-83.69L302.73-83.69L301.66-57.42L301.66-57.42Q301.56-54.98 301.46-51.07L301.46-51.07L301.46-51.07Q301.37-47.17 301.22-42.97L301.22-42.97L301.22-42.97Q301.07-38.77 300.98-34.72L300.98-34.72L300.98-34.72Q300.88-30.66 300.88-27.93L300.88-27.93L300.88-27.93Q300.88-26.86 300.88-25.98L300.88-25.98L300.88-25.98Q300.88-25.10 300.98-24.51L300.98-24.51L300.98-24.51Q300.98-24.02 300.98-23.54L300.98-23.54L300.98-23.54Q300.98-23.05 301.07-22.56L301.07-22.56L301.07-22.56Q303.03-22.27 304.74-22.22L304.74-22.22L304.74-22.22Q306.45-22.17 308.20-22.17L308.20-22.17L308.20-22.17Q314.45-22.17 319.14-24.22L319.14-24.22L319.14-24.22Q323.83-26.27 326.95-29.93L326.95-29.93L326.95-29.93Q330.08-33.59 331.64-38.67L331.64-38.67L331.64-38.67Q333.20-43.75 333.20-49.80L333.20-49.80L333.20-49.80Q333.20-57.81 331.10-65.23L331.10-65.23L331.10-65.23Q329.00-72.66 325.20-79.15L325.20-79.15L325.20-79.15Q321.39-85.64 316.02-91.02L316.02-91.02L316.02-91.02Q310.64-96.39 304.15-100.20L304.15-100.20L304.15-100.20Q297.66-104.00 290.23-106.10L290.23-106.10L290.23-106.10Q282.81-108.20 274.80-108.20L274.80-108.20L274.80-108.20Q266.80-108.20 259.38-106.10L259.38-106.10L259.38-106.10Q251.95-104.00 245.46-100.20L245.46-100.20L245.46-100.20Q238.96-96.39 233.59-91.02L233.59-91.02L233.59-91.02Q228.22-85.64 224.41-79.15L224.41-79.15L224.41-79.15Q220.61-72.66 218.51-65.23L218.51-65.23L218.51-65.23Q216.41-57.81 216.41-49.80L216.41-49.80L216.41-49.80Q216.41-41.80 218.51-34.38L218.51-34.38L218.51-34.38Q220.61-26.95 224.41-20.46L224.41-20.46L224.41-20.46Q228.22-13.96 233.59-8.59L233.59-8.59L233.59-8.59Q238.96-3.22 245.46 0.59L245.46 0.59L245.46 0.59Q251.95 4.39 259.38 6.49L259.38 6.49L259.38 6.49Q266.80 8.59 274.80 8.59L274.80 8.59L277.54 8.59L277.54 20.70ZM288.87-55.47L290.04-75.29L290.04-75.29Q287.60-75.68 285.11-75.98L285.11-75.98L285.11-75.98Q282.62-76.27 280.08-76.27L280.08-76.27L280.08-76.27Q272.36-76.27 267.43-73.44L267.43-73.44L267.43-73.44Q262.50-70.61 259.72-66.11L259.72-66.11L259.72-66.11Q256.93-61.62 255.86-56.05L255.86-56.05L255.86-56.05Q254.79-50.49 254.79-45.12L254.79-45.12L254.79-45.12Q254.79-39.06 255.66-34.28L255.66-34.28L255.66-34.28Q256.54-29.59 258.69-26.37L258.69-26.37L258.69-26.37Q260.84-23.14 265.23-23.14L265.23-23.14L265.23-23.14Q267.68-23.14 270.02-24.32L270.02-24.32L270.02-24.32Q272.36-25.49 274.12-27.64L274.12-27.64L274.12-27.64Q276.56-30.27 278.81-33.74L278.81-33.74L278.81-33.74Q281.05-37.21 282.96-40.97L282.96-40.97L282.96-40.97Q284.86-44.73 286.33-48.49L286.33-48.49L286.33-48.49Q287.79-52.25 288.87-55.47L288.87-55.47ZM375.98-140.43L419.92-140.43L419.92-140.43Q429.59-140.43 437.99-138.33L437.99-138.33L437.99-138.33Q446.39-136.23 452.59-131.49L452.59-131.49L452.59-131.49Q458.79-126.76 462.35-119.14L462.35-119.14L462.35-119.14Q465.92-111.52 465.92-100.59L465.92-100.59L465.92-100.59Q465.92-88.38 461.82-80.66L461.82-80.66L461.82-80.66Q457.71-72.95 450.73-68.46L450.73-68.46L450.73-68.46Q443.75-63.96 434.52-62.30L434.52-62.30L434.52-62.30Q425.29-60.64 415.04-60.64L415.04-60.64L415.04-60.64Q409.47-60.64 404.15-61.04L404.15-61.04L404.15-61.04Q398.83-61.43 394.14-61.91L394.14-61.91L394.14 0L375.98 0L375.98-140.43ZM394.14-125.78L394.14-76.56L394.14-76.56Q398.83-75.98 403.96-75.63L403.96-75.63L403.96-75.63Q409.08-75.29 414.26-75.29L414.26-75.29L414.26-75.29Q421.68-75.29 427.88-76.22L427.88-76.22L427.88-76.22Q434.08-77.15 438.48-79.88L438.48-79.88L438.48-79.88Q442.87-82.62 445.31-87.60L445.31-87.60L445.31-87.60Q447.75-92.58 447.75-100.59L447.75-100.59L447.75-100.59Q447.75-107.91 445.70-112.74L445.70-112.74L445.70-112.74Q443.65-117.58 439.99-120.51L439.99-120.51L439.99-120.51Q436.33-123.44 431.20-124.61L431.20-124.61L431.20-124.61Q426.07-125.78 419.92-125.78L419.92-125.78L394.14-125.78ZM510.74-78.03L511.62-78.03L511.62-78.03Q514.65-84.08 518.12-88.96L518.12-88.96L518.12-88.96Q521.58-93.85 525.78-97.27L525.78-97.27L525.78-97.27Q529.59-100.59 534.18-102.20L534.18-102.20L534.18-102.20Q538.77-103.81 544.63-103.81L544.63-103.81L544.63-103.81Q546.58-103.81 549.17-103.61L549.17-103.61L549.17-103.61Q551.76-103.42 554.10-102.93L554.10-102.93L554.10-102.93Q553.71-98.05 553.17-93.75L553.17-93.75L553.17-93.75Q552.64-89.45 551.76-85.06L551.76-85.06L551.76-85.06Q546.88-85.94 542.82-86.33L542.82-86.33L542.82-86.33Q538.77-86.72 535.16-86.13L535.16-86.13L535.16-86.13Q530.86-85.35 527.69-83.25L527.69-83.25L527.69-83.25Q524.51-81.15 521.83-77.69L521.83-77.69L521.83-77.69Q519.14-74.22 516.60-69.38L516.60-69.38L516.60-69.38Q514.06-64.55 511.04-58.30L511.04-58.30L511.04 0L494.24 0L494.24-62.60L494.24-62.60Q494.24-68.75 494.09-73.44L494.09-73.44L494.09-73.44Q493.95-78.13 493.51-82.37L493.51-82.37L493.51-82.37Q493.07-86.62 492.19-90.77L492.19-90.77L492.19-90.77Q491.31-94.92 489.84-100L489.84-100L489.84-100Q493.95-101.07 497.90-101.95L497.90-101.95L497.90-101.95Q501.86-102.83 505.96-103.61L505.96-103.61L505.96-103.61Q507.32-99.71 508.15-96.68L508.15-96.68L508.15-96.68Q508.98-93.65 509.47-90.77L509.47-90.77L509.47-90.77Q509.96-87.89 510.21-84.91L510.21-84.91L510.21-84.91Q510.45-81.93 510.74-78.03L510.74-78.03ZM584.57-140.92L584.57-140.92L584.57-140.92Q589.06-140.92 592.38-137.79L592.38-137.79L592.38-137.79Q595.61-134.38 595.61-129.79L595.61-129.79L595.61-129.79Q595.61-125.10 592.38-121.88L592.38-121.88L592.38-121.88Q589.06-118.55 584.57-118.55L584.57-118.55L584.57-118.55Q579.88-118.55 576.56-121.88L576.56-121.88L576.56-121.88Q573.24-125 573.24-129.79L573.24-129.79L573.24-129.79Q573.24-134.47 576.56-137.79L576.56-137.79L576.56-137.79Q579.88-140.92 584.57-140.92ZM575.98 0L575.98-101.56L592.77-101.56L592.77 0L575.98 0ZM624.51-99.80L624.51-99.80L640.72-103.42L640.72-103.42Q642.58-97.56 643.36-92.09L643.36-92.09L643.36-92.09Q643.75-89.45 644.34-81.64L644.34-81.64L646.39-81.64L646.39-81.64Q651.76-91.50 659.67-97.36L659.67-97.36L659.67-97.36Q668.36-103.81 678.03-103.81L678.03-103.81L678.03-103.81Q692.58-103.81 700.20-96.78L700.20-96.78L700.20-96.78Q706.74-90.82 709.28-78.52L709.28-78.52L709.28-78.52Q710.94-70.12 710.94-53.52L710.94-53.52L710.94 0L694.14 0L694.14-58.20L694.14-58.20Q694.14-72.75 691.31-79.00L691.31-79.00L691.31-79.00Q687.11-88.28 674.41-88.28L674.41-88.28L674.41-88.28Q665.43-88.28 656.84-79.69L656.84-79.69L656.84-79.69Q651.07-73.93 644.53-62.79L644.53-62.79L644.53 0L627.73 0L627.73-62.50L627.73-62.50Q627.73-75.68 627.05-85.25L627.05-85.25L627.05-85.25Q626.66-91.21 624.51-99.80ZM806.54-17.29L810.74-3.61L810.74-3.61Q803.13-0.98 794.48 0.68L794.48 0.68L794.48 0.68Q785.84 2.34 778.13 2.34L778.13 2.34L778.13 2.34Q766.41 2.34 757.81-1.07L757.81-1.07L757.81-1.07Q749.22-4.49 743.60-11.04L743.60-11.04L743.60-11.04Q737.99-17.58 735.25-27.10L735.25-27.10L735.25-27.10Q732.52-36.62 732.52-48.83L732.52-48.83L732.52-48.83Q732.52-62.11 735.89-72.36L735.89-72.36L735.89-72.36Q739.26-82.62 745.65-89.60L745.65-89.60L745.65-89.60Q752.05-96.58 761.28-100.20L761.28-100.20L761.28-100.20Q770.51-103.81 782.23-103.81L782.23-103.81L782.23-103.81Q788.18-103.81 794.34-102.59L794.34-102.59L794.34-102.59Q800.49-101.37 806.84-99.51L806.84-99.51L802.64-85.84L802.64-85.84Q797.56-87.50 793.21-88.48L793.21-88.48L793.21-88.48Q788.87-89.45 784.08-89.45L784.08-89.45L784.08-89.45Q767.48-89.45 758.50-79.83L758.50-79.83L758.50-79.83Q749.51-70.21 749.51-50.78L749.51-50.78L749.51-50.78Q749.51-41.70 750.83-34.52L750.83-34.52L750.83-34.52Q752.15-27.34 755.52-22.31L755.52-22.31L755.52-22.31Q758.89-17.29 764.70-14.65L764.70-14.65L764.70-14.65Q770.51-12.01 779.49-12.01L779.49-12.01L779.49-12.01Q785.35-12.01 792.14-13.53L792.14-13.53L792.14-13.53Q798.93-15.04 806.54-17.29L806.54-17.29ZM905.86-18.85L910.74-5.66L910.74-5.66Q899.90-1.37 890.38 0.49L890.38 0.49L890.38 0.49Q880.86 2.34 873.34 2.34L873.34 2.34L873.34 2.34Q861.82 2.34 853.22-1.32L853.22-1.32L853.22-1.32Q844.63-4.98 838.92-11.62L838.92-11.62L838.92-11.62Q833.20-18.26 830.32-27.49L830.32-27.49L830.32-27.49Q827.44-36.72 827.44-47.85L827.44-47.85L827.44-47.85Q827.44-54.69 828.42-61.52L828.42-61.52L828.42-61.52Q829.39-68.36 831.54-74.56L831.54-74.56L831.54-74.56Q833.69-80.76 837.16-86.13L837.16-86.13L837.16-86.13Q840.63-91.50 845.61-95.41L845.61-95.41L845.61-95.41Q850.59-99.32 857.23-101.56L857.23-101.56L857.23-101.56Q863.87-103.81 872.36-103.81L872.36-103.81L872.36-103.81Q894.14-103.81 905.18-90.19L905.18-90.19L905.18-90.19Q916.21-76.56 916.21-51.17L916.21-51.17L916.21-45.80L844.73-45.80L844.73-45.80Q844.73-37.60 846.48-31.30L846.48-31.30L846.48-31.30Q848.24-25 851.90-20.65L851.90-20.65L851.90-20.65Q855.57-16.31 861.18-14.06L861.18-14.06L861.18-14.06Q866.80-11.82 874.51-11.82L874.51-11.82L874.51-11.82Q878.81-11.82 883.06-12.45L883.06-12.45L883.06-12.45Q887.30-13.09 891.31-14.11L891.31-14.11L891.31-14.11Q895.31-15.14 898.97-16.41L898.97-16.41L898.97-16.41Q902.64-17.68 905.86-18.85L905.86-18.85ZM845.21-59.28L899.32-59.28L899.32-59.28Q898.54-75.10 891.75-82.37L891.75-82.37L891.75-82.37Q884.96-89.65 872.36-89.65L872.36-89.65L872.36-89.65Q859.77-89.65 853.17-82.37L853.17-82.37L853.17-82.37Q846.58-75.10 845.21-59.28L845.21-59.28ZM951.37-101.56L951.37-124.80L968.16-124.80L968.16-101.56L1002.34-101.56L1002.34-87.40L968.16-87.40L968.16-29.10L968.16-29.10Q968.16-23.24 968.51-20.17L968.51-20.17L968.51-20.17Q968.85-17.09 970.21-15.33L970.21-15.33L970.21-15.33Q972.75-11.82 980.47-11.82L980.47-11.82L980.47-11.82Q984.77-11.82 988.77-12.70L988.77-12.70L988.77-12.70Q992.87-13.57 996.29-14.65L996.29-14.65L996.29-14.65Q999.02-8.69 1001.27-1.56L1001.27-1.56L1001.27-1.56Q989.75 2.34 978.03 2.34L978.03 2.34L978.03 2.34Q969.53 2.34 964.40 0.44L964.40 0.44L964.40 0.44Q959.28-1.46 956.35-5.76L956.35-5.76L956.35-5.76Q953.32-10.25 952.34-16.50L952.34-16.50L952.34-16.50Q951.37-22.75 951.37-33.79L951.37-33.79L951.37-87.40L936.72-87.40L936.72-101.56L951.37-101.56ZM1064.26-103.81L1064.26-103.81L1064.26-103.81Q1069.04-103.81 1074.22-103.08L1074.22-103.08L1074.22-103.08Q1079.39-102.34 1084.38-100.29L1084.38-100.29L1084.38-100.29Q1089.36-98.14 1093.80-94.48L1093.80-94.48L1093.80-94.48Q1098.24-90.82 1101.66-84.96L1101.66-84.96L1101.66-84.96Q1105.08-79.00 1107.03-70.65L1107.03-70.65L1107.03-70.65Q1108.98-62.30 1108.98-50.78L1108.98-50.78L1108.98-50.78Q1108.98-39.26 1107.03-30.91L1107.03-30.91L1107.03-30.91Q1105.08-22.56 1101.66-16.70L1101.66-16.70L1101.66-16.70Q1098.24-10.74 1093.80-7.03L1093.80-7.03L1093.80-7.03Q1089.36-3.32 1084.38-1.27L1084.38-1.27L1084.38-1.27Q1079.39 0.88 1074.22 1.61L1074.22 1.61L1074.22 1.61Q1069.04 2.34 1064.26 2.34L1064.26 2.34L1064.26 2.34Q1059.57 2.34 1054.44 1.61L1054.44 1.61L1054.44 1.61Q1049.32 0.88 1044.34-1.27L1044.34-1.27L1044.34-1.27Q1039.36-3.32 1034.96-7.03L1034.96-7.03L1034.96-7.03Q1030.57-10.74 1027.15-16.70L1027.15-16.70L1027.15-16.70Q1023.73-22.56 1021.78-30.91L1021.78-30.91L1021.78-30.91Q1019.82-39.26 1019.82-50.78L1019.82-50.78L1019.82-50.78Q1019.82-62.30 1021.78-70.65L1021.78-70.65L1021.78-70.65Q1023.73-79.00 1027.15-84.96L1027.15-84.96L1027.15-84.96Q1030.57-90.82 1034.96-94.48L1034.96-94.48L1034.96-94.48Q1039.36-98.14 1044.34-100.29L1044.34-100.29L1044.34-100.29Q1049.32-102.34 1054.39-103.08L1054.39-103.08L1054.39-103.08Q1059.47-103.81 1064.26-103.81ZM1064.26-90.04L1064.26-90.04L1064.26-90.04Q1058.69-90.04 1053.76-88.28L1053.76-88.28L1053.76-88.28Q1048.83-86.52 1045.12-82.13L1045.12-82.13L1045.12-82.13Q1041.31-77.64 1039.06-70.12L1039.06-70.12L1039.06-70.12Q1036.82-62.60 1036.82-50.78L1036.82-50.78L1036.82-50.78Q1036.82-39.06 1039.06-31.49L1039.06-31.49L1039.06-31.49Q1041.31-23.93 1045.12-19.53L1045.12-19.53L1045.12-19.53Q1048.83-15.04 1053.76-13.33L1053.76-13.33L1053.76-13.33Q1058.69-11.62 1064.26-11.62L1064.26-11.62L1064.26-11.62Q1069.92-11.62 1074.95-13.33L1074.95-13.33L1074.95-13.33Q1079.98-15.04 1083.79-19.53L1083.79-19.53L1083.79-19.53Q1087.60-23.93 1089.79-31.49L1089.79-31.49L1089.79-31.49Q1091.99-39.06 1091.99-50.78L1091.99-50.78L1091.99-50.78Q1091.99-62.60 1089.79-70.12L1089.79-70.12L1089.79-70.12Q1087.60-77.64 1083.79-82.13L1083.79-82.13L1083.79-82.13Q1079.98-86.52 1074.95-88.28L1074.95-88.28L1074.95-88.28Q1069.92-90.04 1064.26-90.04ZM1131.93-99.80L1131.93-99.80L1148.14-103.42L1148.14-103.42Q1150-97.56 1150.78-92.09L1150.78-92.09L1150.78-92.09Q1151.17-89.45 1151.76-81.64L1151.76-81.64L1153.81-81.64L1153.81-81.64Q1159.18-91.50 1167.09-97.36L1167.09-97.36L1167.09-97.36Q1175.78-103.81 1185.45-103.81L1185.45-103.81L1185.45-103.81Q1200-103.81 1207.62-96.78L1207.62-96.78L1207.62-96.78Q1214.16-90.82 1216.70-78.52L1216.70-78.52L1216.70-78.52Q1218.36-70.12 1218.36-53.52L1218.36-53.52L1218.36 0L1201.56 0L1201.56-58.20L1201.56-58.20Q1201.56-72.75 1198.73-79.00L1198.73-79.00L1198.73-79.00Q1194.53-88.28 1181.84-88.28L1181.84-88.28L1181.84-88.28Q1172.85-88.28 1164.26-79.69L1164.26-79.69L1164.26-79.69Q1158.50-73.93 1151.95-62.79L1151.95-62.79L1151.95 0L1135.16 0L1135.16-62.50L1135.16-62.50Q1135.16-75.68 1134.47-85.25L1134.47-85.25L1134.47-85.25Q1134.08-91.21 1131.93-99.80Z" fill="url(#editing-gradow-gradient)"></path></g></g><style>text {
  font-size: 64px;
  font-family: Arial Black;
  dominant-baseline: central;
  text-anchor: middle;
}</style></svg>