<svg width="555.4150024414063px" height="138.51142578125px" xmlns="http://www.w3.org/2000/svg" viewBox="-27.707501220703136 5.744287109374994 555.4150024414063 138.51142578125" style="background-color: rgba(0, 0, 0, 0);" preserveAspectRatio="xMidYMid"><defs><linearGradient id="editing-gradow-gradient" x1="0" x2="1" y1="0.5" y2="0.5" gradientUnits="objectBoundingBox"><stop offset="0" stop-color="#f0f"></stop><stop offset="1" stop-color="#0ff"></stop></linearGradient><filter id="editing-gradow-filter" x="-100%" y="-100%" width="300%" height="300%"><feFlood flood-color="#fffcd9" result="flood"></feFlood><feComposite operator="in" in2="SourceAlpha" in="flood" result="shadow"></feComposite><feOffset dx="-4" dy="-4" in="SourceGraphic" result="offset-1"></feOffset><feOffset dx="4" dy="4" in="shadow" result="offset-2"></feOffset><feMerge><feMergeNode in="offset-2"></feMergeNode><feMergeNode in="offset-1"></feMergeNode></feMerge></filter></defs><g filter="url(#editing-gradow-filter)"><g transform="translate(54.74500000476837, 100.86781311035156)"><path d="M42.16 0L36.19 0L30.28-15.28L12.50-15.28L6.59 0L0.63 0L18.44-44.94L24.34-44.94L42.16 0ZM21.38-38.38L14.34-20.09L28.44-20.09L21.38-38.38ZM49.16 0L49.16-44.94L55.03-44.94L55.03 0L49.16 0ZM88.81 6.63L87.94 6.63L87.94 6.63Q84.81 6.63 81.94 5.81L81.94 5.81L81.94 5.81Q79.06 5 76.56 3.55L76.56 3.55L76.56 3.55Q74.06 2.09 72.02 0.03L72.02 0.03L72.02 0.03Q69.97-2.03 68.50-4.55L68.50-4.55L68.50-4.55Q67.03-7.06 66.23-9.94L66.23-9.94L66.23-9.94Q65.44-12.81 65.44-15.94L65.44-15.94L65.44-15.94Q65.44-19.06 66.23-21.94L66.23-21.94L66.23-21.94Q67.03-24.81 68.50-27.33L68.50-27.33L68.50-27.33Q69.97-29.84 72.02-31.91L72.02-31.91L72.02-31.91Q74.06-33.97 76.56-35.42L76.56-35.42L76.56-35.42Q79.06-36.88 81.94-37.69L81.94-37.69L81.94-37.69Q84.81-38.50 87.94-38.50L87.94-38.50L87.94-38.50Q91.03-38.50 93.91-37.69L93.91-37.69L93.91-37.69Q96.78-36.88 99.30-35.41L99.30-35.41L99.30-35.41Q101.81-33.94 103.88-31.88L103.88-31.88L103.88-31.88Q105.94-29.81 107.41-27.30L107.41-27.30L107.41-27.30Q108.88-24.78 109.69-21.91L109.69-21.91L109.69-21.91Q110.50-19.03 110.50-15.94L110.50-15.94L110.50-15.94Q110.50-9.75 107.28-6.69L107.28-6.69L107.28-6.69Q104.06-3.63 97.38-3.63L97.38-3.63L97.38-3.63Q96.34-3.63 95.20-3.70L95.20-3.70L95.20-3.70Q94.06-3.78 92.88-3.94L92.88-3.94L92.88-3.94Q92.63-4.88 92.50-5.56L92.50-5.56L92.50-5.56Q92.44-5.81 92.42-6.06L92.42-6.06L92.42-6.06Q92.41-6.31 92.38-6.56L92.38-6.56L92.38-6.56Q92.34-6.78 92.34-7.20L92.34-7.20L92.34-7.20Q92.34-7.63 92.34-8.19L92.34-8.19L92.34-8.19Q92.34-9.28 92.36-10.14L92.36-10.14L92.36-10.14Q92.38-11 92.38-11.56L92.38-11.56L92.06-11.63L92.06-11.63Q91.59-9.97 90.89-8.55L90.89-8.55L90.89-8.55Q90.19-7.13 89.23-6.05L89.23-6.05L89.23-6.05Q88.28-4.97 87.06-4.36L87.06-4.36L87.06-4.36Q85.84-3.75 84.34-3.75L84.34-3.75L84.34-3.75Q82.91-3.75 81.83-4.33L81.83-4.33L81.83-4.33Q80.75-4.91 79.98-5.88L79.98-5.88L79.98-5.88Q79.22-6.84 78.73-8.09L78.73-8.09L78.73-8.09Q78.25-9.34 78.03-10.72L78.03-10.72L78.03-10.72Q77.88-11.63 77.80-12.55L77.80-12.55L77.80-12.55Q77.72-13.47 77.72-14.47L77.72-14.47L77.72-14.47Q77.72-16.88 78.28-19.27L78.28-19.27L78.28-19.27Q78.84-21.66 80.16-23.56L80.16-23.56L80.16-23.56Q81.47-25.47 83.66-26.66L83.66-26.66L83.66-26.66Q85.84-27.84 89.09-27.84L89.09-27.84L89.09-27.84Q92.44-27.84 96.88-26.78L96.88-26.78L96.53-18.38L96.53-18.38Q96.50-17.59 96.47-16.34L96.47-16.34L96.47-16.34Q96.44-15.09 96.39-13.75L96.39-13.75L96.39-13.75Q96.34-12.41 96.31-11.11L96.31-11.11L96.31-11.11Q96.28-9.81 96.28-8.94L96.28-8.94L96.28-8.94Q96.28-8.59 96.28-8.31L96.28-8.31L96.28-8.31Q96.28-8.03 96.31-7.84L96.31-7.84L96.31-7.84Q96.31-7.69 96.31-7.53L96.31-7.53L96.31-7.53Q96.31-7.38 96.34-7.22L96.34-7.22L96.34-7.22Q96.97-7.13 97.52-7.11L97.52-7.11L97.52-7.11Q98.06-7.09 98.63-7.09L98.63-7.09L98.63-7.09Q100.63-7.09 102.13-7.75L102.13-7.75L102.13-7.75Q103.63-8.41 104.63-9.58L104.63-9.58L104.63-9.58Q105.63-10.75 106.13-12.38L106.13-12.38L106.13-12.38Q106.63-14 106.63-15.94L106.63-15.94L106.63-15.94Q106.63-18.50 105.95-20.88L105.95-20.88L105.95-20.88Q105.28-23.25 104.06-25.33L104.06-25.33L104.06-25.33Q102.84-27.41 101.13-29.13L101.13-29.13L101.13-29.13Q99.41-30.84 97.33-32.06L97.33-32.06L97.33-32.06Q95.25-33.28 92.88-33.95L92.88-33.95L92.88-33.95Q90.50-34.63 87.94-34.63L87.94-34.63L87.94-34.63Q85.38-34.63 83-33.95L83-33.95L83-33.95Q80.63-33.28 78.55-32.06L78.55-32.06L78.55-32.06Q76.47-30.84 74.75-29.13L74.75-29.13L74.75-29.13Q73.03-27.41 71.81-25.33L71.81-25.33L71.81-25.33Q70.59-23.25 69.92-20.88L69.92-20.88L69.92-20.88Q69.25-18.50 69.25-15.94L69.25-15.94L69.25-15.94Q69.25-13.38 69.92-11L69.92-11L69.92-11Q70.59-8.63 71.81-6.55L71.81-6.55L71.81-6.55Q73.03-4.47 74.75-2.75L74.75-2.75L74.75-2.75Q76.47-1.03 78.55 0.19L78.55 0.19L78.55 0.19Q80.63 1.41 83 2.08L83 2.08L83 2.08Q85.38 2.75 87.94 2.75L87.94 2.75L88.81 2.75L88.81 6.63ZM92.44-17.75L92.81-24.09L92.81-24.09Q92.03-24.22 91.23-24.31L91.23-24.31L91.23-24.31Q90.44-24.41 89.63-24.41L89.63-24.41L89.63-24.41Q87.16-24.41 85.58-23.50L85.58-23.50L85.58-23.50Q84-22.59 83.11-21.16L83.11-21.16L83.11-21.16Q82.22-19.72 81.88-17.94L81.88-17.94L81.88-17.94Q81.53-16.16 81.53-14.44L81.53-14.44L81.53-14.44Q81.53-12.50 81.81-10.97L81.81-10.97L81.81-10.97Q82.09-9.47 82.78-8.44L82.78-8.44L82.78-8.44Q83.47-7.41 84.88-7.41L84.88-7.41L84.88-7.41Q85.66-7.41 86.41-7.78L86.41-7.78L86.41-7.78Q87.16-8.16 87.72-8.84L87.72-8.84L87.72-8.84Q88.50-9.69 89.22-10.80L89.22-10.80L89.22-10.80Q89.94-11.91 90.55-13.11L90.55-13.11L90.55-13.11Q91.16-14.31 91.63-15.52L91.63-15.52L91.63-15.52Q92.09-16.72 92.44-17.75L92.44-17.75ZM120.31-44.94L134.38-44.94L134.38-44.94Q137.47-44.94 140.16-44.27L140.16-44.27L140.16-44.27Q142.84-43.59 144.83-42.08L144.83-42.08L144.83-42.08Q146.81-40.56 147.95-38.13L147.95-38.13L147.95-38.13Q149.09-35.69 149.09-32.19L149.09-32.19L149.09-32.19Q149.09-28.28 147.78-25.81L147.78-25.81L147.78-25.81Q146.47-23.34 144.23-21.91L144.23-21.91L144.23-21.91Q142-20.47 139.05-19.94L139.05-19.94L139.05-19.94Q136.09-19.41 132.81-19.41L132.81-19.41L132.81-19.41Q131.03-19.41 129.33-19.53L129.33-19.53L129.33-19.53Q127.63-19.66 126.13-19.81L126.13-19.81L126.13 0L120.31 0L120.31-44.94ZM126.13-40.25L126.13-24.50L126.13-24.50Q127.63-24.31 129.27-24.20L129.27-24.20L129.27-24.20Q130.91-24.09 132.56-24.09L132.56-24.09L132.56-24.09Q134.94-24.09 136.92-24.39L136.92-24.39L136.92-24.39Q138.91-24.69 140.31-25.56L140.31-25.56L140.31-25.56Q141.72-26.44 142.50-28.03L142.50-28.03L142.50-28.03Q143.28-29.63 143.28-32.19L143.28-32.19L143.28-32.19Q143.28-34.53 142.63-36.08L142.63-36.08L142.63-36.08Q141.97-37.63 140.80-38.56L140.80-38.56L140.80-38.56Q139.63-39.50 137.98-39.88L137.98-39.88L137.98-39.88Q136.34-40.25 134.38-40.25L134.38-40.25L126.13-40.25ZM163.44-24.97L163.72-24.97L163.72-24.97Q164.69-26.91 165.80-28.47L165.80-28.47L165.80-28.47Q166.91-30.03 168.25-31.13L168.25-31.13L168.25-31.13Q169.47-32.19 170.94-32.70L170.94-32.70L170.94-32.70Q172.41-33.22 174.28-33.22L174.28-33.22L174.28-33.22Q174.91-33.22 175.73-33.16L175.73-33.16L175.73-33.16Q176.56-33.09 177.31-32.94L177.31-32.94L177.31-32.94Q177.19-31.38 177.02-30L177.02-30L177.02-30Q176.84-28.63 176.56-27.22L176.56-27.22L176.56-27.22Q175-27.50 173.70-27.63L173.70-27.63L173.70-27.63Q172.41-27.75 171.25-27.56L171.25-27.56L171.25-27.56Q169.88-27.31 168.86-26.64L168.86-26.64L168.86-26.64Q167.84-25.97 166.98-24.86L166.98-24.86L166.98-24.86Q166.13-23.75 165.31-22.20L165.31-22.20L165.31-22.20Q164.50-20.66 163.53-18.66L163.53-18.66L163.53 0L158.16 0L158.16-20.03L158.16-20.03Q158.16-22 158.11-23.50L158.11-23.50L158.11-23.50Q158.06-25 157.92-26.36L157.92-26.36L157.92-26.36Q157.78-27.72 157.50-29.05L157.50-29.05L157.50-29.05Q157.22-30.38 156.75-32L156.75-32L156.75-32Q158.06-32.34 159.33-32.63L159.33-32.63L159.33-32.63Q160.59-32.91 161.91-33.16L161.91-33.16L161.91-33.16Q162.34-31.91 162.61-30.94L162.61-30.94L162.61-30.94Q162.88-29.97 163.03-29.05L163.03-29.05L163.03-29.05Q163.19-28.13 163.27-27.17L163.27-27.17L163.27-27.17Q163.34-26.22 163.44-24.97L163.44-24.97ZM187.06-45.09L187.06-45.09L187.06-45.09Q188.50-45.09 189.56-44.09L189.56-44.09L189.56-44.09Q190.59-43 190.59-41.53L190.59-41.53L190.59-41.53Q190.59-40.03 189.56-39L189.56-39L189.56-39Q188.50-37.94 187.06-37.94L187.06-37.94L187.06-37.94Q185.56-37.94 184.50-39L184.50-39L184.50-39Q183.44-40 183.44-41.53L183.44-41.53L183.44-41.53Q183.44-43.03 184.50-44.09L184.50-44.09L184.50-44.09Q185.56-45.09 187.06-45.09ZM184.31 0L184.31-32.50L189.69-32.50L189.69 0L184.31 0ZM199.84-31.94L199.84-31.94L205.03-33.09L205.03-33.09Q205.63-31.22 205.88-29.47L205.88-29.47L205.88-29.47Q206-28.63 206.19-26.13L206.19-26.13L206.84-26.13L206.84-26.13Q208.56-29.28 211.09-31.16L211.09-31.16L211.09-31.16Q213.88-33.22 216.97-33.22L216.97-33.22L216.97-33.22Q221.63-33.22 224.06-30.97L224.06-30.97L224.06-30.97Q226.16-29.06 226.97-25.13L226.97-25.13L226.97-25.13Q227.50-22.44 227.50-17.13L227.50-17.13L227.50 0L222.13 0L222.13-18.63L222.13-18.63Q222.13-23.28 221.22-25.28L221.22-25.28L221.22-25.28Q219.88-28.25 215.81-28.25L215.81-28.25L215.81-28.25Q212.94-28.25 210.19-25.50L210.19-25.50L210.19-25.50Q208.34-23.66 206.25-20.09L206.25-20.09L206.25 0L200.88 0L200.88-20L200.88-20Q200.88-24.22 200.66-27.28L200.66-27.28L200.66-27.28Q200.53-29.19 199.84-31.94ZM258.09-5.53L259.44-1.16L259.44-1.16Q257-0.31 254.23 0.22L254.23 0.22L254.23 0.22Q251.47 0.75 249 0.75L249 0.75L249 0.75Q245.25 0.75 242.50-0.34L242.50-0.34L242.50-0.34Q239.75-1.44 237.95-3.53L237.95-3.53L237.95-3.53Q236.16-5.63 235.28-8.67L235.28-8.67L235.28-8.67Q234.41-11.72 234.41-15.63L234.41-15.63L234.41-15.63Q234.41-19.88 235.48-23.16L235.48-23.16L235.48-23.16Q236.56-26.44 238.61-28.67L238.61-28.67L238.61-28.67Q240.66-30.91 243.61-32.06L243.61-32.06L243.61-32.06Q246.56-33.22 250.31-33.22L250.31-33.22L250.31-33.22Q252.22-33.22 254.19-32.83L254.19-32.83L254.19-32.83Q256.16-32.44 258.19-31.84L258.19-31.84L256.84-27.47L256.84-27.47Q255.22-28 253.83-28.31L253.83-28.31L253.83-28.31Q252.44-28.63 250.91-28.63L250.91-28.63L250.91-28.63Q245.59-28.63 242.72-25.55L242.72-25.55L242.72-25.55Q239.84-22.47 239.84-16.25L239.84-16.25L239.84-16.25Q239.84-13.34 240.27-11.05L240.27-11.05L240.27-11.05Q240.69-8.75 241.77-7.14L241.77-7.14L241.77-7.14Q242.84-5.53 244.70-4.69L244.70-4.69L244.70-4.69Q246.56-3.84 249.44-3.84L249.44-3.84L249.44-3.84Q251.31-3.84 253.48-4.33L253.48-4.33L253.48-4.33Q255.66-4.81 258.09-5.53L258.09-5.53ZM289.88-6.03L291.44-1.81L291.44-1.81Q287.97-0.44 284.92 0.16L284.92 0.16L284.92 0.16Q281.88 0.75 279.47 0.75L279.47 0.75L279.47 0.75Q275.78 0.75 273.03-0.42L273.03-0.42L273.03-0.42Q270.28-1.59 268.45-3.72L268.45-3.72L268.45-3.72Q266.63-5.84 265.70-8.80L265.70-8.80L265.70-8.80Q264.78-11.75 264.78-15.31L264.78-15.31L264.78-15.31Q264.78-17.50 265.09-19.69L265.09-19.69L265.09-19.69Q265.41-21.88 266.09-23.86L266.09-23.86L266.09-23.86Q266.78-25.84 267.89-27.56L267.89-27.56L267.89-27.56Q269-29.28 270.59-30.53L270.59-30.53L270.59-30.53Q272.19-31.78 274.31-32.50L274.31-32.50L274.31-32.50Q276.44-33.22 279.16-33.22L279.16-33.22L279.16-33.22Q286.13-33.22 289.66-28.86L289.66-28.86L289.66-28.86Q293.19-24.50 293.19-16.38L293.19-16.38L293.19-14.66L270.31-14.66L270.31-14.66Q270.31-12.03 270.88-10.02L270.88-10.02L270.88-10.02Q271.44-8 272.61-6.61L272.61-6.61L272.61-6.61Q273.78-5.22 275.58-4.50L275.58-4.50L275.58-4.50Q277.38-3.78 279.84-3.78L279.84-3.78L279.84-3.78Q281.22-3.78 282.58-3.98L282.58-3.98L282.58-3.98Q283.94-4.19 285.22-4.52L285.22-4.52L285.22-4.52Q286.50-4.84 287.67-5.25L287.67-5.25L287.67-5.25Q288.84-5.66 289.88-6.03L289.88-6.03ZM270.47-18.97L287.78-18.97L287.78-18.97Q287.53-24.03 285.36-26.36L285.36-26.36L285.36-26.36Q283.19-28.69 279.16-28.69L279.16-28.69L279.16-28.69Q275.13-28.69 273.02-26.36L273.02-26.36L273.02-26.36Q270.91-24.03 270.47-18.97L270.47-18.97ZM304.44-32.50L304.44-39.94L309.81-39.94L309.81-32.50L320.75-32.50L320.75-27.97L309.81-27.97L309.81-9.31L309.81-9.31Q309.81-7.44 309.92-6.45L309.92-6.45L309.92-6.45Q310.03-5.47 310.47-4.91L310.47-4.91L310.47-4.91Q311.28-3.78 313.75-3.78L313.75-3.78L313.75-3.78Q315.13-3.78 316.41-4.06L316.41-4.06L316.41-4.06Q317.72-4.34 318.81-4.69L318.81-4.69L318.81-4.69Q319.69-2.78 320.41-0.50L320.41-0.50L320.41-0.50Q316.72 0.75 312.97 0.75L312.97 0.75L312.97 0.75Q310.25 0.75 308.61 0.14L308.61 0.14L308.61 0.14Q306.97-0.47 306.03-1.84L306.03-1.84L306.03-1.84Q305.06-3.28 304.75-5.28L304.75-5.28L304.75-5.28Q304.44-7.28 304.44-10.81L304.44-10.81L304.44-27.97L299.75-27.97L299.75-32.50L304.44-32.50ZM340.56-33.22L340.56-33.22L340.56-33.22Q342.09-33.22 343.75-32.98L343.75-32.98L343.75-32.98Q345.41-32.75 347-32.09L347-32.09L347-32.09Q348.59-31.41 350.02-30.23L350.02-30.23L350.02-30.23Q351.44-29.06 352.53-27.19L352.53-27.19L352.53-27.19Q353.63-25.28 354.25-22.61L354.25-22.61L354.25-22.61Q354.88-19.94 354.88-16.25L354.88-16.25L354.88-16.25Q354.88-12.56 354.25-9.89L354.25-9.89L354.25-9.89Q353.63-7.22 352.53-5.34L352.53-5.34L352.53-5.34Q351.44-3.44 350.02-2.25L350.02-2.25L350.02-2.25Q348.59-1.06 347-0.41L347-0.41L347-0.41Q345.41 0.28 343.75 0.52L343.75 0.52L343.75 0.52Q342.09 0.75 340.56 0.75L340.56 0.75L340.56 0.75Q339.06 0.75 337.42 0.52L337.42 0.52L337.42 0.52Q335.78 0.28 334.19-0.41L334.19-0.41L334.19-0.41Q332.59-1.06 331.19-2.25L331.19-2.25L331.19-2.25Q329.78-3.44 328.69-5.34L328.69-5.34L328.69-5.34Q327.59-7.22 326.97-9.89L326.97-9.89L326.97-9.89Q326.34-12.56 326.34-16.25L326.34-16.25L326.34-16.25Q326.34-19.94 326.97-22.61L326.97-22.61L326.97-22.61Q327.59-25.28 328.69-27.19L328.69-27.19L328.69-27.19Q329.78-29.06 331.19-30.23L331.19-30.23L331.19-30.23Q332.59-31.41 334.19-32.09L334.19-32.09L334.19-32.09Q335.78-32.75 337.41-32.98L337.41-32.98L337.41-32.98Q339.03-33.22 340.56-33.22ZM340.56-28.81L340.56-28.81L340.56-28.81Q338.78-28.81 337.20-28.25L337.20-28.25L337.20-28.25Q335.63-27.69 334.44-26.28L334.44-26.28L334.44-26.28Q333.22-24.84 332.50-22.44L332.50-22.44L332.50-22.44Q331.78-20.03 331.78-16.25L331.78-16.25L331.78-16.25Q331.78-12.50 332.50-10.08L332.50-10.08L332.50-10.08Q333.22-7.66 334.44-6.25L334.44-6.25L334.44-6.25Q335.63-4.81 337.20-4.27L337.20-4.27L337.20-4.27Q338.78-3.72 340.56-3.72L340.56-3.72L340.56-3.72Q342.38-3.72 343.98-4.27L343.98-4.27L343.98-4.27Q345.59-4.81 346.81-6.25L346.81-6.25L346.81-6.25Q348.03-7.66 348.73-10.08L348.73-10.08L348.73-10.08Q349.44-12.50 349.44-16.25L349.44-16.25L349.44-16.25Q349.44-20.03 348.73-22.44L348.73-22.44L348.73-22.44Q348.03-24.84 346.81-26.28L346.81-26.28L346.81-26.28Q345.59-27.69 343.98-28.25L343.98-28.25L343.98-28.25Q342.38-28.81 340.56-28.81ZM362.22-31.94L362.22-31.94L367.41-33.09L367.41-33.09Q368-31.22 368.25-29.47L368.25-29.47L368.25-29.47Q368.38-28.63 368.56-26.13L368.56-26.13L369.22-26.13L369.22-26.13Q370.94-29.28 373.47-31.16L373.47-31.16L373.47-31.16Q376.25-33.22 379.34-33.22L379.34-33.22L379.34-33.22Q384-33.22 386.44-30.97L386.44-30.97L386.44-30.97Q388.53-29.06 389.34-25.13L389.34-25.13L389.34-25.13Q389.88-22.44 389.88-17.13L389.88-17.13L389.88 0L384.50 0L384.50-18.63L384.50-18.63Q384.50-23.28 383.59-25.28L383.59-25.28L383.59-25.28Q382.25-28.25 378.19-28.25L378.19-28.25L378.19-28.25Q375.31-28.25 372.56-25.50L372.56-25.50L372.56-25.50Q370.72-23.66 368.63-20.09L368.63-20.09L368.63 0L363.25 0L363.25-20L363.25-20Q363.25-24.22 363.03-27.28L363.03-27.28L363.03-27.28Q362.91-29.19 362.22-31.94Z" fill="url(#editing-gradow-gradient)"></path></g></g><style>text {
  font-size: 64px;
  font-family: Arial Black;
  dominant-baseline: central;
  text-anchor: middle;
}</style></svg>